<ttFont>
    <TTGlyph name=".notdef" xMin="256" yMin="0" xMax="1280" yMax="1280">
      <contour>
        <pt x="256" y="0" on="1"/>
        <pt x="256" y="1280" on="1"/>
        <pt x="1280" y="1280" on="1"/>
        <pt x="1280" y="0" on="1"/>
      </contour>
      <contour>
        <pt x="288" y="32" on="1"/>
        <pt x="1248" y="32" on="1"/>
        <pt x="1248" y="1248" on="1"/>
        <pt x="288" y="1248" on="1"/>
      </contour>
    </TTGlyph>
    <TTGlyph name="ampersand" xMin="106" yMin="-47" xMax="1304" yMax="1452">
      <contour>
        <pt x="1009" y="684" on="1"/>
        <pt x="1173" y="684" on="1"/>
        <pt x="1173" y="492" on="0"/>
        <pt x="1054" y="309" on="1"/>
        <pt x="1304" y="0" on="1"/>
        <pt x="1081" y="0" on="1"/>
        <pt x="954" y="160" on="1"/>
        <pt x="854" y="61" on="0"/>
        <pt x="796" y="27" on="1"/>
        <pt x="681" y="-47" on="0"/>
        <pt x="526" y="-47" on="1"/>
        <pt x="288" y="-47" on="0"/>
        <pt x="174" y="121" on="1"/>
        <pt x="106" y="221" on="0"/>
        <pt x="106" y="360" on="1"/>
        <pt x="106" y="526" on="0"/>
        <pt x="212" y="635" on="1"/>
        <pt x="286" y="709" on="0"/>
        <pt x="438" y="797" on="1"/>
        <pt x="294" y="977" on="0"/>
        <pt x="276" y="1075" on="1"/>
        <pt x="272" y="1102" on="0"/>
        <pt x="272" y="1130" on="1"/>
        <pt x="272" y="1288" on="0"/>
        <pt x="405" y="1384" on="1"/>
        <pt x="499" y="1452" on="0"/>
        <pt x="622" y="1452" on="1"/>
        <pt x="806" y="1452" on="0"/>
        <pt x="901" y="1317" on="1"/>
        <pt x="931" y="1260" on="1"/>
        <pt x="950" y="1217" on="0"/>
        <pt x="954" y="1167" on="1"/>
        <pt x="956" y="1149" on="0"/>
        <pt x="956" y="1130" on="1"/>
        <pt x="956" y="989" on="0"/>
        <pt x="843" y="889" on="1"/>
        <pt x="784" y="836" on="0"/>
        <pt x="673" y="774" on="1"/>
        <pt x="946" y="440" on="1"/>
        <pt x="1009" y="552" on="0"/>
        <pt x="1009" y="676" on="1"/>
      </contour>
      <contour>
        <pt x="583" y="883" on="1"/>
        <pt x="749" y="987" on="0"/>
        <pt x="780" y="1063" on="1"/>
        <pt x="794" y="1094" on="0"/>
        <pt x="794" y="1135" on="1"/>
        <pt x="794" y="1241" on="0"/>
        <pt x="702" y="1288" on="1"/>
        <pt x="663" y="1309" on="0"/>
        <pt x="616" y="1309" on="1"/>
        <pt x="493" y="1309" on="0"/>
        <pt x="452" y="1206" on="1"/>
        <pt x="440" y="1174" on="0"/>
        <pt x="440" y="1133" on="1"/>
        <pt x="440" y="1065" on="0"/>
        <pt x="491" y="993" on="1"/>
      </contour>
      <contour>
        <pt x="856" y="281" on="1"/>
        <pt x="528" y="690" on="1"/>
        <pt x="335" y="567" on="0"/>
        <pt x="294" y="465" on="1"/>
        <pt x="278" y="424" on="0"/>
        <pt x="278" y="375" on="1"/>
        <pt x="278" y="242" on="0"/>
        <pt x="389" y="164" on="1"/>
        <pt x="460" y="113" on="0"/>
        <pt x="546" y="113" on="1"/>
        <pt x="684" y="113" on="0"/>
        <pt x="823" y="246" on="1"/>
        <pt x="839" y="262" on="0"/>
      </contour>
    </TTGlyph>
    <TTGlyph name="asterisk" xMin="450" yMin="903" xMax="1071" yMax="1493">
      <contour>
        <pt x="696" y="1493" on="1"/>
        <pt x="825" y="1493" on="1"/>
        <pt x="815" y="1264" on="1"/>
        <pt x="1032" y="1341" on="1"/>
        <pt x="1071" y="1221" on="1"/>
        <pt x="849" y="1159" on="1"/>
        <pt x="993" y="977" on="1"/>
        <pt x="888" y="903" on="1"/>
        <pt x="761" y="1094" on="1"/>
        <pt x="632" y="903" on="1"/>
        <pt x="530" y="977" on="1"/>
        <pt x="671" y="1159" on="1"/>
        <pt x="450" y="1221" on="1"/>
        <pt x="489" y="1341" on="1"/>
        <pt x="706" y="1264" on="1"/>
      </contour>
    </TTGlyph>
    <TTGlyph name="at" xMin="69" yMin="-290" xMax="1947" yMax="1518">
      <contour>
        <pt x="1361" y="1026" on="1"/>
        <pt x="1531" y="1026" on="1"/>
        <pt x="1347" y="453" on="1"/>
        <pt x="1322" y="381" on="0"/>
        <pt x="1322" y="350" on="1"/>
        <pt x="1322" y="295" on="0"/>
        <pt x="1382" y="268" on="1"/>
        <pt x="1402" y="260" on="0"/>
        <pt x="1425" y="260" on="1"/>
        <pt x="1556" y="260" on="0"/>
        <pt x="1664" y="408" on="1"/>
        <pt x="1769" y="553" on="0"/>
        <pt x="1769" y="731" on="1"/>
        <pt x="1769" y="977" on="0"/>
        <pt x="1570" y="1159" on="1"/>
        <pt x="1367" y="1348" on="0"/>
        <pt x="1079" y="1360" on="1"/>
        <pt x="1048" y="1360" on="1"/>
        <pt x="747" y="1360" on="0"/>
        <pt x="515" y="1151" on="1"/>
        <pt x="446" y="1081" on="1"/>
        <pt x="243" y="850" on="0"/>
        <pt x="243" y="559" on="1"/>
        <pt x="243" y="270" on="0"/>
        <pt x="458" y="72" on="1"/>
        <pt x="679" y="-133" on="0"/>
        <pt x="1011" y="-133" on="1"/>
        <pt x="1173" y="-133" on="0"/>
        <pt x="1406" y="-67" on="1"/>
        <pt x="1464" y="-204" on="1"/>
        <pt x="1234" y="-290" on="0"/>
        <pt x="1001" y="-290" on="1"/>
        <pt x="632" y="-290" on="0"/>
        <pt x="364" y="-71" on="1"/>
        <pt x="114" y="133" on="0"/>
        <pt x="75" y="434" on="1"/>
        <pt x="69" y="481" on="0"/>
        <pt x="69" y="528" on="1"/>
        <pt x="69" y="844" on="0"/>
        <pt x="264" y="1110" on="1"/>
        <pt x="321" y="1190" on="0"/>
        <pt x="393" y="1253" on="1"/>
        <pt x="614" y="1454" on="0"/>
        <pt x="923" y="1505" on="1"/>
        <pt x="999" y="1518" on="0"/>
        <pt x="1075" y="1518" on="1"/>
        <pt x="1415" y="1518" on="0"/>
        <pt x="1666" y="1311" on="1"/>
        <pt x="1904" y="1118" on="0"/>
        <pt x="1941" y="842" on="1"/>
        <pt x="1947" y="799" on="0"/>
        <pt x="1947" y="756" on="1"/>
        <pt x="1947" y="508" on="0"/>
        <pt x="1771" y="299" on="1"/>
        <pt x="1615" y="117" on="0"/>
        <pt x="1390" y="117" on="1"/>
        <pt x="1193" y="117" on="0"/>
        <pt x="1165" y="274" on="1"/>
        <pt x="1030" y="127" on="0"/>
        <pt x="874" y="127" on="1"/>
        <pt x="706" y="127" on="0"/>
        <pt x="610" y="268" on="1"/>
        <pt x="540" y="369" on="0"/>
        <pt x="540" y="502" on="1"/>
        <pt x="540" y="725" on="0"/>
        <pt x="702" y="897" on="1"/>
        <pt x="860" y="1067" on="0"/>
        <pt x="1066" y="1069" on="1"/>
        <pt x="1238" y="1069" on="0"/>
        <pt x="1316" y="891" on="1"/>
      </contour>
      <contour>
        <pt x="1054" y="938" on="1"/>
        <pt x="919" y="938" on="0"/>
        <pt x="817" y="793" on="1"/>
        <pt x="724" y="664" on="0"/>
        <pt x="724" y="500" on="1"/>
        <pt x="724" y="362" on="0"/>
        <pt x="821" y="293" on="1"/>
        <pt x="870" y="258" on="0"/>
        <pt x="927" y="258" on="1"/>
        <pt x="1046" y="258" on="0"/>
        <pt x="1136" y="391" on="1"/>
        <pt x="1204" y="489" on="0"/>
        <pt x="1236" y="662" on="1"/>
        <pt x="1245" y="707" on="0"/>
        <pt x="1247" y="741" on="1"/>
        <pt x="1247" y="755" on="1"/>
        <pt x="1247" y="856" on="0"/>
        <pt x="1163" y="909" on="1"/>
        <pt x="1113" y="938" on="0"/>
      </contour>
    </TTGlyph>
    <TTGlyph name="colon" xMin="225" yMin="0" xMax="438" yMax="1073">
      <contour>
        <pt x="438" y="213" on="1"/>
        <pt x="438" y="0" on="1"/>
        <pt x="225" y="0" on="1"/>
        <pt x="225" y="213" on="1"/>
      </contour>
      <contour>
        <pt x="438" y="1073" on="1"/>
        <pt x="438" y="860" on="1"/>
        <pt x="225" y="860" on="1"/>
        <pt x="225" y="1073" on="1"/>
      </contour>
    </TTGlyph>
    <TTGlyph name="comma" xMin="178" yMin="-301" xMax="393" yMax="213">
      <contour>
        <pt x="178" y="213" on="1"/>
        <pt x="393" y="213" on="1"/>
        <pt x="393" y="-32" on="1"/>
        <pt x="393" y="-301" on="0"/>
        <pt x="178" y="-301" on="1"/>
        <pt x="178" y="-223" on="1"/>
        <pt x="266" y="-219" on="0"/>
        <pt x="287" y="-155" on="1"/>
        <pt x="301" y="-116" on="0"/>
        <pt x="301" y="-36" on="1"/>
        <pt x="301" y="0" on="1"/>
        <pt x="178" y="0" on="1"/>
      </contour>
    </TTGlyph>
    <TTGlyph name="dollar" xMin="70" yMin="-258" xMax="1064" yMax="1577">
      <contour>
        <pt x="501" y="1577" on="1"/>
        <pt x="622" y="1577" on="1"/>
        <pt x="622" y="1466" on="1"/>
        <pt x="880" y="1448" on="0"/>
        <pt x="976" y="1257" on="1"/>
        <pt x="1015" y="1180" on="0"/>
        <pt x="1019" y="1083" on="1"/>
        <pt x="1019" y="1063" on="1"/>
        <pt x="858" y="1063" on="1"/>
        <pt x="856" y="1221" on="0"/>
        <pt x="739" y="1290" on="1"/>
        <pt x="698" y="1313" on="0"/>
        <pt x="649" y="1321" on="1"/>
        <pt x="636" y="1323" on="0"/>
        <pt x="622" y="1323" on="1"/>
        <pt x="622" y="813" on="1"/>
        <pt x="827" y="750" on="0"/>
        <pt x="890" y="715" on="1"/>
        <pt x="1064" y="616" on="0"/>
        <pt x="1064" y="399" on="1"/>
        <pt x="1064" y="186" on="0"/>
        <pt x="925" y="61" on="1"/>
        <pt x="903" y="41" on="0"/>
        <pt x="876" y="25" on="1"/>
        <pt x="776" y="-34" on="0"/>
        <pt x="622" y="-47" on="1"/>
        <pt x="622" y="-258" on="1"/>
        <pt x="501" y="-258" on="1"/>
        <pt x="501" y="-47" on="1"/>
        <pt x="186" y="-26" on="0"/>
        <pt x="98" y="213" on="1"/>
        <pt x="70" y="293" on="0"/>
        <pt x="70" y="390" on="1"/>
        <pt x="70" y="408" on="0"/>
        <pt x="71" y="426" on="1"/>
        <pt x="233" y="426" on="1"/>
        <pt x="247" y="274" on="0"/>
        <pt x="276" y="225" on="1"/>
        <pt x="280" y="219" on="0"/>
        <pt x="284" y="211" on="1"/>
        <pt x="356" y="113" on="0"/>
        <pt x="501" y="94" on="1"/>
        <pt x="501" y="651" on="1"/>
        <pt x="311" y="709" on="0"/>
        <pt x="243" y="758" on="1"/>
        <pt x="98" y="862" on="0"/>
        <pt x="98" y="1057" on="1"/>
        <pt x="98" y="1356" on="0"/>
        <pt x="384" y="1442" on="1"/>
        <pt x="438" y="1458" on="0"/>
        <pt x="501" y="1466" on="1"/>
      </contour>
      <contour>
        <pt x="501" y="829" on="1"/>
        <pt x="501" y="1321" on="1"/>
        <pt x="305" y="1294" on="0"/>
        <pt x="270" y="1139" on="1"/>
        <pt x="264" y="1110" on="0"/>
        <pt x="264" y="1077" on="1"/>
        <pt x="264" y="893" on="0"/>
      </contour>
      <contour>
        <pt x="622" y="633" on="1"/>
        <pt x="622" y="94" on="1"/>
        <pt x="747" y="109" on="0"/>
        <pt x="810" y="170" on="1"/>
        <pt x="896" y="252" on="0"/>
        <pt x="896" y="375" on="1"/>
        <pt x="896" y="500" on="0"/>
        <pt x="800" y="561" on="1"/>
        <pt x="741" y="598" on="0"/>
      </contour>
    </TTGlyph>
    <TTGlyph name="eight" xMin="74" yMin="0" xMax="1004" yMax="1500">
      <contour>
        <pt x="539" y="1350" on="1"/>
        <pt x="254" y="1350" on="0"/>
        <pt x="254" y="1100" on="1"/>
        <pt x="254" y="850" on="0"/>
        <pt x="539" y="850" on="1"/>
        <pt x="824" y="850" on="0"/>
        <pt x="824" y="1100" on="1"/>
        <pt x="824" y="1350" on="0"/>
      </contour>
      <contour>
        <pt x="539" y="700" on="1"/>
        <pt x="224" y="700" on="0"/>
        <pt x="224" y="425" on="1"/>
        <pt x="224" y="150" on="0"/>
        <pt x="539" y="150" on="1"/>
        <pt x="854" y="150" on="0"/>
        <pt x="854" y="425" on="1"/>
        <pt x="854" y="700" on="0"/>
      </contour>
      <contour>
        <pt x="237" y="780" on="1"/>
        <pt x="104" y="878" on="0"/>
        <pt x="104" y="1100" on="1"/>
        <pt x="104" y="1500" on="0"/>
        <pt x="539" y="1500" on="1"/>
        <pt x="974" y="1500" on="0"/>
        <pt x="974" y="1100" on="1"/>
        <pt x="974" y="878" on="0"/>
        <pt x="841" y="780" on="1"/>
        <pt x="1004" y="677" on="0"/>
        <pt x="1004" y="425" on="1"/>
        <pt x="1004" y="0" on="0"/>
        <pt x="539" y="0" on="1"/>
        <pt x="74" y="0" on="0"/>
        <pt x="74" y="425" on="1"/>
        <pt x="74" y="677" on="0"/>
      </contour>
    </TTGlyph>
    <TTGlyph name="equal" xMin="102" yMin="227" xMax="1093" yMax="723">
      <contour>
        <pt x="1093" y="723" on="1"/>
        <pt x="1093" y="580" on="1"/>
        <pt x="102" y="580" on="1"/>
        <pt x="102" y="723" on="1"/>
      </contour>
      <contour>
        <pt x="1093" y="371" on="1"/>
        <pt x="1093" y="227" on="1"/>
        <pt x="102" y="227" on="1"/>
        <pt x="102" y="371" on="1"/>
      </contour>
    </TTGlyph>
    <TTGlyph name="exclam" xMin="450" yMin="0" xMax="622" yMax="1493">
      <contour>
        <pt x="612" y="1493" on="1"/>
        <pt x="612" y="801" on="1"/>
        <pt x="572" y="344" on="1"/>
        <pt x="502" y="344" on="1"/>
        <pt x="462" y="801" on="1"/>
        <pt x="462" y="1493" on="1"/>
      </contour>
      <contour>
        <pt x="622" y="213" on="1"/>
        <pt x="622" y="0" on="1"/>
        <pt x="450" y="0" on="1"/>
        <pt x="450" y="213" on="1"/>
      </contour>
    </TTGlyph>
    <TTGlyph name="five" xMin="124" yMin="0" xMax="1039" yMax="1500">
      <contour>
        <pt x="1039" y="500" on="1"/>
        <pt x="1039" y="0" on="0"/>
        <pt x="602" y="0" on="1"/>
        <pt x="174" y="0" on="0"/>
        <pt x="124" y="397" on="1"/>
        <pt x="274" y="397" on="1"/>
        <pt x="324" y="150" on="0"/>
        <pt x="602" y="150" on="1"/>
        <pt x="889" y="150" on="0"/>
        <pt x="889" y="500" on="1"/>
        <pt x="889" y="850" on="0"/>
        <pt x="612" y="850" on="1"/>
        <pt x="410" y="850" on="0"/>
        <pt x="324" y="722" on="1"/>
        <pt x="179" y="722" on="1"/>
        <pt x="249" y="1500" on="1"/>
        <pt x="969" y="1500" on="1"/>
        <pt x="969" y="1350" on="1"/>
        <pt x="384" y="1350" on="1"/>
        <pt x="347" y="949" on="1"/>
        <pt x="454" y="1000" on="0"/>
        <pt x="612" y="1000" on="1"/>
        <pt x="1039" y="1000" on="0"/>
      </contour>
    </TTGlyph>
    <TTGlyph name="four" xMin="40" yMin="0" xMax="1040" yMax="1500">
      <contour>
        <pt x="698" y="1231" on="1"/>
        <pt x="221" y="519" on="1"/>
        <pt x="698" y="519" on="1"/>
      </contour>
      <contour>
        <pt x="698" y="1500" on="1"/>
        <pt x="848" y="1500" on="1"/>
        <pt x="848" y="519" on="1"/>
        <pt x="1040" y="519" on="1"/>
        <pt x="1040" y="369" on="1"/>
        <pt x="848" y="369" on="1"/>
        <pt x="848" y="0" on="1"/>
        <pt x="698" y="0" on="1"/>
        <pt x="698" y="369" on="1"/>
        <pt x="40" y="369" on="1"/>
        <pt x="40" y="519" on="1"/>
      </contour>
    </TTGlyph>
    <TTGlyph name="glyph139" xMin="-850" yMin="-700" xMax="750" yMax="1500">
      <contour>
        <pt x="700" y="-300" on="1"/>
        <pt x="700" y="-700" on="0"/>
        <pt x="275" y="-700" on="1"/>
        <pt x="50" y="-700" on="0"/>
        <pt x="-50" y="-600" on="1"/>
        <pt x="-198" y="-700" on="0"/>
        <pt x="-346" y="-700" on="1"/>
        <pt x="-349" y="-700" on="1"/>
        <pt x="-578" y="-700" on="0"/>
        <pt x="-714" y="-625" on="1"/>
        <pt x="-850" y="-550" on="0"/>
        <pt x="-850" y="-400" on="1"/>
        <pt x="-690" y="-400" on="0"/>
        <pt x="-644" y="-355" on="1"/>
        <pt x="-600" y="-311" on="0"/>
        <pt x="-600" y="-257" on="1"/>
        <pt x="-600" y="-255" on="1"/>
        <pt x="-600" y="-220" on="0"/>
        <pt x="-650" y="-220" on="1"/>
        <pt x="-700" y="-220" on="0"/>
        <pt x="-700" y="-300" on="1"/>
        <pt x="-850" y="-300" on="0"/>
        <pt x="-850" y="-200" on="1"/>
        <pt x="-850" y="-50" on="0"/>
        <pt x="-675" y="-50" on="1"/>
        <pt x="-500" y="-50" on="0"/>
        <pt x="-500" y="-200" on="1"/>
        <pt x="-500" y="-300" on="0"/>
        <pt x="-600" y="-450" on="1"/>
        <pt x="-600" y="-500" on="0"/>
        <pt x="-350" y="-500" on="1"/>
        <pt x="-100" y="-500" on="0"/>
        <pt x="-100" y="-450" on="1"/>
        <pt x="-100" y="-400" on="0"/>
        <pt x="-200" y="-400" on="1"/>
        <pt x="-300" y="-400" on="0"/>
        <pt x="-330" y="-430" on="1"/>
        <pt x="-330" y="-267" on="1"/>
        <pt x="-330" y="-213" on="0"/>
        <pt x="-287" y="-166" on="1"/>
        <pt x="-180" y="-50" on="1"/>
        <pt x="-60" y="-114" on="0"/>
        <pt x="-4" y="-114" on="1"/>
        <pt x="10" y="-114" on="0"/>
        <pt x="20" y="-110" on="1"/>
        <pt x="0" y="-240" on="0"/>
        <pt x="-60" y="-240" on="1"/>
        <pt x="-96" y="-240" on="0"/>
        <pt x="-158" y="-215" on="0"/>
        <pt x="-180" y="-215" on="1"/>
        <pt x="-205" y="-215" on="0"/>
        <pt x="-232" y="-251" on="1"/>
        <pt x="-228" y="-251" on="1"/>
        <pt x="-154" y="-251" on="0"/>
        <pt x="-78" y="-285" on="1"/>
        <pt x="0" y="-320" on="0"/>
        <pt x="0" y="-390" on="1"/>
        <pt x="0" y="-500" on="0"/>
        <pt x="275" y="-500" on="1"/>
        <pt x="550" y="-500" on="0"/>
        <pt x="550" y="-350" on="1"/>
        <pt x="550" y="633" on="1"/>
        <pt x="544" y="659" on="0"/>
        <pt x="488" y="683" on="1"/>
        <pt x="446" y="700" on="0"/>
        <pt x="389" y="700" on="1"/>
        <pt x="292" y="700" on="0"/>
        <pt x="150" y="650" on="1"/>
        <pt x="150" y="1224" on="1"/>
        <pt x="150" y="1300" on="0"/>
        <pt x="358" y="1500" on="0"/>
        <pt x="394" y="1500" on="1"/>
        <pt x="430" y="1500" on="0"/>
        <pt x="657" y="1364" on="0"/>
        <pt x="750" y="1364" on="1"/>
        <pt x="669" y="1091" on="0"/>
        <pt x="585" y="1091" on="1"/>
        <pt x="583" y="1090" on="0"/>
        <pt x="582" y="1090" on="1"/>
        <pt x="499" y="1090" on="0"/>
        <pt x="439" y="1125" on="1"/>
        <pt x="400" y="1147" on="0"/>
        <pt x="366" y="1147" on="1"/>
        <pt x="347" y="1147" on="0"/>
        <pt x="330" y="1140" on="1"/>
        <pt x="281" y="1120" on="0"/>
        <pt x="251" y="1000" on="1"/>
        <pt x="315" y="1028" on="0"/>
        <pt x="382" y="1028" on="1"/>
        <pt x="446" y="1028" on="0"/>
        <pt x="513" y="1003" on="1"/>
        <pt x="651" y="951" on="0"/>
        <pt x="700" y="850" on="1"/>
      </contour>
    </TTGlyph>
    <TTGlyph name="glyph144" xMin="-1450" yMin="-700" xMax="750" yMax="1500">
      <contour>
        <pt x="50" y="-700" on="0"/>
        <pt x="-50" y="-600" on="1"/>
        <pt x="-198" y="-700" on="0"/>
        <pt x="-346" y="-700" on="1"/>
        <pt x="-349" y="-700" on="1"/>
        <pt x="-578" y="-700" on="0"/>
        <pt x="-714" y="-625" on="1"/>
        <pt x="-808" y="-573" on="0"/>
        <pt x="-808" y="-524" on="1"/>
        <pt x="-808" y="-502" on="0"/>
        <pt x="-789" y="-481" on="1"/>
        <pt x="-740" y="-440" on="0"/>
        <pt x="-681" y="-360" on="0"/>
        <pt x="-666" y="-305" on="1"/>
        <pt x="-665" y="-302" on="0"/>
        <pt x="-665" y="-299" on="1"/>
        <pt x="-665" y="-250" on="0"/>
        <pt x="-939" y="-250" on="1"/>
        <pt x="-948" y="-250" on="1"/>
        <pt x="-1140" y="-250" on="0"/>
        <pt x="-1232" y="-292" on="1"/>
        <pt x="-1325" y="-335" on="0"/>
        <pt x="-1325" y="-392" on="1"/>
        <pt x="-1325" y="-467" on="0"/>
        <pt x="-1248" y="-467" on="1"/>
        <pt x="-1176" y="-466" on="0"/>
        <pt x="-1176" y="-431" on="1"/>
        <pt x="-1176" y="-383" on="0"/>
        <pt x="-1250" y="-383" on="1"/>
        <pt x="-1213" y="-344" on="0"/>
        <pt x="-1140" y="-344" on="1"/>
        <pt x="-1067" y="-344" on="0"/>
        <pt x="-1027" y="-390" on="1"/>
        <pt x="-987" y="-435" on="0"/>
        <pt x="-987" y="-524" on="1"/>
        <pt x="-987" y="-603" on="0"/>
        <pt x="-1076" y="-700" on="0"/>
        <pt x="-1163" y="-700" on="1"/>
        <pt x="-1267" y="-700" on="0"/>
        <pt x="-1358" y="-617" on="1"/>
        <pt x="-1450" y="-535" on="0"/>
        <pt x="-1450" y="-389" on="1"/>
        <pt x="-1449" y="-217" on="0"/>
        <pt x="-1302" y="-134" on="1"/>
        <pt x="-1156" y="-50" on="0"/>
        <pt x="-945" y="-50" on="1"/>
        <pt x="-722" y="-50" on="0"/>
        <pt x="-611" y="-100" on="1"/>
        <pt x="-500" y="-150" on="1"/>
        <pt x="-500" y="-340" on="0"/>
        <pt x="-600" y="-450" on="1"/>
        <pt x="-600" y="-500" on="0"/>
        <pt x="-350" y="-500" on="1"/>
        <pt x="-110" y="-500" on="0"/>
        <pt x="-110" y="-450" on="1"/>
        <pt x="-110" y="-400" on="0"/>
        <pt x="-205" y="-400" on="1"/>
        <pt x="-300" y="-400" on="0"/>
        <pt x="-330" y="-430" on="1"/>
        <pt x="-327" y="-241" on="1"/>
        <pt x="-310" y="-190" on="0"/>
        <pt x="-245" y="-120" on="1"/>
        <pt x="-180" y="-50" on="1"/>
        <pt x="-60" y="-114" on="0"/>
        <pt x="-4" y="-114" on="1"/>
        <pt x="10" y="-114" on="0"/>
        <pt x="20" y="-110" on="1"/>
        <pt x="0" y="-240" on="0"/>
        <pt x="-60" y="-240" on="1"/>
        <pt x="-96" y="-240" on="0"/>
        <pt x="-158" y="-215" on="0"/>
        <pt x="-180" y="-215" on="1"/>
        <pt x="-205" y="-215" on="0"/>
        <pt x="-232" y="-251" on="1"/>
        <pt x="-228" y="-251" on="1"/>
        <pt x="-154" y="-251" on="0"/>
        <pt x="-73" y="-285" on="1"/>
        <pt x="10" y="-320" on="0"/>
        <pt x="10" y="-390" on="1"/>
        <pt x="10" y="-500" on="0"/>
        <pt x="275" y="-500" on="1"/>
        <pt x="550" y="-500" on="0"/>
        <pt x="550" y="-350" on="1"/>
        <pt x="550" y="633" on="1"/>
        <pt x="544" y="659" on="0"/>
        <pt x="488" y="683" on="1"/>
        <pt x="446" y="700" on="0"/>
        <pt x="389" y="700" on="1"/>
        <pt x="292" y="700" on="0"/>
        <pt x="150" y="650" on="1"/>
        <pt x="150" y="1224" on="1"/>
        <pt x="150" y="1300" on="0"/>
        <pt x="358" y="1500" on="0"/>
        <pt x="394" y="1500" on="1"/>
        <pt x="430" y="1500" on="0"/>
        <pt x="657" y="1364" on="0"/>
        <pt x="750" y="1364" on="1"/>
        <pt x="669" y="1091" on="0"/>
        <pt x="585" y="1091" on="1"/>
        <pt x="583" y="1090" on="0"/>
        <pt x="582" y="1090" on="1"/>
        <pt x="499" y="1090" on="0"/>
        <pt x="439" y="1125" on="1"/>
        <pt x="400" y="1147" on="0"/>
        <pt x="366" y="1147" on="1"/>
        <pt x="347" y="1147" on="0"/>
        <pt x="330" y="1140" on="1"/>
        <pt x="281" y="1120" on="0"/>
        <pt x="251" y="1000" on="1"/>
        <pt x="315" y="1028" on="0"/>
        <pt x="382" y="1028" on="1"/>
        <pt x="446" y="1028" on="0"/>
        <pt x="513" y="1003" on="1"/>
        <pt x="651" y="951" on="0"/>
        <pt x="700" y="850" on="1"/>
        <pt x="700" y="-300" on="1"/>
        <pt x="700" y="-700" on="0"/>
        <pt x="275" y="-700" on="1"/>
      </contour>
    </TTGlyph>
    <TTGlyph name="glyph146" xMin="-2353" yMin="-701" xMax="-297" yMax="-51">
      <contour>
        <pt x="-1258" y="-346" on="1"/>
        <pt x="-1258" y="-368" on="0"/>
        <pt x="-1172" y="-384" on="1"/>
        <pt x="-1172" y="-325" on="1"/>
      </contour>
      <contour>
        <pt x="-515" y="-346" on="1"/>
        <pt x="-515" y="-368" on="0"/>
        <pt x="-428" y="-384" on="1"/>
        <pt x="-428" y="-333" on="1"/>
      </contour>
      <contour>
        <pt x="-1408" y="-315" on="1"/>
        <pt x="-1172" y="-264" on="0"/>
        <pt x="-1172" y="-255" on="1"/>
        <pt x="-1173" y="-246" on="0"/>
        <pt x="-1403" y="-223" on="0"/>
        <pt x="-1527" y="-223" on="1"/>
        <pt x="-1650" y="-223" on="0"/>
        <pt x="-1782" y="-271" on="1"/>
        <pt x="-1968" y="-224" on="0"/>
        <pt x="-2052" y="-224" on="1"/>
        <pt x="-2057" y="-224" on="1"/>
        <pt x="-2136" y="-224" on="0"/>
        <pt x="-2178" y="-254" on="1"/>
        <pt x="-2222" y="-277" on="1"/>
        <pt x="-2222" y="-314" on="0"/>
        <pt x="-2178" y="-367" on="0"/>
        <pt x="-2133" y="-367" on="1"/>
        <pt x="-2090" y="-367" on="0"/>
        <pt x="-2090" y="-338" on="1"/>
        <pt x="-2090" y="-317" on="0"/>
        <pt x="-2178" y="-307" on="1"/>
        <pt x="-2133" y="-293" on="0"/>
        <pt x="-2029" y="-293" on="1"/>
        <pt x="-1942" y="-293" on="0"/>
        <pt x="-1885" y="-316" on="1"/>
        <pt x="-1828" y="-339" on="0"/>
        <pt x="-1828" y="-368" on="1"/>
        <pt x="-1828" y="-398" on="0"/>
        <pt x="-1869" y="-430" on="1"/>
        <pt x="-1910" y="-460" on="0"/>
        <pt x="-2000" y="-501" on="0"/>
        <pt x="-2047" y="-504" on="1"/>
        <pt x="-2199" y="-489" on="0"/>
        <pt x="-2276" y="-444" on="1"/>
        <pt x="-2352" y="-398" on="0"/>
        <pt x="-2353" y="-293" on="1"/>
        <pt x="-2353" y="-247" on="1"/>
        <pt x="-2353" y="-171" on="0"/>
        <pt x="-2196" y="-111" on="1"/>
        <pt x="-2040" y="-51" on="1"/>
        <pt x="-1826" y="-71" on="0"/>
        <pt x="-1697" y="-125" on="1"/>
        <pt x="-1594" y="-65" on="0"/>
        <pt x="-1477" y="-51" on="1"/>
        <pt x="-1361" y="-57" on="0"/>
        <pt x="-1201" y="-90" on="1"/>
        <pt x="-1081" y="-114" on="1"/>
        <pt x="-1051" y="-120" on="0"/>
        <pt x="-1026" y="-120" on="1"/>
        <pt x="-996" y="-120" on="0"/>
        <pt x="-973" y="-111" on="1"/>
        <pt x="-932" y="-96" on="1"/>
        <pt x="-851" y="-65" on="0"/>
        <pt x="-733" y="-51" on="1"/>
        <pt x="-617" y="-57" on="0"/>
        <pt x="-297" y="-122" on="0"/>
        <pt x="-297" y="-156" on="1"/>
        <pt x="-297" y="-398" on="1"/>
        <pt x="-297" y="-444" on="0"/>
        <pt x="-383" y="-492" on="0"/>
        <pt x="-471" y="-504" on="1"/>
        <pt x="-477" y="-505" on="0"/>
        <pt x="-485" y="-505" on="1"/>
        <pt x="-544" y="-505" on="0"/>
        <pt x="-654" y="-468" on="1"/>
        <pt x="-775" y="-429" on="0"/>
        <pt x="-775" y="-368" on="1"/>
        <pt x="-775" y="-365" on="1"/>
        <pt x="-743" y="-338" on="0"/>
        <pt x="-664" y="-320" on="1"/>
        <pt x="-507" y="-287" on="1"/>
        <pt x="-428" y="-273" on="1"/>
        <pt x="-552" y="-247" on="1"/>
        <pt x="-677" y="-223" on="0"/>
        <pt x="-818" y="-223" on="1"/>
        <pt x="-924" y="-223" on="0"/>
        <pt x="-1041" y="-271" on="1"/>
        <pt x="-1041" y="-398" on="1"/>
        <pt x="-1041" y="-444" on="0"/>
        <pt x="-1127" y="-492" on="0"/>
        <pt x="-1215" y="-504" on="1"/>
        <pt x="-1220" y="-504" on="1"/>
        <pt x="-1275" y="-504" on="0"/>
        <pt x="-1395" y="-467" on="1"/>
        <pt x="-1522" y="-428" on="0"/>
        <pt x="-1522" y="-362" on="1"/>
        <pt x="-1487" y="-338" on="0"/>
      </contour>
      <contour>
        <pt x="-428" y="-595" on="1"/>
        <pt x="-428" y="-701" on="0"/>
        <pt x="-815" y="-701" on="1"/>
        <pt x="-1238" y="-701" on="0"/>
        <pt x="-1717" y="-634" on="0"/>
        <pt x="-1878" y="-634" on="1"/>
        <pt x="-2160" y="-634" on="0"/>
        <pt x="-2305" y="-696" on="1"/>
        <pt x="-2265" y="-528" on="0"/>
        <pt x="-1782" y="-528" on="1"/>
        <pt x="-1443" y="-528" on="0"/>
        <pt x="-956" y="-653" on="0"/>
        <pt x="-815" y="-653" on="1"/>
        <pt x="-573" y="-653" on="0"/>
        <pt x="-573" y="-603" on="1"/>
        <pt x="-573" y="-579" on="0"/>
        <pt x="-639" y="-579" on="1"/>
        <pt x="-653" y="-579" on="0"/>
        <pt x="-669" y="-580" on="1"/>
        <pt x="-669" y="-625" on="0"/>
        <pt x="-767" y="-625" on="1"/>
        <pt x="-911" y="-625" on="0"/>
        <pt x="-911" y="-580" on="1"/>
        <pt x="-911" y="-519" on="0"/>
        <pt x="-669" y="-519" on="1"/>
        <pt x="-428" y="-519" on="0"/>
      </contour>
    </TTGlyph>
    <TTGlyph name="glyph150" xMin="-1292" yMin="-700" xMax="750" yMax="1500">
      <contour>
        <pt x="-374" y="-479" on="1"/>
        <pt x="-301" y="-503" on="1"/>
        <pt x="-301" y="-446" on="1"/>
      </contour>
      <contour>
        <pt x="550" y="633" on="1"/>
        <pt x="544" y="659" on="0"/>
        <pt x="488" y="683" on="1"/>
        <pt x="446" y="700" on="0"/>
        <pt x="389" y="700" on="1"/>
        <pt x="292" y="700" on="0"/>
        <pt x="150" y="650" on="1"/>
        <pt x="150" y="1224" on="1"/>
        <pt x="150" y="1300" on="0"/>
        <pt x="358" y="1500" on="0"/>
        <pt x="394" y="1500" on="1"/>
        <pt x="430" y="1500" on="0"/>
        <pt x="657" y="1364" on="0"/>
        <pt x="750" y="1364" on="1"/>
        <pt x="669" y="1091" on="0"/>
        <pt x="585" y="1091" on="1"/>
        <pt x="583" y="1090" on="0"/>
        <pt x="582" y="1090" on="1"/>
        <pt x="499" y="1090" on="0"/>
        <pt x="439" y="1125" on="1"/>
        <pt x="400" y="1147" on="0"/>
        <pt x="366" y="1147" on="1"/>
        <pt x="347" y="1147" on="0"/>
        <pt x="330" y="1140" on="1"/>
        <pt x="281" y="1120" on="0"/>
        <pt x="251" y="1000" on="1"/>
        <pt x="315" y="1028" on="0"/>
        <pt x="382" y="1028" on="1"/>
        <pt x="446" y="1028" on="0"/>
        <pt x="513" y="1003" on="1"/>
        <pt x="651" y="951" on="0"/>
        <pt x="700" y="850" on="1"/>
        <pt x="700" y="-300" on="1"/>
        <pt x="700" y="-700" on="0"/>
        <pt x="300" y="-700" on="1"/>
        <pt x="70" y="-700" on="0"/>
        <pt x="-36" y="-513" on="1"/>
        <pt x="-71" y="-451" on="0"/>
        <pt x="-191" y="-450" on="1"/>
        <pt x="-191" y="-549" on="1"/>
        <pt x="-191" y="-613" on="0"/>
        <pt x="-263" y="-683" on="0"/>
        <pt x="-337" y="-700" on="1"/>
        <pt x="-406" y="-700" on="0"/>
        <pt x="-595" y="-591" on="0"/>
        <pt x="-595" y="-489" on="1"/>
        <pt x="-565" y="-462" on="0"/>
        <pt x="-499" y="-429" on="1"/>
        <pt x="-301" y="-332" on="1"/>
        <pt x="-495" y="-260" on="0"/>
        <pt x="-599" y="-260" on="1"/>
        <pt x="-702" y="-260" on="0"/>
        <pt x="-813" y="-328" on="1"/>
        <pt x="-969" y="-261" on="0"/>
        <pt x="-1039" y="-260" on="1"/>
        <pt x="-1109" y="-260" on="0"/>
        <pt x="-1182" y="-310" on="0"/>
        <pt x="-1182" y="-375" on="1"/>
        <pt x="-1182" y="-428" on="0"/>
        <pt x="-1145" y="-503" on="0"/>
        <pt x="-1108" y="-503" on="1"/>
        <pt x="-1130" y="-478" on="0"/>
        <pt x="-1130" y="-450" on="1"/>
        <pt x="-1130" y="-436" on="0"/>
        <pt x="-1124" y="-421" on="1"/>
        <pt x="-1108" y="-378" on="0"/>
        <pt x="-1037" y="-370" on="1"/>
        <pt x="-1026" y="-369" on="0"/>
        <pt x="-1016" y="-369" on="1"/>
        <pt x="-958" y="-369" on="0"/>
        <pt x="-909" y="-403" on="1"/>
        <pt x="-851" y="-444" on="0"/>
        <pt x="-851" y="-511" on="1"/>
        <pt x="-851" y="-578" on="0"/>
        <pt x="-956" y="-700" on="0"/>
        <pt x="-1035" y="-700" on="1"/>
        <pt x="-1163" y="-700" on="0"/>
        <pt x="-1291" y="-548" on="0"/>
        <pt x="-1292" y="-397" on="1"/>
        <pt x="-1292" y="-332" on="1"/>
        <pt x="-1292" y="-223" on="0"/>
        <pt x="-1161" y="-136" on="1"/>
        <pt x="-1029" y="-50" on="1"/>
        <pt x="-850" y="-80" on="0"/>
        <pt x="-741" y="-157" on="1"/>
        <pt x="-655" y="-71" on="0"/>
        <pt x="-557" y="-50" on="1"/>
        <pt x="-459" y="-58" on="0"/>
        <pt x="-192" y="-152" on="0"/>
        <pt x="-192" y="-200" on="1"/>
        <pt x="-192" y="-300" on="1"/>
        <pt x="-30" y="-301" on="0"/>
        <pt x="52" y="-451" on="1"/>
        <pt x="78" y="-500" on="0"/>
        <pt x="291" y="-500" on="1"/>
        <pt x="300" y="-500" on="1"/>
        <pt x="550" y="-500" on="0"/>
        <pt x="550" y="-350" on="1"/>
      </contour>
    </TTGlyph>
    <TTGlyph name="glyph157" xMin="-550" yMin="-700" xMax="750" yMax="1500">
      <contour>
        <pt x="700" y="-450" on="1"/>
        <pt x="647" y="-575" on="0"/>
        <pt x="574" y="-638" on="1"/>
        <pt x="501" y="-700" on="0"/>
        <pt x="408" y="-700" on="1"/>
        <pt x="319" y="-700" on="0"/>
        <pt x="249" y="-662" on="1"/>
        <pt x="179" y="-625" on="0"/>
        <pt x="127" y="-550" on="1"/>
        <pt x="75" y="-625" on="0"/>
        <pt x="0" y="-662" on="1"/>
        <pt x="-76" y="-700" on="0"/>
        <pt x="-175" y="-700" on="1"/>
        <pt x="-362" y="-700" on="0"/>
        <pt x="-456" y="-625" on="1"/>
        <pt x="-550" y="-550" on="0"/>
        <pt x="-550" y="-400" on="1"/>
        <pt x="-550" y="-250" on="0"/>
        <pt x="-489" y="-175" on="1"/>
        <pt x="-430" y="-100" on="0"/>
        <pt x="-310" y="-100" on="1"/>
        <pt x="-222" y="-100" on="0"/>
        <pt x="-177" y="-138" on="1"/>
        <pt x="-133" y="-175" on="0"/>
        <pt x="-133" y="-250" on="1"/>
        <pt x="-133" y="-325" on="0"/>
        <pt x="-185" y="-362" on="1"/>
        <pt x="-237" y="-400" on="0"/>
        <pt x="-341" y="-400" on="1"/>
        <pt x="-341" y="-300" on="0"/>
        <pt x="-393" y="-300" on="1"/>
        <pt x="-445" y="-300" on="0"/>
        <pt x="-445" y="-360" on="1"/>
        <pt x="-445" y="-405" on="0"/>
        <pt x="-392" y="-428" on="1"/>
        <pt x="-339" y="-450" on="0"/>
        <pt x="-234" y="-450" on="1"/>
        <pt x="-127" y="-450" on="0"/>
        <pt x="-49" y="-412" on="1"/>
        <pt x="28" y="-375" on="0"/>
        <pt x="75" y="-300" on="1"/>
        <pt x="127" y="-375" on="0"/>
        <pt x="197" y="-412" on="1"/>
        <pt x="267" y="-450" on="0"/>
        <pt x="356" y="-450" on="1"/>
        <pt x="449" y="-450" on="0"/>
        <pt x="550" y="-350" on="0"/>
        <pt x="550" y="-250" on="1"/>
        <pt x="550" y="633" on="1"/>
        <pt x="544" y="659" on="0"/>
        <pt x="488" y="683" on="1"/>
        <pt x="446" y="700" on="0"/>
        <pt x="389" y="700" on="1"/>
        <pt x="292" y="700" on="0"/>
        <pt x="150" y="650" on="1"/>
        <pt x="150" y="1224" on="1"/>
        <pt x="150" y="1300" on="0"/>
        <pt x="358" y="1500" on="0"/>
        <pt x="394" y="1500" on="1"/>
        <pt x="430" y="1500" on="0"/>
        <pt x="657" y="1364" on="0"/>
        <pt x="750" y="1364" on="1"/>
        <pt x="669" y="1091" on="0"/>
        <pt x="585" y="1091" on="1"/>
        <pt x="583" y="1090" on="0"/>
        <pt x="582" y="1090" on="1"/>
        <pt x="499" y="1090" on="0"/>
        <pt x="439" y="1125" on="1"/>
        <pt x="400" y="1147" on="0"/>
        <pt x="366" y="1147" on="1"/>
        <pt x="347" y="1147" on="0"/>
        <pt x="330" y="1140" on="1"/>
        <pt x="281" y="1120" on="0"/>
        <pt x="251" y="1000" on="1"/>
        <pt x="315" y="1028" on="0"/>
        <pt x="382" y="1028" on="1"/>
        <pt x="446" y="1028" on="0"/>
        <pt x="513" y="1003" on="1"/>
        <pt x="651" y="951" on="0"/>
        <pt x="700" y="850" on="1"/>
      </contour>
    </TTGlyph>
    <TTGlyph name="glyph162" xMin="-450" yMin="-700" xMax="750" yMax="1500">
      <contour>
        <pt x="550" y="633" on="1"/>
        <pt x="544" y="659" on="0"/>
        <pt x="488" y="683" on="1"/>
        <pt x="446" y="700" on="0"/>
        <pt x="389" y="700" on="1"/>
        <pt x="292" y="700" on="0"/>
        <pt x="150" y="650" on="1"/>
        <pt x="150" y="1224" on="1"/>
        <pt x="150" y="1300" on="0"/>
        <pt x="358" y="1500" on="0"/>
        <pt x="394" y="1500" on="1"/>
        <pt x="430" y="1500" on="0"/>
        <pt x="657" y="1364" on="0"/>
        <pt x="750" y="1364" on="1"/>
        <pt x="669" y="1091" on="0"/>
        <pt x="585" y="1091" on="1"/>
        <pt x="583" y="1090" on="0"/>
        <pt x="582" y="1090" on="1"/>
        <pt x="499" y="1090" on="0"/>
        <pt x="439" y="1125" on="1"/>
        <pt x="400" y="1147" on="0"/>
        <pt x="366" y="1147" on="1"/>
        <pt x="347" y="1147" on="0"/>
        <pt x="330" y="1140" on="1"/>
        <pt x="281" y="1120" on="0"/>
        <pt x="251" y="1000" on="1"/>
        <pt x="315" y="1028" on="0"/>
        <pt x="382" y="1028" on="1"/>
        <pt x="446" y="1028" on="0"/>
        <pt x="513" y="1003" on="1"/>
        <pt x="651" y="951" on="0"/>
        <pt x="700" y="850" on="1"/>
        <pt x="700" y="-350" on="1"/>
        <pt x="670" y="-515" on="0"/>
        <pt x="519" y="-608" on="1"/>
        <pt x="368" y="-700" on="0"/>
        <pt x="109" y="-700" on="1"/>
        <pt x="-150" y="-700" on="0"/>
        <pt x="-300" y="-612" on="1"/>
        <pt x="-450" y="-525" on="0"/>
        <pt x="-450" y="-350" on="1"/>
        <pt x="-450" y="-200" on="0"/>
        <pt x="-375" y="-125" on="1"/>
        <pt x="-300" y="-50" on="0"/>
        <pt x="-150" y="-50" on="1"/>
        <pt x="-25" y="-50" on="0"/>
        <pt x="38" y="-88" on="1"/>
        <pt x="100" y="-125" on="0"/>
        <pt x="100" y="-200" on="1"/>
        <pt x="100" y="-275" on="0"/>
        <pt x="56" y="-312" on="1"/>
        <pt x="12" y="-350" on="0"/>
        <pt x="-75" y="-350" on="1"/>
        <pt x="-150" y="-350" on="0"/>
        <pt x="-200" y="-300" on="1"/>
        <pt x="-200" y="-250" on="0"/>
        <pt x="-250" y="-250" on="1"/>
        <pt x="-300" y="-250" on="0"/>
        <pt x="-300" y="-300" on="1"/>
        <pt x="-300" y="-375" on="0"/>
        <pt x="-188" y="-412" on="1"/>
        <pt x="-75" y="-450" on="0"/>
        <pt x="125" y="-450" on="1"/>
        <pt x="325" y="-450" on="0"/>
        <pt x="438" y="-375" on="1"/>
        <pt x="550" y="-300" on="0"/>
        <pt x="550" y="-150" on="1"/>
      </contour>
    </TTGlyph>
    <TTGlyph name="glyph166" xMin="-450" yMin="-700" xMax="881" yMax="1500">
      <contour>
        <pt x="88" y="-700" on="1"/>
        <pt x="-178" y="-700" on="0"/>
        <pt x="-314" y="-625" on="1"/>
        <pt x="-450" y="-550" on="0"/>
        <pt x="-450" y="-400" on="1"/>
        <pt x="-290" y="-400" on="0"/>
        <pt x="-244" y="-365" on="1"/>
        <pt x="-200" y="-331" on="0"/>
        <pt x="-200" y="-306" on="1"/>
        <pt x="-200" y="-305" on="1"/>
        <pt x="-200" y="-270" on="0"/>
        <pt x="-250" y="-270" on="1"/>
        <pt x="-300" y="-270" on="0"/>
        <pt x="-300" y="-350" on="1"/>
        <pt x="-450" y="-350" on="0"/>
        <pt x="-450" y="-250" on="1"/>
        <pt x="-450" y="-100" on="0"/>
        <pt x="-275" y="-100" on="1"/>
        <pt x="-100" y="-100" on="0"/>
        <pt x="-100" y="-250" on="1"/>
        <pt x="-100" y="-350" on="0"/>
        <pt x="-150" y="-400" on="1"/>
        <pt x="-150" y="-450" on="0"/>
        <pt x="88" y="-450" on="1"/>
        <pt x="325" y="-450" on="0"/>
        <pt x="438" y="-400" on="1"/>
        <pt x="550" y="-350" on="0"/>
        <pt x="550" y="-250" on="1"/>
        <pt x="550" y="-4" on="1"/>
        <pt x="439" y="0" on="0"/>
        <pt x="303" y="48" on="1"/>
        <pt x="388" y="131" on="0"/>
        <pt x="388" y="276" on="1"/>
        <pt x="388" y="298" on="0"/>
        <pt x="386" y="322" on="1"/>
        <pt x="468" y="235" on="0"/>
        <pt x="550" y="200" on="1"/>
        <pt x="550" y="633" on="1"/>
        <pt x="544" y="659" on="0"/>
        <pt x="488" y="683" on="1"/>
        <pt x="446" y="700" on="0"/>
        <pt x="389" y="700" on="1"/>
        <pt x="292" y="700" on="0"/>
        <pt x="150" y="650" on="1"/>
        <pt x="150" y="1224" on="1"/>
        <pt x="150" y="1300" on="0"/>
        <pt x="358" y="1500" on="0"/>
        <pt x="394" y="1500" on="1"/>
        <pt x="430" y="1500" on="0"/>
        <pt x="657" y="1364" on="0"/>
        <pt x="750" y="1364" on="1"/>
        <pt x="669" y="1091" on="0"/>
        <pt x="585" y="1091" on="1"/>
        <pt x="583" y="1090" on="0"/>
        <pt x="582" y="1090" on="1"/>
        <pt x="499" y="1090" on="0"/>
        <pt x="439" y="1125" on="1"/>
        <pt x="400" y="1147" on="0"/>
        <pt x="366" y="1147" on="1"/>
        <pt x="347" y="1147" on="0"/>
        <pt x="330" y="1140" on="1"/>
        <pt x="281" y="1120" on="0"/>
        <pt x="251" y="1000" on="1"/>
        <pt x="315" y="1028" on="0"/>
        <pt x="382" y="1028" on="1"/>
        <pt x="446" y="1028" on="0"/>
        <pt x="513" y="1003" on="1"/>
        <pt x="651" y="951" on="0"/>
        <pt x="700" y="850" on="1"/>
        <pt x="700" y="168" on="1"/>
        <pt x="773" y="161" on="0"/>
        <pt x="859" y="161" on="1"/>
        <pt x="881" y="161" on="1"/>
        <pt x="821" y="52" on="0"/>
        <pt x="700" y="14" on="1"/>
        <pt x="700" y="-330" on="1"/>
        <pt x="700" y="-515" on="0"/>
        <pt x="549" y="-608" on="1"/>
        <pt x="398" y="-700" on="0"/>
      </contour>
    </TTGlyph>
    <TTGlyph name="glyph169" xMin="-780" yMin="-1200" xMax="-366" yMax="-734">
      <contour>
        <pt x="-625" y="-955" on="1"/>
        <pt x="-684" y="-955" on="0"/>
        <pt x="-764" y="-907" on="0"/>
        <pt x="-764" y="-846" on="1"/>
        <pt x="-764" y="-786" on="0"/>
        <pt x="-667" y="-734" on="0"/>
        <pt x="-575" y="-734" on="1"/>
        <pt x="-466" y="-734" on="0"/>
        <pt x="-367" y="-832" on="0"/>
        <pt x="-366" y="-888" on="1"/>
        <pt x="-366" y="-1037" on="1"/>
        <pt x="-366" y="-1106" on="0"/>
        <pt x="-446" y="-1200" on="0"/>
        <pt x="-565" y="-1200" on="1"/>
        <pt x="-765" y="-1200" on="0"/>
        <pt x="-780" y="-965" on="1"/>
        <pt x="-711" y="-1008" on="0"/>
        <pt x="-603" y="-1008" on="1"/>
        <pt x="-579" y="-1008" on="1"/>
        <pt x="-455" y="-1003" on="0"/>
        <pt x="-455" y="-934" on="1"/>
        <pt x="-455" y="-884" on="0"/>
        <pt x="-495" y="-884" on="1"/>
        <pt x="-496" y="-919" on="0"/>
        <pt x="-566" y="-955" on="0"/>
      </contour>
    </TTGlyph>
    <TTGlyph name="glyph170" xMin="-1008" yMin="-1200" xMax="-366" yMax="-740">
      <contour>
        <pt x="-687" y="-860" on="1"/>
        <pt x="-687" y="-953" on="0"/>
        <pt x="-767" y="-1023" on="1"/>
        <pt x="-767" y="-1048" on="0"/>
        <pt x="-716" y="-1048" on="1"/>
        <pt x="-696" y="-1048" on="0"/>
        <pt x="-667" y="-1044" on="1"/>
        <pt x="-567" y="-1030" on="0"/>
        <pt x="-467" y="-885" on="1"/>
        <pt x="-366" y="-740" on="1"/>
        <pt x="-406" y="-969" on="0"/>
        <pt x="-496" y="-1085" on="1"/>
        <pt x="-585" y="-1200" on="0"/>
        <pt x="-727" y="-1200" on="1"/>
        <pt x="-867" y="-1200" on="0"/>
        <pt x="-937" y="-1155" on="1"/>
        <pt x="-1008" y="-1111" on="0"/>
        <pt x="-1008" y="-1022" on="1"/>
        <pt x="-995" y="-1022" on="1"/>
        <pt x="-926" y="-1022" on="0"/>
        <pt x="-869" y="-1002" on="1"/>
        <pt x="-807" y="-980" on="0"/>
        <pt x="-807" y="-938" on="1"/>
        <pt x="-807" y="-895" on="0"/>
        <pt x="-867" y="-895" on="1"/>
        <pt x="-927" y="-895" on="0"/>
        <pt x="-927" y="-952" on="1"/>
        <pt x="-1008" y="-952" on="0"/>
        <pt x="-1008" y="-846" on="1"/>
        <pt x="-1008" y="-793" on="0"/>
        <pt x="-967" y="-766" on="1"/>
        <pt x="-927" y="-740" on="0"/>
        <pt x="-847" y="-740" on="1"/>
        <pt x="-767" y="-740" on="0"/>
        <pt x="-727" y="-769" on="1"/>
        <pt x="-687" y="-800" on="0"/>
      </contour>
    </TTGlyph>
    <TTGlyph name="glyph171" xMin="-1048" yMin="-1200" xMax="-366" yMax="-740">
      <contour>
        <pt x="-707" y="-846" on="1"/>
        <pt x="-707" y="-987" on="0"/>
        <pt x="-834" y="-1023" on="1"/>
        <pt x="-834" y="-1058" on="0"/>
        <pt x="-749" y="-1058" on="1"/>
        <pt x="-707" y="-1058" on="0"/>
        <pt x="-621" y="-987" on="1"/>
        <pt x="-579" y="-1058" on="0"/>
        <pt x="-536" y="-1058" on="1"/>
        <pt x="-451" y="-1058" on="0"/>
        <pt x="-451" y="-916" on="1"/>
        <pt x="-451" y="-846" on="0"/>
        <pt x="-536" y="-846" on="1"/>
        <pt x="-536" y="-740" on="0"/>
        <pt x="-451" y="-740" on="1"/>
        <pt x="-366" y="-740" on="0"/>
        <pt x="-366" y="-916" on="1"/>
        <pt x="-366" y="-987" on="0"/>
        <pt x="-451" y="-1200" on="0"/>
        <pt x="-579" y="-1200" on="1"/>
        <pt x="-621" y="-1200" on="0"/>
        <pt x="-707" y="-1129" on="1"/>
        <pt x="-792" y="-1200" on="0"/>
        <pt x="-834" y="-1200" on="1"/>
        <pt x="-877" y="-1200" on="0"/>
        <pt x="-1048" y="-1093" on="0"/>
        <pt x="-1048" y="-1057" on="1"/>
        <pt x="-792" y="-979" on="0"/>
        <pt x="-792" y="-916" on="1"/>
        <pt x="-792" y="-881" on="0"/>
        <pt x="-832" y="-881" on="1"/>
        <pt x="-873" y="-881" on="0"/>
        <pt x="-877" y="-952" on="1"/>
        <pt x="-1005" y="-952" on="0"/>
        <pt x="-1005" y="-846" on="1"/>
        <pt x="-1005" y="-740" on="0"/>
        <pt x="-856" y="-740" on="1"/>
        <pt x="-707" y="-740" on="0"/>
      </contour>
    </TTGlyph>
    <TTGlyph name="glyph172" xMin="-1450" yMin="2000" xMax="-250" yMax="2500">
      <contour>
        <pt x="-879" y="2500" on="1"/>
        <pt x="-650" y="2500" on="0"/>
        <pt x="-479" y="2375" on="1"/>
        <pt x="-307" y="2250" on="0"/>
        <pt x="-250" y="2042" on="1"/>
        <pt x="-250" y="2000" on="0"/>
        <pt x="-421" y="2000" on="1"/>
        <pt x="-700" y="2042" on="0"/>
        <pt x="-896" y="2042" on="1"/>
        <pt x="-1053" y="2042" on="0"/>
        <pt x="-1219" y="2000" on="1"/>
        <pt x="-1337" y="2000" on="0"/>
        <pt x="-1393" y="2055" on="1"/>
        <pt x="-1450" y="2109" on="0"/>
        <pt x="-1450" y="2161" on="1"/>
        <pt x="-1450" y="2292" on="0"/>
        <pt x="-1307" y="2396" on="1"/>
        <pt x="-1164" y="2500" on="0"/>
      </contour>
      <contour>
        <pt x="-1145" y="2139" on="1"/>
        <pt x="-1025" y="2157" on="0"/>
        <pt x="-896" y="2157" on="1"/>
        <pt x="-701" y="2157" on="0"/>
        <pt x="-450" y="2113" on="1"/>
        <pt x="-473" y="2174" on="0"/>
        <pt x="-705" y="2282" on="0"/>
        <pt x="-877" y="2282" on="1"/>
        <pt x="-1002" y="2282" on="0"/>
        <pt x="-1145" y="2198" on="0"/>
      </contour>
    </TTGlyph>
    <TTGlyph name="glyph173" xMin="-1450" yMin="2000" xMax="-150" yMax="2500">
      <contour>
        <pt x="-275" y="2500" on="1"/>
        <pt x="-150" y="2500" on="0"/>
        <pt x="-150" y="2381" on="1"/>
        <pt x="-150" y="2265" on="0"/>
        <pt x="-254" y="2053" on="1"/>
        <pt x="-252" y="2045" on="0"/>
        <pt x="-250" y="2038" on="1"/>
        <pt x="-250" y="2000" on="0"/>
        <pt x="-421" y="2000" on="1"/>
        <pt x="-700" y="2038" on="0"/>
        <pt x="-896" y="2038" on="1"/>
        <pt x="-1053" y="2038" on="0"/>
        <pt x="-1219" y="2000" on="1"/>
        <pt x="-1337" y="2000" on="0"/>
        <pt x="-1393" y="2051" on="1"/>
        <pt x="-1450" y="2101" on="0"/>
        <pt x="-1450" y="2148" on="1"/>
        <pt x="-1450" y="2269" on="0"/>
        <pt x="-1307" y="2365" on="1"/>
        <pt x="-1164" y="2461" on="0"/>
        <pt x="-899" y="2461" on="1"/>
        <pt x="-740" y="2461" on="0"/>
        <pt x="-523" y="2346" on="1"/>
        <pt x="-429" y="2295" on="0"/>
        <pt x="-364" y="2230" on="1"/>
        <pt x="-301" y="2232" on="0"/>
        <pt x="-300" y="2307" on="1"/>
        <pt x="-300" y="2346" on="0"/>
        <pt x="-401" y="2385" on="1"/>
        <pt x="-401" y="2500" on="0"/>
        <pt x="-276" y="2500" on="1"/>
      </contour>
      <contour>
        <pt x="-1145" y="2137" on="1"/>
        <pt x="-1025" y="2154" on="0"/>
        <pt x="-896" y="2154" on="1"/>
        <pt x="-701" y="2154" on="0"/>
        <pt x="-450" y="2114" on="1"/>
        <pt x="-473" y="2170" on="0"/>
        <pt x="-775" y="2269" on="0"/>
        <pt x="-897" y="2269" on="1"/>
        <pt x="-1002" y="2269" on="0"/>
        <pt x="-1145" y="2191" on="0"/>
      </contour>
    </TTGlyph>
    <TTGlyph name="glyph174" xMin="-1450" yMin="2000" xMax="-199" yMax="2500">
      <contour>
        <pt x="-899" y="2429" on="1"/>
        <pt x="-787" y="2429" on="0"/>
        <pt x="-646" y="2375" on="1"/>
        <pt x="-635" y="2429" on="0"/>
        <pt x="-593" y="2460" on="1"/>
        <pt x="-537" y="2500" on="0"/>
        <pt x="-424" y="2500" on="1"/>
        <pt x="-311" y="2500" on="0"/>
        <pt x="-255" y="2460" on="1"/>
        <pt x="-199" y="2420" on="0"/>
        <pt x="-199" y="2339" on="1"/>
        <pt x="-199" y="2259" on="0"/>
        <pt x="-255" y="2219" on="1"/>
        <pt x="-287" y="2196" on="0"/>
        <pt x="-337" y="2186" on="1"/>
        <pt x="-276" y="2119" on="0"/>
        <pt x="-250" y="2036" on="1"/>
        <pt x="-250" y="2000" on="0"/>
        <pt x="-421" y="2000" on="1"/>
        <pt x="-700" y="2036" on="0"/>
        <pt x="-896" y="2036" on="1"/>
        <pt x="-1053" y="2036" on="0"/>
        <pt x="-1219" y="2000" on="1"/>
        <pt x="-1337" y="2000" on="0"/>
        <pt x="-1393" y="2047" on="1"/>
        <pt x="-1450" y="2094" on="0"/>
        <pt x="-1450" y="2138" on="1"/>
        <pt x="-1450" y="2250" on="0"/>
        <pt x="-1307" y="2339" on="1"/>
        <pt x="-1164" y="2429" on="0"/>
      </contour>
      <contour>
        <pt x="-1145" y="2128" on="1"/>
        <pt x="-1025" y="2143" on="0"/>
        <pt x="-896" y="2143" on="1"/>
        <pt x="-701" y="2143" on="0"/>
        <pt x="-450" y="2106" on="1"/>
        <pt x="-473" y="2158" on="0"/>
        <pt x="-775" y="2250" on="0"/>
        <pt x="-897" y="2250" on="1"/>
        <pt x="-1002" y="2250" on="0"/>
        <pt x="-1145" y="2178" on="0"/>
      </contour>
      <contour>
        <pt x="-424" y="2286" on="1"/>
        <pt x="-349" y="2286" on="0"/>
        <pt x="-349" y="2339" on="1"/>
        <pt x="-349" y="2393" on="0"/>
        <pt x="-424" y="2393" on="1"/>
        <pt x="-499" y="2393" on="0"/>
        <pt x="-499" y="2339" on="1"/>
        <pt x="-499" y="2286" on="0"/>
      </contour>
    </TTGlyph>
    <TTGlyph name="glyph175" xMin="-1450" yMin="2000" xMax="-150" yMax="2500">
      <contour>
        <pt x="-624" y="2500" on="1"/>
        <pt x="-500" y="2500" on="0"/>
        <pt x="-499" y="2402" on="1"/>
        <pt x="-499" y="2340" on="0"/>
        <pt x="-521" y="2280" on="1"/>
        <pt x="-428" y="2239" on="0"/>
        <pt x="-364" y="2187" on="1"/>
        <pt x="-301" y="2189" on="0"/>
        <pt x="-300" y="2250" on="1"/>
        <pt x="-300" y="2282" on="0"/>
        <pt x="-401" y="2313" on="1"/>
        <pt x="-401" y="2406" on="0"/>
        <pt x="-278" y="2406" on="1"/>
        <pt x="-275" y="2406" on="1"/>
        <pt x="-150" y="2406" on="0"/>
        <pt x="-150" y="2310" on="1"/>
        <pt x="-150" y="2215" on="0"/>
        <pt x="-254" y="2043" on="1"/>
        <pt x="-252" y="2037" on="0"/>
        <pt x="-250" y="2031" on="1"/>
        <pt x="-250" y="2000" on="0"/>
        <pt x="-421" y="2000" on="1"/>
        <pt x="-700" y="2031" on="0"/>
        <pt x="-896" y="2031" on="1"/>
        <pt x="-1053" y="2031" on="0"/>
        <pt x="-1219" y="2000" on="1"/>
        <pt x="-1337" y="2000" on="0"/>
        <pt x="-1393" y="2041" on="1"/>
        <pt x="-1450" y="2082" on="0"/>
        <pt x="-1450" y="2120" on="1"/>
        <pt x="-1450" y="2218" on="0"/>
        <pt x="-1307" y="2297" on="1"/>
        <pt x="-1164" y="2375" on="0"/>
        <pt x="-899" y="2375" on="1"/>
        <pt x="-789" y="2375" on="0"/>
        <pt x="-653" y="2330" on="1"/>
        <pt x="-649" y="2346" on="0"/>
        <pt x="-649" y="2367" on="1"/>
        <pt x="-649" y="2399" on="0"/>
        <pt x="-750" y="2424" on="1"/>
        <pt x="-750" y="2500" on="0"/>
      </contour>
      <contour>
        <pt x="-1145" y="2112" on="1"/>
        <pt x="-1025" y="2125" on="0"/>
        <pt x="-896" y="2125" on="1"/>
        <pt x="-701" y="2125" on="0"/>
        <pt x="-450" y="2092" on="1"/>
        <pt x="-473" y="2138" on="0"/>
        <pt x="-775" y="2218" on="0"/>
        <pt x="-897" y="2218" on="1"/>
        <pt x="-1002" y="2218" on="0"/>
        <pt x="-1145" y="2155" on="0"/>
      </contour>
    </TTGlyph>
    <TTGlyph name="glyph176" xMin="-1250" yMin="2000" xMax="-550" yMax="2500">
      <contour>
        <pt x="-940" y="2091" on="0"/>
        <pt x="-899" y="2091" on="1"/>
        <pt x="-859" y="2091" on="0"/>
        <pt x="-839" y="2130" on="1"/>
        <pt x="-818" y="2170" on="0"/>
        <pt x="-818" y="2249" on="1"/>
        <pt x="-818" y="2329" on="0"/>
        <pt x="-839" y="2368" on="1"/>
        <pt x="-859" y="2408" on="0"/>
        <pt x="-899" y="2408" on="1"/>
        <pt x="-940" y="2408" on="0"/>
        <pt x="-960" y="2368" on="1"/>
        <pt x="-981" y="2329" on="0"/>
        <pt x="-981" y="2249" on="1"/>
        <pt x="-981" y="2170" on="0"/>
        <pt x="-960" y="2130" on="1"/>
      </contour>
      <contour>
        <pt x="-724" y="2000" on="0"/>
        <pt x="-900" y="2000" on="1"/>
        <pt x="-1076" y="2000" on="0"/>
        <pt x="-1163" y="2063" on="1"/>
        <pt x="-1250" y="2124" on="0"/>
        <pt x="-1250" y="2250" on="1"/>
        <pt x="-1250" y="2375" on="0"/>
        <pt x="-1163" y="2437" on="1"/>
        <pt x="-1076" y="2500" on="0"/>
        <pt x="-900" y="2500" on="1"/>
        <pt x="-724" y="2500" on="0"/>
        <pt x="-637" y="2437" on="1"/>
        <pt x="-550" y="2375" on="0"/>
        <pt x="-550" y="2250" on="1"/>
        <pt x="-550" y="2124" on="0"/>
        <pt x="-637" y="2063" on="1"/>
      </contour>
    </TTGlyph>
    <TTGlyph name="glyph177" xMin="-945" yMin="2000" xMax="-445" yMax="2499">
      <contour>
        <pt x="-795" y="2149" on="1"/>
        <pt x="-945" y="2149" on="1"/>
        <pt x="-945" y="2350" on="1"/>
        <pt x="-795" y="2350" on="1"/>
        <pt x="-795" y="2499" on="1"/>
        <pt x="-595" y="2499" on="1"/>
        <pt x="-595" y="2350" on="1"/>
        <pt x="-445" y="2350" on="1"/>
        <pt x="-445" y="2149" on="1"/>
        <pt x="-595" y="2149" on="1"/>
        <pt x="-595" y="2000" on="1"/>
        <pt x="-795" y="2000" on="1"/>
      </contour>
    </TTGlyph>
    <TTGlyph name="glyph178" xMin="-800" yMin="2000" xMax="0" yMax="2500">
      <contour>
        <pt x="-800" y="2214" on="1"/>
        <pt x="-800" y="2304" on="0"/>
        <pt x="-750" y="2349" on="1"/>
        <pt x="-700" y="2393" on="0"/>
        <pt x="-600" y="2393" on="1"/>
        <pt x="-525" y="2393" on="0"/>
        <pt x="-488" y="2371" on="1"/>
        <pt x="-450" y="2350" on="0"/>
        <pt x="-450" y="2307" on="1"/>
        <pt x="-450" y="2261" on="0"/>
        <pt x="-492" y="2237" on="1"/>
        <pt x="-535" y="2214" on="0"/>
        <pt x="-620" y="2214" on="1"/>
        <pt x="-620" y="2250" on="0"/>
        <pt x="-660" y="2250" on="1"/>
        <pt x="-701" y="2250" on="0"/>
        <pt x="-701" y="2229" on="1"/>
        <pt x="-701" y="2204" on="0"/>
        <pt x="-626" y="2191" on="1"/>
        <pt x="-550" y="2179" on="0"/>
        <pt x="-400" y="2179" on="1"/>
        <pt x="-250" y="2179" on="0"/>
        <pt x="-175" y="2201" on="1"/>
        <pt x="-100" y="2225" on="0"/>
        <pt x="-100" y="2271" on="1"/>
        <pt x="-100" y="2314" on="0"/>
        <pt x="-150" y="2343" on="1"/>
        <pt x="-172" y="2355" on="0"/>
        <pt x="-195" y="2355" on="1"/>
        <pt x="-222" y="2355" on="0"/>
        <pt x="-250" y="2336" on="1"/>
        <pt x="-300" y="2346" on="0"/>
        <pt x="-300" y="2386" on="1"/>
        <pt x="-300" y="2443" on="0"/>
        <pt x="-268" y="2471" on="1"/>
        <pt x="-235" y="2500" on="0"/>
        <pt x="-170" y="2500" on="1"/>
        <pt x="-100" y="2500" on="0"/>
        <pt x="-50" y="2464" on="1"/>
        <pt x="0" y="2429" on="0"/>
        <pt x="0" y="2357" on="1"/>
        <pt x="0" y="2179" on="0"/>
        <pt x="-100" y="2089" on="1"/>
        <pt x="-200" y="2000" on="0"/>
        <pt x="-400" y="2000" on="1"/>
        <pt x="-600" y="2000" on="0"/>
        <pt x="-700" y="2054" on="1"/>
        <pt x="-800" y="2107" on="0"/>
      </contour>
    </TTGlyph>
    <TTGlyph name="glyph179" xMin="150" yMin="0" xMax="2500" yMax="1500">
      <contour>
        <pt x="1519" y="406" on="1"/>
        <pt x="1550" y="406" on="0"/>
        <pt x="1550" y="450" on="1"/>
        <pt x="1550" y="567" on="1"/>
        <pt x="1491" y="512" on="0"/>
        <pt x="1469" y="493" on="1"/>
        <pt x="1457" y="483" on="0"/>
        <pt x="1457" y="469" on="1"/>
        <pt x="1457" y="456" on="0"/>
        <pt x="1467" y="440" on="1"/>
        <pt x="1487" y="406" on="0"/>
      </contour>
      <contour>
        <pt x="2369" y="406" on="1"/>
        <pt x="2400" y="406" on="0"/>
        <pt x="2400" y="450" on="1"/>
        <pt x="2400" y="567" on="1"/>
        <pt x="2341" y="512" on="0"/>
        <pt x="2319" y="493" on="1"/>
        <pt x="2307" y="483" on="0"/>
        <pt x="2307" y="469" on="1"/>
        <pt x="2307" y="456" on="0"/>
        <pt x="2317" y="440" on="1"/>
        <pt x="2337" y="406" on="0"/>
      </contour>
      <contour>
        <pt x="1650" y="1035" on="1"/>
        <pt x="1650" y="200" on="1"/>
        <pt x="1650" y="140" on="0"/>
        <pt x="1590" y="70" on="1"/>
        <pt x="1530" y="0" on="0"/>
        <pt x="1450" y="0" on="1"/>
        <pt x="1289" y="0" on="0"/>
        <pt x="1170" y="154" on="1"/>
        <pt x="1050" y="307" on="0"/>
        <pt x="1050" y="420" on="1"/>
        <pt x="1050" y="491" on="0"/>
        <pt x="1300" y="560" on="1"/>
        <pt x="1550" y="629" on="0"/>
        <pt x="1550" y="793" on="1"/>
        <pt x="1550" y="904" on="0"/>
        <pt x="1393" y="1022" on="1"/>
        <pt x="1235" y="1140" on="0"/>
        <pt x="1122" y="1140" on="1"/>
        <pt x="1008" y="1140" on="0"/>
        <pt x="890" y="1027" on="1"/>
        <pt x="708" y="1140" on="0"/>
        <pt x="559" y="1140" on="1"/>
        <pt x="450" y="1139" on="0"/>
        <pt x="365" y="1030" on="1"/>
        <pt x="280" y="920" on="0"/>
        <pt x="280" y="750" on="1"/>
        <pt x="280" y="576" on="0"/>
        <pt x="340" y="469" on="1"/>
        <pt x="393" y="375" on="0"/>
        <pt x="514" y="375" on="1"/>
        <pt x="532" y="375" on="0"/>
        <pt x="550" y="377" on="1"/>
        <pt x="700" y="392" on="0"/>
        <pt x="700" y="461" on="1"/>
        <pt x="700" y="501" on="0"/>
        <pt x="673" y="525" on="1"/>
        <pt x="661" y="535" on="0"/>
        <pt x="650" y="535" on="1"/>
        <pt x="634" y="535" on="0"/>
        <pt x="620" y="518" on="1"/>
        <pt x="593" y="487" on="0"/>
        <pt x="517" y="487" on="1"/>
        <pt x="375" y="487" on="0"/>
        <pt x="375" y="665" on="1"/>
        <pt x="375" y="903" on="0"/>
        <pt x="577" y="903" on="1"/>
        <pt x="800" y="903" on="0"/>
        <pt x="800" y="558" on="1"/>
        <pt x="800" y="0" on="0"/>
        <pt x="531" y="0" on="1"/>
        <pt x="150" y="0" on="0"/>
        <pt x="150" y="750" on="1"/>
        <pt x="150" y="1110" on="0"/>
        <pt x="285" y="1305" on="1"/>
        <pt x="419" y="1500" on="0"/>
        <pt x="588" y="1500" on="1"/>
        <pt x="697" y="1500" on="0"/>
        <pt x="888" y="1386" on="0"/>
        <pt x="970" y="1305" on="1"/>
        <pt x="1100" y="1500" on="0"/>
        <pt x="1205" y="1500" on="1"/>
        <pt x="1350" y="1500" on="0"/>
        <pt x="1500" y="1387" on="1"/>
        <pt x="1636" y="1284" on="0"/>
        <pt x="1649" y="1189" on="1"/>
        <pt x="1685" y="1270" on="0"/>
        <pt x="1744" y="1343" on="1"/>
        <pt x="1870" y="1500" on="0"/>
        <pt x="1975" y="1500" on="1"/>
        <pt x="2140" y="1500" on="0"/>
        <pt x="2500" y="1254" on="0"/>
        <pt x="2500" y="1150" on="1"/>
        <pt x="2500" y="200" on="1"/>
        <pt x="2500" y="140" on="0"/>
        <pt x="2440" y="70" on="1"/>
        <pt x="2380" y="0" on="0"/>
        <pt x="2300" y="0" on="1"/>
        <pt x="2139" y="0" on="0"/>
        <pt x="2020" y="154" on="1"/>
        <pt x="1900" y="307" on="0"/>
        <pt x="1900" y="420" on="1"/>
        <pt x="1900" y="491" on="0"/>
        <pt x="2150" y="560" on="1"/>
        <pt x="2400" y="629" on="0"/>
        <pt x="2400" y="793" on="1"/>
        <pt x="2400" y="904" on="0"/>
        <pt x="2218" y="1022" on="1"/>
        <pt x="2035" y="1140" on="0"/>
        <pt x="1892" y="1140" on="1"/>
        <pt x="1795" y="1140" on="0"/>
      </contour>
    </TTGlyph>
    <TTGlyph name="glyph180" xMin="-2250" yMin="-701" xMax="-1150" yMax="-50">
      <contour>
        <pt x="-1315" y="-431" on="1"/>
        <pt x="-1298" y="-456" on="0"/>
        <pt x="-1260" y="-461" on="1"/>
        <pt x="-1260" y="-396" on="1"/>
      </contour>
      <contour>
        <pt x="-2250" y="-409" on="1"/>
        <pt x="-2249" y="-247" on="0"/>
        <pt x="-1957" y="-50" on="0"/>
        <pt x="-1681" y="-50" on="1"/>
        <pt x="-1406" y="-50" on="0"/>
        <pt x="-1150" y="-149" on="0"/>
        <pt x="-1150" y="-215" on="1"/>
        <pt x="-1150" y="-474" on="1"/>
        <pt x="-1150" y="-571" on="0"/>
        <pt x="-1187" y="-627" on="1"/>
        <pt x="-1223" y="-684" on="0"/>
        <pt x="-1296" y="-701" on="1"/>
        <pt x="-1348" y="-700" on="0"/>
        <pt x="-1432" y="-635" on="1"/>
        <pt x="-1510" y="-574" on="0"/>
        <pt x="-1510" y="-514" on="1"/>
        <pt x="-1510" y="-505" on="1"/>
        <pt x="-1504" y="-441" on="0"/>
        <pt x="-1449" y="-409" on="1"/>
        <pt x="-1287" y="-332" on="1"/>
        <pt x="-1329" y="-312" on="0"/>
        <pt x="-1406" y="-296" on="1"/>
        <pt x="-1482" y="-279" on="0"/>
        <pt x="-1671" y="-279" on="1"/>
        <pt x="-1898" y="-279" on="0"/>
        <pt x="-2125" y="-345" on="0"/>
        <pt x="-2125" y="-412" on="1"/>
        <pt x="-2125" y="-467" on="0"/>
        <pt x="-2048" y="-467" on="1"/>
        <pt x="-2060" y="-444" on="0"/>
        <pt x="-2060" y="-424" on="1"/>
        <pt x="-2060" y="-397" on="0"/>
        <pt x="-2035" y="-377" on="1"/>
        <pt x="-1993" y="-344" on="0"/>
        <pt x="-1920" y="-344" on="1"/>
        <pt x="-1847" y="-344" on="0"/>
        <pt x="-1792" y="-395" on="1"/>
        <pt x="-1737" y="-445" on="0"/>
        <pt x="-1737" y="-524" on="1"/>
        <pt x="-1737" y="-603" on="0"/>
        <pt x="-1815" y="-700" on="0"/>
        <pt x="-1943" y="-700" on="1"/>
        <pt x="-2067" y="-700" on="0"/>
        <pt x="-2158" y="-617" on="1"/>
        <pt x="-2250" y="-535" on="0"/>
      </contour>
    </TTGlyph>
    <TTGlyph name="glyph181" xMin="-1534" yMin="-1200" xMax="-1120" yMax="-734">
      <contour>
        <pt x="-1379" y="-955" on="1"/>
        <pt x="-1438" y="-955" on="0"/>
        <pt x="-1518" y="-907" on="0"/>
        <pt x="-1518" y="-846" on="1"/>
        <pt x="-1518" y="-786" on="0"/>
        <pt x="-1421" y="-734" on="0"/>
        <pt x="-1329" y="-734" on="1"/>
        <pt x="-1220" y="-734" on="0"/>
        <pt x="-1121" y="-832" on="0"/>
        <pt x="-1120" y="-888" on="1"/>
        <pt x="-1120" y="-1037" on="1"/>
        <pt x="-1120" y="-1106" on="0"/>
        <pt x="-1200" y="-1200" on="0"/>
        <pt x="-1319" y="-1200" on="1"/>
        <pt x="-1519" y="-1200" on="0"/>
        <pt x="-1534" y="-965" on="1"/>
        <pt x="-1465" y="-1008" on="0"/>
        <pt x="-1357" y="-1008" on="1"/>
        <pt x="-1333" y="-1008" on="1"/>
        <pt x="-1209" y="-1003" on="0"/>
        <pt x="-1209" y="-934" on="1"/>
        <pt x="-1209" y="-884" on="0"/>
        <pt x="-1249" y="-884" on="1"/>
        <pt x="-1250" y="-919" on="0"/>
        <pt x="-1320" y="-955" on="0"/>
      </contour>
    </TTGlyph>
    <TTGlyph name="glyph182" xMin="-1712" yMin="-1200" xMax="-1070" yMax="-740">
      <contour>
        <pt x="-1391" y="-860" on="1"/>
        <pt x="-1391" y="-953" on="0"/>
        <pt x="-1471" y="-1023" on="1"/>
        <pt x="-1471" y="-1048" on="0"/>
        <pt x="-1420" y="-1048" on="1"/>
        <pt x="-1400" y="-1048" on="0"/>
        <pt x="-1371" y="-1044" on="1"/>
        <pt x="-1271" y="-1030" on="0"/>
        <pt x="-1171" y="-885" on="1"/>
        <pt x="-1070" y="-740" on="1"/>
        <pt x="-1110" y="-969" on="0"/>
        <pt x="-1200" y="-1085" on="1"/>
        <pt x="-1289" y="-1200" on="0"/>
        <pt x="-1431" y="-1200" on="1"/>
        <pt x="-1571" y="-1200" on="0"/>
        <pt x="-1641" y="-1155" on="1"/>
        <pt x="-1712" y="-1111" on="0"/>
        <pt x="-1712" y="-1022" on="1"/>
        <pt x="-1699" y="-1022" on="1"/>
        <pt x="-1630" y="-1022" on="0"/>
        <pt x="-1573" y="-1002" on="1"/>
        <pt x="-1511" y="-980" on="0"/>
        <pt x="-1511" y="-938" on="1"/>
        <pt x="-1511" y="-895" on="0"/>
        <pt x="-1571" y="-895" on="1"/>
        <pt x="-1631" y="-895" on="0"/>
        <pt x="-1631" y="-952" on="1"/>
        <pt x="-1712" y="-952" on="0"/>
        <pt x="-1712" y="-846" on="1"/>
        <pt x="-1712" y="-793" on="0"/>
        <pt x="-1671" y="-766" on="1"/>
        <pt x="-1631" y="-740" on="0"/>
        <pt x="-1551" y="-740" on="1"/>
        <pt x="-1471" y="-740" on="0"/>
        <pt x="-1431" y="-769" on="1"/>
        <pt x="-1391" y="-800" on="0"/>
      </contour>
    </TTGlyph>
    <TTGlyph name="glyph183" xMin="-1752" yMin="-1200" xMax="-1070" yMax="-740">
      <contour>
        <pt x="-1411" y="-846" on="1"/>
        <pt x="-1411" y="-987" on="0"/>
        <pt x="-1538" y="-1023" on="1"/>
        <pt x="-1538" y="-1058" on="0"/>
        <pt x="-1453" y="-1058" on="1"/>
        <pt x="-1411" y="-1058" on="0"/>
        <pt x="-1325" y="-987" on="1"/>
        <pt x="-1283" y="-1058" on="0"/>
        <pt x="-1240" y="-1058" on="1"/>
        <pt x="-1155" y="-1058" on="0"/>
        <pt x="-1155" y="-916" on="1"/>
        <pt x="-1155" y="-846" on="0"/>
        <pt x="-1240" y="-846" on="1"/>
        <pt x="-1240" y="-740" on="0"/>
        <pt x="-1155" y="-740" on="1"/>
        <pt x="-1070" y="-740" on="0"/>
        <pt x="-1070" y="-916" on="1"/>
        <pt x="-1070" y="-987" on="0"/>
        <pt x="-1155" y="-1200" on="0"/>
        <pt x="-1283" y="-1200" on="1"/>
        <pt x="-1325" y="-1200" on="0"/>
        <pt x="-1411" y="-1129" on="1"/>
        <pt x="-1496" y="-1200" on="0"/>
        <pt x="-1538" y="-1200" on="1"/>
        <pt x="-1581" y="-1200" on="0"/>
        <pt x="-1752" y="-1093" on="0"/>
        <pt x="-1752" y="-1057" on="1"/>
        <pt x="-1496" y="-979" on="0"/>
        <pt x="-1496" y="-916" on="1"/>
        <pt x="-1496" y="-881" on="0"/>
        <pt x="-1536" y="-881" on="1"/>
        <pt x="-1577" y="-881" on="0"/>
        <pt x="-1581" y="-952" on="1"/>
        <pt x="-1709" y="-952" on="0"/>
        <pt x="-1709" y="-846" on="1"/>
        <pt x="-1709" y="-740" on="0"/>
        <pt x="-1560" y="-740" on="1"/>
        <pt x="-1411" y="-740" on="0"/>
      </contour>
    </TTGlyph>
    <TTGlyph name="glyph185" xMin="-960" yMin="-1200" xMax="340" yMax="2500">
      <contour>
        <pt x="-655" y="1888" on="1"/>
        <pt x="-535" y="1909" on="0"/>
        <pt x="-406" y="1909" on="1"/>
        <pt x="-211" y="1909" on="0"/>
        <pt x="40" y="1857" on="1"/>
        <pt x="17" y="1930" on="0"/>
        <pt x="-285" y="2059" on="0"/>
        <pt x="-407" y="2059" on="1"/>
        <pt x="-512" y="2059" on="0"/>
        <pt x="-655" y="1958" on="0"/>
      </contour>
      <contour>
        <pt x="300" y="-986" on="1"/>
        <pt x="250" y="-1093" on="0"/>
        <pt x="100" y="-1146" on="1"/>
        <pt x="-50" y="-1200" on="0"/>
        <pt x="-300" y="-1200" on="1"/>
        <pt x="-600" y="-1200" on="0"/>
        <pt x="-750" y="-1137" on="1"/>
        <pt x="-900" y="-1075" on="0"/>
        <pt x="-900" y="-951" on="1"/>
        <pt x="-900" y="-844" on="0"/>
        <pt x="-825" y="-791" on="1"/>
        <pt x="-750" y="-738" on="0"/>
        <pt x="-600" y="-738" on="1"/>
        <pt x="-475" y="-738" on="0"/>
        <pt x="-412" y="-765" on="1"/>
        <pt x="-350" y="-791" on="0"/>
        <pt x="-350" y="-836" on="1"/>
        <pt x="-350" y="-889" on="0"/>
        <pt x="-394" y="-915" on="1"/>
        <pt x="-438" y="-943" on="0"/>
        <pt x="-525" y="-943" on="1"/>
        <pt x="-600" y="-943" on="0"/>
        <pt x="-650" y="-907" on="1"/>
        <pt x="-650" y="-872" on="0"/>
        <pt x="-700" y="-872" on="1"/>
        <pt x="-750" y="-872" on="0"/>
        <pt x="-750" y="-907" on="1"/>
        <pt x="-750" y="-969" on="0"/>
        <pt x="-525" y="-989" on="0"/>
        <pt x="-300" y="-989" on="1"/>
        <pt x="-75" y="-989" on="0"/>
        <pt x="150" y="-915" on="0"/>
        <pt x="150" y="-784" on="1"/>
        <pt x="150" y="1491" on="1"/>
        <pt x="150" y="1583" on="0"/>
        <pt x="110" y="1644" on="1"/>
        <pt x="74" y="1700" on="0"/>
        <pt x="-210" y="1759" on="0"/>
        <pt x="-406" y="1759" on="1"/>
        <pt x="-563" y="1759" on="0"/>
        <pt x="-729" y="1709" on="1"/>
        <pt x="-847" y="1709" on="0"/>
        <pt x="-903" y="1775" on="1"/>
        <pt x="-960" y="1840" on="0"/>
        <pt x="-960" y="1902" on="1"/>
        <pt x="-960" y="2059" on="0"/>
        <pt x="-817" y="2184" on="1"/>
        <pt x="-674" y="2309" on="0"/>
        <pt x="-409" y="2309" on="1"/>
        <pt x="-299" y="2309" on="0"/>
        <pt x="-163" y="2238" on="1"/>
        <pt x="-159" y="2263" on="0"/>
        <pt x="-159" y="2297" on="1"/>
        <pt x="-159" y="2348" on="0"/>
        <pt x="-260" y="2388" on="1"/>
        <pt x="-260" y="2500" on="0"/>
        <pt x="-134" y="2500" on="1"/>
        <pt x="-10" y="2500" on="0"/>
        <pt x="-9" y="2353" on="1"/>
        <pt x="-9" y="2253" on="0"/>
        <pt x="-31" y="2157" on="1"/>
        <pt x="61" y="2092" on="0"/>
        <pt x="125" y="2009" on="1"/>
        <pt x="189" y="2011" on="0"/>
        <pt x="190" y="2109" on="1"/>
        <pt x="190" y="2160" on="0"/>
        <pt x="89" y="2210" on="1"/>
        <pt x="89" y="2360" on="0"/>
        <pt x="213" y="2360" on="1"/>
        <pt x="215" y="2360" on="1"/>
        <pt x="340" y="2360" on="0"/>
        <pt x="340" y="2205" on="1"/>
        <pt x="340" y="2064" on="0"/>
        <pt x="249" y="1816" on="1"/>
        <pt x="300" y="1724" on="0"/>
        <pt x="300" y="1520" on="1"/>
      </contour>
    </TTGlyph>
    <TTGlyph name="glyph186" xMin="-900" yMin="-1200" xMax="300" yMax="2500">
      <contour>
        <pt x="300" y="-986" on="1"/>
        <pt x="250" y="-1093" on="0"/>
        <pt x="100" y="-1146" on="1"/>
        <pt x="-50" y="-1200" on="0"/>
        <pt x="-300" y="-1200" on="1"/>
        <pt x="-600" y="-1200" on="0"/>
        <pt x="-750" y="-1137" on="1"/>
        <pt x="-900" y="-1075" on="0"/>
        <pt x="-900" y="-951" on="1"/>
        <pt x="-900" y="-844" on="0"/>
        <pt x="-825" y="-791" on="1"/>
        <pt x="-750" y="-738" on="0"/>
        <pt x="-600" y="-738" on="1"/>
        <pt x="-475" y="-738" on="0"/>
        <pt x="-412" y="-765" on="1"/>
        <pt x="-350" y="-791" on="0"/>
        <pt x="-350" y="-836" on="1"/>
        <pt x="-350" y="-889" on="0"/>
        <pt x="-394" y="-915" on="1"/>
        <pt x="-438" y="-943" on="0"/>
        <pt x="-525" y="-943" on="1"/>
        <pt x="-600" y="-943" on="0"/>
        <pt x="-650" y="-907" on="1"/>
        <pt x="-650" y="-872" on="0"/>
        <pt x="-700" y="-872" on="1"/>
        <pt x="-750" y="-872" on="0"/>
        <pt x="-750" y="-907" on="1"/>
        <pt x="-750" y="-969" on="0"/>
        <pt x="-525" y="-989" on="0"/>
        <pt x="-300" y="-989" on="1"/>
        <pt x="-75" y="-989" on="0"/>
        <pt x="150" y="-915" on="0"/>
        <pt x="150" y="-784" on="1"/>
        <pt x="150" y="1600" on="1"/>
        <pt x="150" y="1879" on="0"/>
        <pt x="-236" y="1879" on="1"/>
        <pt x="-413" y="1879" on="0"/>
        <pt x="-489" y="1709" on="1"/>
        <pt x="-607" y="1709" on="0"/>
        <pt x="-663" y="1775" on="1"/>
        <pt x="-750" y="1840" on="0"/>
        <pt x="-750" y="1902" on="1"/>
        <pt x="-750" y="2223" on="1"/>
        <pt x="-750" y="2349" on="0"/>
        <pt x="-850" y="2390" on="1"/>
        <pt x="-850" y="2500" on="0"/>
        <pt x="-660" y="2500" on="1"/>
        <pt x="-470" y="2500" on="0"/>
        <pt x="-470" y="2254" on="1"/>
        <pt x="-470" y="1958" on="1"/>
        <pt x="-295" y="2140" on="0"/>
        <pt x="-110" y="2140" on="1"/>
        <pt x="300" y="2140" on="0"/>
        <pt x="300" y="1600" on="1"/>
      </contour>
    </TTGlyph>
    <TTGlyph name="glyph187" xMin="-850" yMin="-1200" xMax="750" yMax="1500">
      <contour>
        <pt x="700" y="-904" on="1"/>
        <pt x="700" y="-1200" on="0"/>
        <pt x="275" y="-1200" on="1"/>
        <pt x="50" y="-1200" on="0"/>
        <pt x="-50" y="-1126" on="1"/>
        <pt x="-198" y="-1200" on="0"/>
        <pt x="-346" y="-1200" on="1"/>
        <pt x="-349" y="-1200" on="1"/>
        <pt x="-578" y="-1200" on="0"/>
        <pt x="-714" y="-1144" on="1"/>
        <pt x="-850" y="-1089" on="0"/>
        <pt x="-850" y="-978" on="1"/>
        <pt x="-690" y="-978" on="0"/>
        <pt x="-644" y="-945" on="1"/>
        <pt x="-600" y="-913" on="0"/>
        <pt x="-600" y="-873" on="1"/>
        <pt x="-600" y="-871" on="1"/>
        <pt x="-600" y="-845" on="0"/>
        <pt x="-650" y="-845" on="1"/>
        <pt x="-700" y="-845" on="0"/>
        <pt x="-700" y="-904" on="1"/>
        <pt x="-850" y="-904" on="0"/>
        <pt x="-850" y="-830" on="1"/>
        <pt x="-850" y="-720" on="0"/>
        <pt x="-675" y="-720" on="1"/>
        <pt x="-500" y="-720" on="0"/>
        <pt x="-500" y="-830" on="1"/>
        <pt x="-500" y="-904" on="0"/>
        <pt x="-600" y="-1015" on="1"/>
        <pt x="-600" y="-1052" on="0"/>
        <pt x="-350" y="-1052" on="1"/>
        <pt x="-100" y="-1052" on="0"/>
        <pt x="-100" y="-1015" on="1"/>
        <pt x="-100" y="-978" on="0"/>
        <pt x="-200" y="-978" on="1"/>
        <pt x="-300" y="-978" on="0"/>
        <pt x="-330" y="-1000" on="1"/>
        <pt x="-330" y="-880" on="1"/>
        <pt x="-330" y="-840" on="0"/>
        <pt x="-287" y="-805" on="1"/>
        <pt x="-180" y="-720" on="1"/>
        <pt x="-60" y="-767" on="0"/>
        <pt x="-4" y="-767" on="1"/>
        <pt x="10" y="-767" on="0"/>
        <pt x="20" y="-764" on="1"/>
        <pt x="0" y="-860" on="0"/>
        <pt x="-60" y="-860" on="1"/>
        <pt x="-96" y="-860" on="0"/>
        <pt x="-158" y="-841" on="0"/>
        <pt x="-180" y="-841" on="1"/>
        <pt x="-205" y="-841" on="0"/>
        <pt x="-232" y="-868" on="1"/>
        <pt x="-226" y="-868" on="1"/>
        <pt x="-153" y="-868" on="0"/>
        <pt x="-78" y="-893" on="1"/>
        <pt x="0" y="-919" on="0"/>
        <pt x="0" y="-971" on="1"/>
        <pt x="0" y="-1052" on="0"/>
        <pt x="275" y="-1052" on="1"/>
        <pt x="550" y="-1052" on="0"/>
        <pt x="550" y="-941" on="1"/>
        <pt x="550" y="633" on="1"/>
        <pt x="544" y="659" on="0"/>
        <pt x="488" y="683" on="1"/>
        <pt x="446" y="700" on="0"/>
        <pt x="389" y="700" on="1"/>
        <pt x="292" y="700" on="0"/>
        <pt x="150" y="650" on="1"/>
        <pt x="150" y="1224" on="1"/>
        <pt x="150" y="1300" on="0"/>
        <pt x="358" y="1500" on="0"/>
        <pt x="394" y="1500" on="1"/>
        <pt x="430" y="1500" on="0"/>
        <pt x="657" y="1364" on="0"/>
        <pt x="750" y="1364" on="1"/>
        <pt x="669" y="1091" on="0"/>
        <pt x="585" y="1091" on="1"/>
        <pt x="583" y="1090" on="0"/>
        <pt x="582" y="1090" on="1"/>
        <pt x="499" y="1090" on="0"/>
        <pt x="439" y="1125" on="1"/>
        <pt x="400" y="1147" on="0"/>
        <pt x="366" y="1147" on="1"/>
        <pt x="347" y="1147" on="0"/>
        <pt x="330" y="1140" on="1"/>
        <pt x="281" y="1120" on="0"/>
        <pt x="251" y="1000" on="1"/>
        <pt x="315" y="1028" on="0"/>
        <pt x="382" y="1028" on="1"/>
        <pt x="446" y="1028" on="0"/>
        <pt x="513" y="1003" on="1"/>
        <pt x="651" y="951" on="0"/>
        <pt x="700" y="850" on="1"/>
      </contour>
    </TTGlyph>
    <TTGlyph name="glyph188" xMin="-1450" yMin="-1200" xMax="750" yMax="1500">
      <contour>
        <pt x="550" y="633" on="1"/>
        <pt x="544" y="659" on="0"/>
        <pt x="488" y="683" on="1"/>
        <pt x="446" y="700" on="0"/>
        <pt x="389" y="700" on="1"/>
        <pt x="292" y="700" on="0"/>
        <pt x="150" y="650" on="1"/>
        <pt x="150" y="1224" on="1"/>
        <pt x="150" y="1300" on="0"/>
        <pt x="358" y="1500" on="0"/>
        <pt x="394" y="1500" on="1"/>
        <pt x="430" y="1500" on="0"/>
        <pt x="657" y="1364" on="0"/>
        <pt x="750" y="1364" on="1"/>
        <pt x="669" y="1091" on="0"/>
        <pt x="585" y="1091" on="1"/>
        <pt x="583" y="1090" on="0"/>
        <pt x="582" y="1090" on="1"/>
        <pt x="499" y="1090" on="0"/>
        <pt x="439" y="1125" on="1"/>
        <pt x="400" y="1147" on="0"/>
        <pt x="366" y="1147" on="1"/>
        <pt x="347" y="1147" on="0"/>
        <pt x="330" y="1140" on="1"/>
        <pt x="281" y="1120" on="0"/>
        <pt x="251" y="1000" on="1"/>
        <pt x="315" y="1028" on="0"/>
        <pt x="382" y="1028" on="1"/>
        <pt x="446" y="1028" on="0"/>
        <pt x="513" y="1003" on="1"/>
        <pt x="651" y="951" on="0"/>
        <pt x="700" y="850" on="1"/>
        <pt x="700" y="-904" on="1"/>
        <pt x="700" y="-1200" on="0"/>
        <pt x="275" y="-1200" on="1"/>
        <pt x="50" y="-1200" on="0"/>
        <pt x="-50" y="-1126" on="1"/>
        <pt x="-198" y="-1200" on="0"/>
        <pt x="-346" y="-1200" on="1"/>
        <pt x="-349" y="-1200" on="1"/>
        <pt x="-578" y="-1200" on="0"/>
        <pt x="-714" y="-1144" on="1"/>
        <pt x="-808" y="-1106" on="0"/>
        <pt x="-808" y="-1070" on="1"/>
        <pt x="-808" y="-1054" on="0"/>
        <pt x="-789" y="-1038" on="1"/>
        <pt x="-740" y="-1008" on="0"/>
        <pt x="-681" y="-948" on="0"/>
        <pt x="-666" y="-908" on="1"/>
        <pt x="-665" y="-906" on="0"/>
        <pt x="-665" y="-904" on="1"/>
        <pt x="-665" y="-867" on="0"/>
        <pt x="-939" y="-867" on="1"/>
        <pt x="-951" y="-867" on="1"/>
        <pt x="-1141" y="-867" on="0"/>
        <pt x="-1232" y="-898" on="1"/>
        <pt x="-1325" y="-930" on="0"/>
        <pt x="-1325" y="-972" on="1"/>
        <pt x="-1325" y="-1027" on="0"/>
        <pt x="-1248" y="-1027" on="1"/>
        <pt x="-1176" y="-1027" on="0"/>
        <pt x="-1176" y="-1001" on="1"/>
        <pt x="-1176" y="-965" on="0"/>
        <pt x="-1250" y="-965" on="1"/>
        <pt x="-1213" y="-937" on="0"/>
        <pt x="-1140" y="-937" on="1"/>
        <pt x="-1067" y="-937" on="0"/>
        <pt x="-1027" y="-971" on="1"/>
        <pt x="-987" y="-1004" on="0"/>
        <pt x="-987" y="-1070" on="1"/>
        <pt x="-987" y="-1128" on="0"/>
        <pt x="-1076" y="-1200" on="0"/>
        <pt x="-1163" y="-1200" on="1"/>
        <pt x="-1267" y="-1200" on="0"/>
        <pt x="-1358" y="-1138" on="1"/>
        <pt x="-1450" y="-1078" on="0"/>
        <pt x="-1450" y="-970" on="1"/>
        <pt x="-1449" y="-843" on="0"/>
        <pt x="-1302" y="-782" on="1"/>
        <pt x="-1156" y="-720" on="0"/>
        <pt x="-945" y="-720" on="1"/>
        <pt x="-722" y="-720" on="0"/>
        <pt x="-611" y="-756" on="1"/>
        <pt x="-500" y="-793" on="1"/>
        <pt x="-500" y="-934" on="0"/>
        <pt x="-600" y="-1015" on="1"/>
        <pt x="-600" y="-1052" on="0"/>
        <pt x="-350" y="-1052" on="1"/>
        <pt x="-110" y="-1052" on="0"/>
        <pt x="-110" y="-1015" on="1"/>
        <pt x="-110" y="-978" on="0"/>
        <pt x="-205" y="-978" on="1"/>
        <pt x="-300" y="-978" on="0"/>
        <pt x="-330" y="-1000" on="1"/>
        <pt x="-327" y="-861" on="1"/>
        <pt x="-310" y="-823" on="0"/>
        <pt x="-245" y="-771" on="1"/>
        <pt x="-180" y="-720" on="1"/>
        <pt x="-60" y="-767" on="0"/>
        <pt x="-4" y="-767" on="1"/>
        <pt x="10" y="-767" on="0"/>
        <pt x="20" y="-764" on="1"/>
        <pt x="0" y="-860" on="0"/>
        <pt x="-60" y="-860" on="1"/>
        <pt x="-96" y="-860" on="0"/>
        <pt x="-158" y="-841" on="0"/>
        <pt x="-180" y="-841" on="1"/>
        <pt x="-205" y="-841" on="0"/>
        <pt x="-232" y="-868" on="1"/>
        <pt x="-226" y="-868" on="1"/>
        <pt x="-153" y="-868" on="0"/>
        <pt x="-73" y="-893" on="1"/>
        <pt x="10" y="-919" on="0"/>
        <pt x="10" y="-971" on="1"/>
        <pt x="10" y="-1052" on="0"/>
        <pt x="275" y="-1052" on="1"/>
        <pt x="550" y="-1052" on="0"/>
        <pt x="550" y="-941" on="1"/>
      </contour>
    </TTGlyph>
    <TTGlyph name="glyph189" xMin="-1292" yMin="-1200" xMax="750" yMax="1500">
      <contour>
        <pt x="-374" y="-1036" on="1"/>
        <pt x="-301" y="-1054" on="1"/>
        <pt x="-301" y="-1012" on="1"/>
      </contour>
      <contour>
        <pt x="700" y="-904" on="1"/>
        <pt x="700" y="-1200" on="0"/>
        <pt x="300" y="-1200" on="1"/>
        <pt x="70" y="-1200" on="0"/>
        <pt x="-36" y="-1061" on="1"/>
        <pt x="-71" y="-1016" on="0"/>
        <pt x="-191" y="-1015" on="1"/>
        <pt x="-191" y="-1088" on="1"/>
        <pt x="-191" y="-1135" on="0"/>
        <pt x="-263" y="-1187" on="0"/>
        <pt x="-337" y="-1200" on="1"/>
        <pt x="-406" y="-1200" on="0"/>
        <pt x="-595" y="-1119" on="0"/>
        <pt x="-595" y="-1044" on="1"/>
        <pt x="-565" y="-1024" on="0"/>
        <pt x="-499" y="-999" on="1"/>
        <pt x="-301" y="-928" on="1"/>
        <pt x="-495" y="-875" on="0"/>
        <pt x="-599" y="-875" on="1"/>
        <pt x="-702" y="-875" on="0"/>
        <pt x="-813" y="-925" on="1"/>
        <pt x="-969" y="-875" on="0"/>
        <pt x="-1039" y="-875" on="1"/>
        <pt x="-1109" y="-875" on="0"/>
        <pt x="-1182" y="-912" on="0"/>
        <pt x="-1182" y="-960" on="1"/>
        <pt x="-1182" y="-999" on="0"/>
        <pt x="-1145" y="-1054" on="0"/>
        <pt x="-1108" y="-1054" on="1"/>
        <pt x="-1130" y="-1035" on="0"/>
        <pt x="-1130" y="-1015" on="1"/>
        <pt x="-1130" y="-1005" on="0"/>
        <pt x="-1124" y="-994" on="1"/>
        <pt x="-1108" y="-962" on="0"/>
        <pt x="-1037" y="-956" on="1"/>
        <pt x="-1016" y="-956" on="1"/>
        <pt x="-958" y="-956" on="0"/>
        <pt x="-909" y="-980" on="1"/>
        <pt x="-851" y="-1010" on="0"/>
        <pt x="-851" y="-1059" on="1"/>
        <pt x="-851" y="-1109" on="0"/>
        <pt x="-956" y="-1200" on="0"/>
        <pt x="-1035" y="-1200" on="1"/>
        <pt x="-1163" y="-1200" on="0"/>
        <pt x="-1291" y="-1087" on="0"/>
        <pt x="-1292" y="-976" on="1"/>
        <pt x="-1292" y="-928" on="1"/>
        <pt x="-1292" y="-847" on="0"/>
        <pt x="-1161" y="-783" on="1"/>
        <pt x="-1029" y="-720" on="1"/>
        <pt x="-850" y="-742" on="0"/>
        <pt x="-741" y="-799" on="1"/>
        <pt x="-655" y="-735" on="0"/>
        <pt x="-557" y="-720" on="1"/>
        <pt x="-459" y="-725" on="0"/>
        <pt x="-192" y="-795" on="0"/>
        <pt x="-192" y="-830" on="1"/>
        <pt x="-192" y="-904" on="1"/>
        <pt x="-30" y="-905" on="0"/>
        <pt x="52" y="-1016" on="1"/>
        <pt x="78" y="-1052" on="0"/>
        <pt x="288" y="-1052" on="1"/>
        <pt x="300" y="-1052" on="1"/>
        <pt x="550" y="-1052" on="0"/>
        <pt x="550" y="-941" on="1"/>
        <pt x="550" y="633" on="1"/>
        <pt x="544" y="659" on="0"/>
        <pt x="488" y="683" on="1"/>
        <pt x="446" y="700" on="0"/>
        <pt x="389" y="700" on="1"/>
        <pt x="292" y="700" on="0"/>
        <pt x="150" y="650" on="1"/>
        <pt x="150" y="1224" on="1"/>
        <pt x="150" y="1300" on="0"/>
        <pt x="358" y="1500" on="0"/>
        <pt x="394" y="1500" on="1"/>
        <pt x="430" y="1500" on="0"/>
        <pt x="657" y="1364" on="0"/>
        <pt x="750" y="1364" on="1"/>
        <pt x="669" y="1091" on="0"/>
        <pt x="585" y="1091" on="1"/>
        <pt x="583" y="1090" on="0"/>
        <pt x="582" y="1090" on="1"/>
        <pt x="499" y="1090" on="0"/>
        <pt x="439" y="1125" on="1"/>
        <pt x="400" y="1147" on="0"/>
        <pt x="366" y="1147" on="1"/>
        <pt x="347" y="1147" on="0"/>
        <pt x="330" y="1140" on="1"/>
        <pt x="281" y="1120" on="0"/>
        <pt x="251" y="1000" on="1"/>
        <pt x="315" y="1028" on="0"/>
        <pt x="382" y="1028" on="1"/>
        <pt x="446" y="1028" on="0"/>
        <pt x="513" y="1003" on="1"/>
        <pt x="651" y="951" on="0"/>
        <pt x="700" y="850" on="1"/>
      </contour>
    </TTGlyph>
    <TTGlyph name="glyph190" xMin="-550" yMin="-1200" xMax="750" yMax="1500">
      <contour>
        <pt x="550" y="633" on="1"/>
        <pt x="544" y="659" on="0"/>
        <pt x="488" y="683" on="1"/>
        <pt x="446" y="700" on="0"/>
        <pt x="389" y="700" on="1"/>
        <pt x="292" y="700" on="0"/>
        <pt x="150" y="650" on="1"/>
        <pt x="150" y="1224" on="1"/>
        <pt x="150" y="1300" on="0"/>
        <pt x="358" y="1500" on="0"/>
        <pt x="394" y="1500" on="1"/>
        <pt x="430" y="1500" on="0"/>
        <pt x="657" y="1364" on="0"/>
        <pt x="750" y="1364" on="1"/>
        <pt x="669" y="1091" on="0"/>
        <pt x="585" y="1091" on="1"/>
        <pt x="583" y="1090" on="0"/>
        <pt x="582" y="1090" on="1"/>
        <pt x="499" y="1090" on="0"/>
        <pt x="439" y="1125" on="1"/>
        <pt x="400" y="1147" on="0"/>
        <pt x="366" y="1147" on="1"/>
        <pt x="347" y="1147" on="0"/>
        <pt x="330" y="1140" on="1"/>
        <pt x="281" y="1120" on="0"/>
        <pt x="251" y="1000" on="1"/>
        <pt x="315" y="1028" on="0"/>
        <pt x="382" y="1028" on="1"/>
        <pt x="446" y="1028" on="0"/>
        <pt x="513" y="1003" on="1"/>
        <pt x="651" y="951" on="0"/>
        <pt x="700" y="850" on="1"/>
        <pt x="700" y="-1000" on="1"/>
        <pt x="647" y="-1100" on="0"/>
        <pt x="574" y="-1150" on="1"/>
        <pt x="501" y="-1200" on="0"/>
        <pt x="408" y="-1200" on="1"/>
        <pt x="319" y="-1200" on="0"/>
        <pt x="249" y="-1169" on="1"/>
        <pt x="179" y="-1140" on="0"/>
        <pt x="127" y="-1080" on="1"/>
        <pt x="75" y="-1140" on="0"/>
        <pt x="0" y="-1169" on="1"/>
        <pt x="-76" y="-1200" on="0"/>
        <pt x="-175" y="-1200" on="1"/>
        <pt x="-362" y="-1200" on="0"/>
        <pt x="-456" y="-1140" on="1"/>
        <pt x="-550" y="-1080" on="0"/>
        <pt x="-550" y="-960" on="1"/>
        <pt x="-550" y="-840" on="0"/>
        <pt x="-489" y="-780" on="1"/>
        <pt x="-430" y="-720" on="0"/>
        <pt x="-310" y="-720" on="1"/>
        <pt x="-222" y="-720" on="0"/>
        <pt x="-177" y="-750" on="1"/>
        <pt x="-133" y="-780" on="0"/>
        <pt x="-133" y="-840" on="1"/>
        <pt x="-133" y="-900" on="0"/>
        <pt x="-185" y="-929" on="1"/>
        <pt x="-237" y="-960" on="0"/>
        <pt x="-341" y="-960" on="1"/>
        <pt x="-341" y="-880" on="0"/>
        <pt x="-393" y="-880" on="1"/>
        <pt x="-445" y="-880" on="0"/>
        <pt x="-445" y="-928" on="1"/>
        <pt x="-445" y="-964" on="0"/>
        <pt x="-392" y="-982" on="1"/>
        <pt x="-339" y="-1000" on="0"/>
        <pt x="-234" y="-1000" on="1"/>
        <pt x="-127" y="-1000" on="0"/>
        <pt x="-49" y="-969" on="1"/>
        <pt x="28" y="-940" on="0"/>
        <pt x="75" y="-880" on="1"/>
        <pt x="127" y="-940" on="0"/>
        <pt x="197" y="-969" on="1"/>
        <pt x="267" y="-1000" on="0"/>
        <pt x="356" y="-1000" on="1"/>
        <pt x="449" y="-1000" on="0"/>
        <pt x="550" y="-920" on="0"/>
        <pt x="550" y="-840" on="1"/>
      </contour>
    </TTGlyph>
    <TTGlyph name="glyph191" xMin="-450" yMin="-1200" xMax="750" yMax="1500">
      <contour>
        <pt x="700" y="-941" on="1"/>
        <pt x="670" y="-1063" on="0"/>
        <pt x="519" y="-1132" on="1"/>
        <pt x="368" y="-1200" on="0"/>
        <pt x="109" y="-1200" on="1"/>
        <pt x="-150" y="-1200" on="0"/>
        <pt x="-300" y="-1135" on="1"/>
        <pt x="-450" y="-1070" on="0"/>
        <pt x="-450" y="-941" on="1"/>
        <pt x="-450" y="-830" on="0"/>
        <pt x="-375" y="-775" on="1"/>
        <pt x="-300" y="-720" on="0"/>
        <pt x="-150" y="-720" on="1"/>
        <pt x="-25" y="-720" on="0"/>
        <pt x="38" y="-748" on="1"/>
        <pt x="100" y="-775" on="0"/>
        <pt x="100" y="-830" on="1"/>
        <pt x="100" y="-886" on="0"/>
        <pt x="56" y="-913" on="1"/>
        <pt x="12" y="-941" on="0"/>
        <pt x="-75" y="-941" on="1"/>
        <pt x="-150" y="-941" on="0"/>
        <pt x="-200" y="-904" on="1"/>
        <pt x="-200" y="-867" on="0"/>
        <pt x="-250" y="-867" on="1"/>
        <pt x="-300" y="-867" on="0"/>
        <pt x="-300" y="-904" on="1"/>
        <pt x="-300" y="-960" on="0"/>
        <pt x="-188" y="-987" on="1"/>
        <pt x="-75" y="-1015" on="0"/>
        <pt x="125" y="-1015" on="1"/>
        <pt x="325" y="-1015" on="0"/>
        <pt x="438" y="-960" on="1"/>
        <pt x="550" y="-904" on="0"/>
        <pt x="550" y="-793" on="1"/>
        <pt x="550" y="633" on="1"/>
        <pt x="544" y="659" on="0"/>
        <pt x="488" y="683" on="1"/>
        <pt x="446" y="700" on="0"/>
        <pt x="389" y="700" on="1"/>
        <pt x="292" y="700" on="0"/>
        <pt x="150" y="650" on="1"/>
        <pt x="150" y="1224" on="1"/>
        <pt x="150" y="1300" on="0"/>
        <pt x="358" y="1500" on="0"/>
        <pt x="394" y="1500" on="1"/>
        <pt x="430" y="1500" on="0"/>
        <pt x="657" y="1364" on="0"/>
        <pt x="750" y="1364" on="1"/>
        <pt x="669" y="1091" on="0"/>
        <pt x="585" y="1091" on="1"/>
        <pt x="583" y="1090" on="0"/>
        <pt x="582" y="1090" on="1"/>
        <pt x="499" y="1090" on="0"/>
        <pt x="439" y="1125" on="1"/>
        <pt x="400" y="1147" on="0"/>
        <pt x="366" y="1147" on="1"/>
        <pt x="347" y="1147" on="0"/>
        <pt x="330" y="1140" on="1"/>
        <pt x="281" y="1120" on="0"/>
        <pt x="251" y="1000" on="1"/>
        <pt x="315" y="1028" on="0"/>
        <pt x="382" y="1028" on="1"/>
        <pt x="446" y="1028" on="0"/>
        <pt x="513" y="1003" on="1"/>
        <pt x="651" y="951" on="0"/>
        <pt x="700" y="850" on="1"/>
      </contour>
    </TTGlyph>
    <TTGlyph name="glyph192" xMin="150" yMin="-1200" xMax="1650" yMax="1500">
      <contour>
        <pt x="700" y="-635" on="1"/>
        <pt x="700" y="-748" on="0"/>
        <pt x="580" y="-797" on="1"/>
        <pt x="580" y="-889" on="0"/>
        <pt x="721" y="-935" on="1"/>
        <pt x="862" y="-981" on="0"/>
        <pt x="1045" y="-982" on="1"/>
        <pt x="1362" y="-981" on="0"/>
        <pt x="1471" y="-901" on="1"/>
        <pt x="1580" y="-821" on="0"/>
        <pt x="1600" y="-728" on="1"/>
        <pt x="1650" y="-728" on="0"/>
        <pt x="1650" y="-765" on="1"/>
        <pt x="1650" y="-939" on="0"/>
        <pt x="1450" y="-1069" on="1"/>
        <pt x="1250" y="-1200" on="0"/>
        <pt x="945" y="-1200" on="1"/>
        <pt x="560" y="-1200" on="0"/>
        <pt x="376" y="-1093" on="1"/>
        <pt x="191" y="-986" on="0"/>
        <pt x="150" y="-722" on="1"/>
        <pt x="550" y="-722" on="0"/>
        <pt x="550" y="-513" on="1"/>
        <pt x="550" y="633" on="1"/>
        <pt x="544" y="659" on="0"/>
        <pt x="488" y="683" on="1"/>
        <pt x="446" y="700" on="0"/>
        <pt x="389" y="700" on="1"/>
        <pt x="292" y="700" on="0"/>
        <pt x="150" y="650" on="1"/>
        <pt x="150" y="1224" on="1"/>
        <pt x="150" y="1300" on="0"/>
        <pt x="358" y="1500" on="0"/>
        <pt x="394" y="1500" on="1"/>
        <pt x="430" y="1500" on="0"/>
        <pt x="657" y="1364" on="0"/>
        <pt x="750" y="1364" on="1"/>
        <pt x="669" y="1091" on="0"/>
        <pt x="585" y="1091" on="1"/>
        <pt x="583" y="1090" on="0"/>
        <pt x="582" y="1090" on="1"/>
        <pt x="499" y="1090" on="0"/>
        <pt x="439" y="1125" on="1"/>
        <pt x="400" y="1147" on="0"/>
        <pt x="366" y="1147" on="1"/>
        <pt x="347" y="1147" on="0"/>
        <pt x="330" y="1140" on="1"/>
        <pt x="281" y="1120" on="0"/>
        <pt x="251" y="1000" on="1"/>
        <pt x="315" y="1028" on="0"/>
        <pt x="382" y="1028" on="1"/>
        <pt x="446" y="1028" on="0"/>
        <pt x="513" y="1003" on="1"/>
        <pt x="651" y="951" on="0"/>
        <pt x="700" y="850" on="1"/>
      </contour>
    </TTGlyph>
    <TTGlyph name="glyph193" xMin="-450" yMin="-1200" xMax="881" yMax="1500">
      <contour>
        <pt x="700" y="-904" on="1"/>
        <pt x="700" y="-1052" on="0"/>
        <pt x="549" y="-1126" on="1"/>
        <pt x="398" y="-1200" on="0"/>
        <pt x="88" y="-1200" on="1"/>
        <pt x="-178" y="-1200" on="0"/>
        <pt x="-314" y="-1140" on="1"/>
        <pt x="-450" y="-1080" on="0"/>
        <pt x="-450" y="-960" on="1"/>
        <pt x="-290" y="-960" on="0"/>
        <pt x="-244" y="-932" on="1"/>
        <pt x="-200" y="-905" on="0"/>
        <pt x="-200" y="-885" on="1"/>
        <pt x="-200" y="-884" on="1"/>
        <pt x="-200" y="-856" on="0"/>
        <pt x="-250" y="-856" on="1"/>
        <pt x="-300" y="-856" on="0"/>
        <pt x="-300" y="-920" on="1"/>
        <pt x="-450" y="-920" on="0"/>
        <pt x="-450" y="-840" on="1"/>
        <pt x="-450" y="-720" on="0"/>
        <pt x="-275" y="-720" on="1"/>
        <pt x="-100" y="-720" on="0"/>
        <pt x="-100" y="-840" on="1"/>
        <pt x="-100" y="-920" on="0"/>
        <pt x="-150" y="-960" on="1"/>
        <pt x="-150" y="-1000" on="0"/>
        <pt x="88" y="-1000" on="1"/>
        <pt x="325" y="-1000" on="0"/>
        <pt x="438" y="-960" on="1"/>
        <pt x="550" y="-920" on="0"/>
        <pt x="550" y="-840" on="1"/>
        <pt x="550" y="-4" on="1"/>
        <pt x="439" y="0" on="0"/>
        <pt x="303" y="48" on="1"/>
        <pt x="388" y="131" on="0"/>
        <pt x="388" y="276" on="1"/>
        <pt x="388" y="298" on="0"/>
        <pt x="386" y="322" on="1"/>
        <pt x="468" y="235" on="0"/>
        <pt x="550" y="200" on="1"/>
        <pt x="550" y="633" on="1"/>
        <pt x="544" y="659" on="0"/>
        <pt x="488" y="683" on="1"/>
        <pt x="446" y="700" on="0"/>
        <pt x="389" y="700" on="1"/>
        <pt x="292" y="700" on="0"/>
        <pt x="150" y="650" on="1"/>
        <pt x="150" y="1224" on="1"/>
        <pt x="150" y="1300" on="0"/>
        <pt x="358" y="1500" on="0"/>
        <pt x="394" y="1500" on="1"/>
        <pt x="430" y="1500" on="0"/>
        <pt x="657" y="1364" on="0"/>
        <pt x="750" y="1364" on="1"/>
        <pt x="669" y="1091" on="0"/>
        <pt x="585" y="1091" on="1"/>
        <pt x="583" y="1090" on="0"/>
        <pt x="582" y="1090" on="1"/>
        <pt x="499" y="1090" on="0"/>
        <pt x="439" y="1125" on="1"/>
        <pt x="400" y="1147" on="0"/>
        <pt x="366" y="1147" on="1"/>
        <pt x="347" y="1147" on="0"/>
        <pt x="330" y="1140" on="1"/>
        <pt x="281" y="1120" on="0"/>
        <pt x="251" y="1000" on="1"/>
        <pt x="315" y="1028" on="0"/>
        <pt x="382" y="1028" on="1"/>
        <pt x="446" y="1028" on="0"/>
        <pt x="513" y="1003" on="1"/>
        <pt x="651" y="951" on="0"/>
        <pt x="700" y="850" on="1"/>
        <pt x="700" y="168" on="1"/>
        <pt x="773" y="161" on="0"/>
        <pt x="859" y="161" on="1"/>
        <pt x="881" y="161" on="1"/>
        <pt x="821" y="52" on="0"/>
        <pt x="700" y="14" on="1"/>
      </contour>
    </TTGlyph>
    <TTGlyph name="glyph194" xMin="-1050" yMin="1700" xMax="-50" yMax="2300">
      <contour>
        <pt x="-574" y="2300" on="1"/>
        <pt x="-383" y="2300" on="0"/>
        <pt x="-240" y="2150" on="1"/>
        <pt x="-97" y="2000" on="0"/>
        <pt x="-50" y="1750" on="1"/>
        <pt x="-50" y="1700" on="0"/>
        <pt x="-192" y="1700" on="1"/>
        <pt x="-425" y="1750" on="0"/>
        <pt x="-588" y="1750" on="1"/>
        <pt x="-719" y="1750" on="0"/>
        <pt x="-857" y="1700" on="1"/>
        <pt x="-955" y="1700" on="0"/>
        <pt x="-1002" y="1766" on="1"/>
        <pt x="-1050" y="1831" on="0"/>
        <pt x="-1050" y="1893" on="1"/>
        <pt x="-1050" y="2050" on="0"/>
        <pt x="-930" y="2175" on="1"/>
        <pt x="-811" y="2300" on="0"/>
      </contour>
      <contour>
        <pt x="-795" y="1879" on="1"/>
        <pt x="-695" y="1900" on="0"/>
        <pt x="-588" y="1900" on="1"/>
        <pt x="-425" y="1900" on="0"/>
        <pt x="-216" y="1848" on="1"/>
        <pt x="-235" y="1921" on="0"/>
        <pt x="-429" y="2050" on="0"/>
        <pt x="-572" y="2050" on="1"/>
        <pt x="-676" y="2050" on="0"/>
        <pt x="-795" y="1949" on="0"/>
      </contour>
    </TTGlyph>
    <TTGlyph name="glyph195" xMin="-1100" yMin="1700" xMax="0" yMax="2351">
      <contour>
        <pt x="-105" y="2351" on="1"/>
        <pt x="0" y="2351" on="0"/>
        <pt x="0" y="2196" on="1"/>
        <pt x="0" y="2045" on="0"/>
        <pt x="-88" y="1769" on="1"/>
        <pt x="-86" y="1759" on="0"/>
        <pt x="-84" y="1750" on="1"/>
        <pt x="-84" y="1700" on="0"/>
        <pt x="-229" y="1700" on="1"/>
        <pt x="-465" y="1750" on="0"/>
        <pt x="-631" y="1750" on="1"/>
        <pt x="-764" y="1750" on="0"/>
        <pt x="-904" y="1700" on="1"/>
        <pt x="-1004" y="1700" on="0"/>
        <pt x="-1051" y="1766" on="1"/>
        <pt x="-1100" y="1831" on="0"/>
        <pt x="-1100" y="1893" on="1"/>
        <pt x="-1100" y="2050" on="0"/>
        <pt x="-979" y="2175" on="1"/>
        <pt x="-858" y="2300" on="0"/>
        <pt x="-633" y="2300" on="1"/>
        <pt x="-499" y="2300" on="0"/>
        <pt x="-315" y="2150" on="1"/>
        <pt x="-236" y="2084" on="0"/>
        <pt x="-181" y="2000" on="1"/>
        <pt x="-127" y="2002" on="0"/>
        <pt x="-126" y="2100" on="1"/>
        <pt x="-126" y="2151" on="0"/>
        <pt x="-212" y="2201" on="1"/>
        <pt x="-212" y="2351" on="0"/>
        <pt x="-106" y="2351" on="1"/>
      </contour>
      <contour>
        <pt x="-841" y="1879" on="1"/>
        <pt x="-740" y="1900" on="0"/>
        <pt x="-631" y="1900" on="1"/>
        <pt x="-466" y="1900" on="0"/>
        <pt x="-253" y="1848" on="1"/>
        <pt x="-273" y="1921" on="0"/>
        <pt x="-528" y="2050" on="0"/>
        <pt x="-632" y="2050" on="1"/>
        <pt x="-720" y="2050" on="0"/>
        <pt x="-841" y="1949" on="0"/>
      </contour>
    </TTGlyph>
    <TTGlyph name="glyph196" xMin="-1051" yMin="1700" xMax="0" yMax="2400">
      <contour>
        <pt x="-588" y="2300" on="1"/>
        <pt x="-493" y="2300" on="0"/>
        <pt x="-375" y="2225" on="1"/>
        <pt x="-366" y="2301" on="0"/>
        <pt x="-331" y="2344" on="1"/>
        <pt x="-283" y="2400" on="0"/>
        <pt x="-189" y="2400" on="1"/>
        <pt x="-94" y="2400" on="0"/>
        <pt x="-47" y="2344" on="1"/>
        <pt x="0" y="2288" on="0"/>
        <pt x="0" y="2175" on="1"/>
        <pt x="0" y="2062" on="0"/>
        <pt x="-47" y="2006" on="1"/>
        <pt x="-73" y="1974" on="0"/>
        <pt x="-115" y="1960" on="1"/>
        <pt x="-64" y="1866" on="0"/>
        <pt x="-42" y="1750" on="1"/>
        <pt x="-42" y="1700" on="0"/>
        <pt x="-186" y="1700" on="1"/>
        <pt x="-420" y="1750" on="0"/>
        <pt x="-585" y="1750" on="1"/>
        <pt x="-717" y="1750" on="0"/>
        <pt x="-856" y="1700" on="1"/>
        <pt x="-956" y="1700" on="0"/>
        <pt x="-1003" y="1766" on="1"/>
        <pt x="-1051" y="1831" on="0"/>
        <pt x="-1051" y="1893" on="1"/>
        <pt x="-1051" y="2050" on="0"/>
        <pt x="-930" y="2175" on="1"/>
        <pt x="-810" y="2300" on="0"/>
      </contour>
      <contour>
        <pt x="-794" y="1879" on="1"/>
        <pt x="-693" y="1900" on="0"/>
        <pt x="-585" y="1900" on="1"/>
        <pt x="-421" y="1900" on="0"/>
        <pt x="-210" y="1848" on="1"/>
        <pt x="-230" y="1921" on="0"/>
        <pt x="-483" y="2050" on="0"/>
        <pt x="-586" y="2050" on="1"/>
        <pt x="-674" y="2050" on="0"/>
        <pt x="-794" y="1949" on="0"/>
      </contour>
      <contour>
        <pt x="-189" y="2100" on="1"/>
        <pt x="-126" y="2100" on="0"/>
        <pt x="-126" y="2175" on="1"/>
        <pt x="-126" y="2250" on="0"/>
        <pt x="-189" y="2250" on="1"/>
        <pt x="-252" y="2250" on="0"/>
        <pt x="-252" y="2175" on="1"/>
        <pt x="-252" y="2100" on="0"/>
      </contour>
    </TTGlyph>
    <TTGlyph name="glyph197" xMin="-1100" yMin="1700" xMax="0" yMax="2501">
      <contour>
        <pt x="-401" y="2501" on="1"/>
        <pt x="-296" y="2501" on="0"/>
        <pt x="-295" y="2344" on="1"/>
        <pt x="-295" y="2244" on="0"/>
        <pt x="-313" y="2148" on="1"/>
        <pt x="-235" y="2083" on="0"/>
        <pt x="-181" y="2000" on="1"/>
        <pt x="-127" y="2002" on="0"/>
        <pt x="-126" y="2100" on="1"/>
        <pt x="-126" y="2151" on="0"/>
        <pt x="-212" y="2201" on="1"/>
        <pt x="-212" y="2351" on="0"/>
        <pt x="-106" y="2351" on="1"/>
        <pt x="-105" y="2351" on="1"/>
        <pt x="0" y="2351" on="0"/>
        <pt x="0" y="2196" on="1"/>
        <pt x="0" y="2045" on="0"/>
        <pt x="-88" y="1769" on="1"/>
        <pt x="-86" y="1759" on="0"/>
        <pt x="-84" y="1750" on="1"/>
        <pt x="-84" y="1700" on="0"/>
        <pt x="-229" y="1700" on="1"/>
        <pt x="-465" y="1750" on="0"/>
        <pt x="-631" y="1750" on="1"/>
        <pt x="-764" y="1750" on="0"/>
        <pt x="-904" y="1700" on="1"/>
        <pt x="-1004" y="1700" on="0"/>
        <pt x="-1051" y="1766" on="1"/>
        <pt x="-1100" y="1831" on="0"/>
        <pt x="-1100" y="1893" on="1"/>
        <pt x="-1100" y="2050" on="0"/>
        <pt x="-979" y="2175" on="1"/>
        <pt x="-858" y="2300" on="0"/>
        <pt x="-633" y="2300" on="1"/>
        <pt x="-540" y="2300" on="0"/>
        <pt x="-425" y="2229" on="1"/>
        <pt x="-422" y="2254" on="0"/>
        <pt x="-422" y="2288" on="1"/>
        <pt x="-422" y="2339" on="0"/>
        <pt x="-507" y="2379" on="1"/>
        <pt x="-507" y="2501" on="0"/>
      </contour>
      <contour>
        <pt x="-841" y="1879" on="1"/>
        <pt x="-740" y="1900" on="0"/>
        <pt x="-631" y="1900" on="1"/>
        <pt x="-466" y="1900" on="0"/>
        <pt x="-253" y="1848" on="1"/>
        <pt x="-273" y="1921" on="0"/>
        <pt x="-528" y="2050" on="0"/>
        <pt x="-632" y="2050" on="1"/>
        <pt x="-720" y="2050" on="0"/>
        <pt x="-841" y="1949" on="0"/>
      </contour>
    </TTGlyph>
    <TTGlyph name="glyph198" xMin="-850" yMin="1700" xMax="-150" yMax="2299">
      <contour>
        <pt x="-540" y="1809" on="0"/>
        <pt x="-499" y="1809" on="1"/>
        <pt x="-459" y="1809" on="0"/>
        <pt x="-439" y="1856" on="1"/>
        <pt x="-418" y="1904" on="0"/>
        <pt x="-418" y="1998" on="1"/>
        <pt x="-418" y="2094" on="0"/>
        <pt x="-439" y="2141" on="1"/>
        <pt x="-459" y="2189" on="0"/>
        <pt x="-499" y="2189" on="1"/>
        <pt x="-540" y="2189" on="0"/>
        <pt x="-560" y="2141" on="1"/>
        <pt x="-581" y="2094" on="0"/>
        <pt x="-581" y="1998" on="1"/>
        <pt x="-581" y="1904" on="0"/>
        <pt x="-560" y="1856" on="1"/>
      </contour>
      <contour>
        <pt x="-324" y="1700" on="0"/>
        <pt x="-500" y="1700" on="1"/>
        <pt x="-676" y="1700" on="0"/>
        <pt x="-763" y="1775" on="1"/>
        <pt x="-850" y="1849" on="0"/>
        <pt x="-850" y="2000" on="1"/>
        <pt x="-850" y="2149" on="0"/>
        <pt x="-763" y="2224" on="1"/>
        <pt x="-676" y="2299" on="0"/>
        <pt x="-500" y="2299" on="1"/>
        <pt x="-324" y="2299" on="0"/>
        <pt x="-237" y="2224" on="1"/>
        <pt x="-150" y="2149" on="0"/>
        <pt x="-150" y="2000" on="1"/>
        <pt x="-150" y="1849" on="0"/>
        <pt x="-237" y="1775" on="1"/>
      </contour>
    </TTGlyph>
    <TTGlyph name="glyph199" xMin="-990" yMin="1700" xMax="-99" yMax="2356">
      <contour>
        <pt x="-410" y="2098" on="1"/>
        <pt x="-451" y="2098" on="0"/>
        <pt x="-470" y="2058" on="1"/>
        <pt x="-470" y="2064" on="1"/>
        <pt x="-470" y="2233" on="0"/>
        <pt x="-412" y="2294" on="1"/>
        <pt x="-354" y="2356" on="0"/>
        <pt x="-268" y="2356" on="1"/>
        <pt x="-182" y="2356" on="0"/>
        <pt x="-141" y="2299" on="1"/>
        <pt x="-99" y="2241" on="0"/>
        <pt x="-99" y="2158" on="1"/>
        <pt x="-100" y="2054" on="0"/>
        <pt x="-247" y="1793" on="0"/>
        <pt x="-370" y="1700" on="1"/>
        <pt x="-348" y="1953" on="0"/>
        <pt x="-348" y="2030" on="1"/>
        <pt x="-348" y="2098" on="0"/>
      </contour>
      <contour>
        <pt x="-930" y="2098" on="1"/>
        <pt x="-971" y="2098" on="0"/>
        <pt x="-990" y="2058" on="1"/>
        <pt x="-990" y="2064" on="1"/>
        <pt x="-990" y="2233" on="0"/>
        <pt x="-932" y="2294" on="1"/>
        <pt x="-874" y="2356" on="0"/>
        <pt x="-788" y="2356" on="1"/>
        <pt x="-702" y="2356" on="0"/>
        <pt x="-661" y="2299" on="1"/>
        <pt x="-619" y="2241" on="0"/>
        <pt x="-619" y="2158" on="1"/>
        <pt x="-620" y="2054" on="0"/>
        <pt x="-767" y="1793" on="0"/>
        <pt x="-890" y="1700" on="1"/>
        <pt x="-868" y="1953" on="0"/>
        <pt x="-868" y="2030" on="1"/>
        <pt x="-868" y="2098" on="0"/>
      </contour>
    </TTGlyph>
    <TTGlyph name="glyph200" xMin="-800" yMin="1650" xMax="-50" yMax="2350">
      <contour>
        <pt x="-549" y="1919" on="1"/>
        <pt x="-549" y="1839" on="0"/>
        <pt x="-525" y="1799" on="1"/>
        <pt x="-502" y="1759" on="0"/>
        <pt x="-454" y="1759" on="1"/>
        <pt x="-400" y="1759" on="0"/>
        <pt x="-400" y="1810" on="1"/>
        <pt x="-401" y="1845" on="0"/>
        <pt x="-451" y="1845" on="1"/>
        <pt x="-451" y="1909" on="0"/>
        <pt x="-420" y="1941" on="1"/>
        <pt x="-388" y="1973" on="0"/>
        <pt x="-325" y="1973" on="1"/>
        <pt x="-263" y="1973" on="0"/>
        <pt x="-231" y="1942" on="1"/>
        <pt x="-200" y="1912" on="0"/>
        <pt x="-200" y="1851" on="1"/>
        <pt x="-200" y="1751" on="0"/>
        <pt x="-264" y="1700" on="1"/>
        <pt x="-327" y="1650" on="0"/>
        <pt x="-454" y="1650" on="1"/>
        <pt x="-627" y="1650" on="0"/>
        <pt x="-713" y="1717" on="1"/>
        <pt x="-800" y="1784" on="0"/>
        <pt x="-800" y="1919" on="1"/>
        <pt x="-800" y="2059" on="0"/>
        <pt x="-742" y="2129" on="1"/>
        <pt x="-685" y="2200" on="0"/>
        <pt x="-569" y="2200" on="1"/>
        <pt x="-454" y="2200" on="0"/>
        <pt x="-396" y="2177" on="1"/>
        <pt x="-338" y="2154" on="0"/>
        <pt x="-281" y="2154" on="1"/>
        <pt x="-223" y="2154" on="0"/>
        <pt x="-223" y="2188" on="1"/>
        <pt x="-223" y="2241" on="0"/>
        <pt x="-281" y="2241" on="1"/>
        <pt x="-281" y="2296" on="0"/>
        <pt x="-252" y="2323" on="1"/>
        <pt x="-223" y="2350" on="0"/>
        <pt x="-165" y="2350" on="1"/>
        <pt x="-108" y="2350" on="0"/>
        <pt x="-79" y="2319" on="1"/>
        <pt x="-50" y="2289" on="0"/>
        <pt x="-50" y="2228" on="1"/>
        <pt x="-50" y="2127" on="0"/>
        <pt x="-108" y="2077" on="1"/>
        <pt x="-165" y="2026" on="0"/>
        <pt x="-281" y="2026" on="1"/>
        <pt x="-454" y="2026" on="1"/>
        <pt x="-502" y="2026" on="0"/>
        <pt x="-525" y="2000" on="1"/>
        <pt x="-549" y="1973" on="0"/>
      </contour>
    </TTGlyph>
    <TTGlyph name="glyph201" xMin="-1080" yMin="1599" xMax="130" yMax="2450">
      <contour>
        <pt x="-245" y="2019" on="1"/>
        <pt x="-245" y="1939" on="0"/>
        <pt x="-226" y="1899" on="1"/>
        <pt x="-209" y="1859" on="0"/>
        <pt x="-173" y="1859" on="1"/>
        <pt x="-133" y="1859" on="0"/>
        <pt x="-133" y="1910" on="1"/>
        <pt x="-133" y="1945" on="0"/>
        <pt x="-171" y="1945" on="1"/>
        <pt x="-171" y="2009" on="0"/>
        <pt x="-148" y="2041" on="1"/>
        <pt x="-124" y="2073" on="0"/>
        <pt x="-76" y="2073" on="1"/>
        <pt x="-30" y="2073" on="0"/>
        <pt x="-6" y="2042" on="1"/>
        <pt x="17" y="2012" on="0"/>
        <pt x="17" y="1951" on="1"/>
        <pt x="17" y="1851" on="0"/>
        <pt x="-30" y="1800" on="1"/>
        <pt x="-78" y="1750" on="0"/>
        <pt x="-173" y="1750" on="1"/>
        <pt x="-199" y="1750" on="1"/>
        <pt x="-187" y="1702" on="0"/>
        <pt x="-178" y="1649" on="1"/>
        <pt x="-178" y="1599" on="0"/>
        <pt x="-306" y="1599" on="1"/>
        <pt x="-516" y="1649" on="0"/>
        <pt x="-663" y="1649" on="1"/>
        <pt x="-781" y="1649" on="0"/>
        <pt x="-906" y="1599" on="1"/>
        <pt x="-995" y="1599" on="0"/>
        <pt x="-1037" y="1665" on="1"/>
        <pt x="-1080" y="1730" on="0"/>
        <pt x="-1080" y="1792" on="1"/>
        <pt x="-1080" y="1949" on="0"/>
        <pt x="-972" y="2074" on="1"/>
        <pt x="-865" y="2199" on="0"/>
        <pt x="-650" y="2199" on="1"/>
        <pt x="-526" y="2199" on="0"/>
        <pt x="-426" y="2121" on="1"/>
        <pt x="-415" y="2187" on="0"/>
        <pt x="-390" y="2229" on="1"/>
        <pt x="-347" y="2300" on="0"/>
        <pt x="-260" y="2300" on="1"/>
        <pt x="-173" y="2300" on="0"/>
        <pt x="-130" y="2277" on="1"/>
        <pt x="-86" y="2254" on="0"/>
        <pt x="-43" y="2254" on="1"/>
        <pt x="0" y="2254" on="0"/>
        <pt x="0" y="2288" on="1"/>
        <pt x="0" y="2341" on="0"/>
        <pt x="-43" y="2341" on="1"/>
        <pt x="-43" y="2396" on="0"/>
        <pt x="-21" y="2423" on="1"/>
        <pt x="0" y="2450" on="0"/>
        <pt x="44" y="2450" on="1"/>
        <pt x="86" y="2450" on="0"/>
        <pt x="108" y="2419" on="1"/>
        <pt x="130" y="2389" on="0"/>
        <pt x="130" y="2328" on="1"/>
        <pt x="130" y="2227" on="0"/>
        <pt x="86" y="2177" on="1"/>
        <pt x="44" y="2126" on="0"/>
        <pt x="-43" y="2126" on="1"/>
        <pt x="-173" y="2126" on="1"/>
        <pt x="-209" y="2126" on="0"/>
        <pt x="-226" y="2100" on="1"/>
        <pt x="-245" y="2073" on="0"/>
      </contour>
      <contour>
        <pt x="-850" y="1778" on="1"/>
        <pt x="-760" y="1799" on="0"/>
        <pt x="-663" y="1799" on="1"/>
        <pt x="-517" y="1799" on="0"/>
        <pt x="-328" y="1747" on="1"/>
        <pt x="-335" y="1775" on="0"/>
        <pt x="-351" y="1801" on="1"/>
        <pt x="-360" y="1809" on="0"/>
        <pt x="-368" y="1817" on="1"/>
        <pt x="-384" y="1834" on="0"/>
        <pt x="-397" y="1855" on="1"/>
        <pt x="-413" y="1870" on="0"/>
        <pt x="-432" y="1884" on="1"/>
        <pt x="-520" y="1949" on="0"/>
        <pt x="-649" y="1949" on="1"/>
        <pt x="-743" y="1949" on="0"/>
        <pt x="-850" y="1848" on="0"/>
      </contour>
    </TTGlyph>
    <TTGlyph name="glyph202" xMin="-1051" yMin="-702" xMax="100" yMax="-50">
      <contour>
        <pt x="-65" y="-431" on="1"/>
        <pt x="-49" y="-456" on="0"/>
        <pt x="-10" y="-461" on="1"/>
        <pt x="-10" y="-396" on="1"/>
      </contour>
      <contour>
        <pt x="-651" y="-226" on="1"/>
        <pt x="-541" y="-50" on="0"/>
        <pt x="-328" y="-50" on="1"/>
        <pt x="-327" y="-50" on="0"/>
        <pt x="-326" y="-51" on="1"/>
        <pt x="-156" y="-51" on="0"/>
        <pt x="100" y="-149" on="0"/>
        <pt x="100" y="-215" on="1"/>
        <pt x="100" y="-474" on="1"/>
        <pt x="100" y="-572" on="0"/>
        <pt x="63" y="-628" on="1"/>
        <pt x="27" y="-685" on="0"/>
        <pt x="-46" y="-702" on="1"/>
        <pt x="-97" y="-702" on="0"/>
        <pt x="-181" y="-636" on="1"/>
        <pt x="-260" y="-575" on="0"/>
        <pt x="-260" y="-515" on="1"/>
        <pt x="-260" y="-506" on="1"/>
        <pt x="-254" y="-442" on="0"/>
        <pt x="-200" y="-409" on="1"/>
        <pt x="-38" y="-333" on="1"/>
        <pt x="-79" y="-313" on="0"/>
        <pt x="-156" y="-296" on="1"/>
        <pt x="-232" y="-280" on="0"/>
        <pt x="-361" y="-280" on="1"/>
        <pt x="-581" y="-280" on="0"/>
        <pt x="-651" y="-380" on="1"/>
        <pt x="-651" y="-454" on="1"/>
        <pt x="-651" y="-577" on="0"/>
        <pt x="-689" y="-638" on="1"/>
        <pt x="-726" y="-700" on="0"/>
        <pt x="-801" y="-700" on="1"/>
        <pt x="-901" y="-700" on="0"/>
        <pt x="-981" y="-612" on="1"/>
        <pt x="-1051" y="-524" on="0"/>
        <pt x="-1051" y="-435" on="1"/>
        <pt x="-1001" y="-500" on="0"/>
        <pt x="-901" y="-500" on="1"/>
        <pt x="-826" y="-500" on="0"/>
        <pt x="-789" y="-483" on="1"/>
        <pt x="-751" y="-466" on="0"/>
        <pt x="-751" y="-431" on="1"/>
        <pt x="-751" y="-391" on="1"/>
        <pt x="-751" y="-331" on="0"/>
        <pt x="-801" y="-331" on="1"/>
        <pt x="-851" y="-331" on="0"/>
        <pt x="-851" y="-411" on="1"/>
        <pt x="-926" y="-411" on="0"/>
        <pt x="-963" y="-374" on="1"/>
        <pt x="-1001" y="-336" on="0"/>
        <pt x="-1001" y="-261" on="1"/>
        <pt x="-1001" y="-181" on="0"/>
        <pt x="-956" y="-141" on="1"/>
        <pt x="-911" y="-101" on="0"/>
        <pt x="-821" y="-101" on="1"/>
        <pt x="-736" y="-101" on="0"/>
        <pt x="-693" y="-132" on="1"/>
        <pt x="-651" y="-164" on="0"/>
      </contour>
    </TTGlyph>
    <TTGlyph name="glyph203" xMin="-1000" yMin="-700" xMax="100" yMax="-50">
      <contour>
        <pt x="-1000" y="-252" on="1"/>
        <pt x="-1000" y="-184" on="0"/>
        <pt x="-861" y="-117" on="1"/>
        <pt x="-721" y="-50" on="0"/>
        <pt x="-421" y="-50" on="1"/>
        <pt x="-229" y="-50" on="0"/>
        <pt x="100" y="-167" on="0"/>
        <pt x="100" y="-210" on="1"/>
        <pt x="100" y="-263" on="0"/>
        <pt x="-81" y="-353" on="1"/>
        <pt x="-261" y="-442" on="0"/>
        <pt x="-613" y="-477" on="1"/>
        <pt x="-559" y="-498" on="0"/>
        <pt x="-355" y="-498" on="1"/>
        <pt x="-229" y="-498" on="0"/>
        <pt x="-96" y="-454" on="1"/>
        <pt x="28" y="-407" on="0"/>
        <pt x="28" y="-370" on="1"/>
        <pt x="28" y="-367" on="0"/>
        <pt x="27" y="-363" on="1"/>
        <pt x="100" y="-388" on="0"/>
        <pt x="100" y="-448" on="1"/>
        <pt x="100" y="-534" on="0"/>
        <pt x="-26" y="-617" on="1"/>
        <pt x="-153" y="-700" on="0"/>
        <pt x="-413" y="-700" on="1"/>
        <pt x="-707" y="-700" on="0"/>
        <pt x="-853" y="-635" on="1"/>
        <pt x="-1000" y="-570" on="0"/>
        <pt x="-1000" y="-502" on="1"/>
        <pt x="-1000" y="-435" on="0"/>
        <pt x="-720" y="-423" on="0"/>
        <pt x="-484" y="-388" on="1"/>
        <pt x="-249" y="-353" on="0"/>
        <pt x="-249" y="-299" on="1"/>
        <pt x="-249" y="-253" on="0"/>
        <pt x="-497" y="-250" on="1"/>
        <pt x="-687" y="-250" on="0"/>
        <pt x="-744" y="-274" on="1"/>
        <pt x="-786" y="-292" on="0"/>
        <pt x="-786" y="-312" on="1"/>
        <pt x="-786" y="-319" on="0"/>
        <pt x="-781" y="-327" on="1"/>
        <pt x="-751" y="-356" on="1"/>
        <pt x="-821" y="-380" on="0"/>
        <pt x="-870" y="-380" on="1"/>
        <pt x="-914" y="-380" on="0"/>
        <pt x="-942" y="-360" on="1"/>
        <pt x="-1000" y="-318" on="0"/>
      </contour>
    </TTGlyph>
    <TTGlyph name="glyph204" xMin="-1000" yMin="-702" xMax="100" yMax="-52">
      <contour>
        <pt x="-65" y="-431" on="1"/>
        <pt x="-49" y="-456" on="0"/>
        <pt x="-10" y="-461" on="1"/>
        <pt x="-10" y="-396" on="1"/>
      </contour>
      <contour>
        <pt x="-1000" y="-435" on="1"/>
        <pt x="-1000" y="-247" on="0"/>
        <pt x="-853" y="-150" on="1"/>
        <pt x="-708" y="-52" on="0"/>
        <pt x="-412" y="-52" on="1"/>
        <pt x="-409" y="-52" on="0"/>
        <pt x="-406" y="-53" on="1"/>
        <pt x="-196" y="-53" on="0"/>
        <pt x="100" y="-149" on="0"/>
        <pt x="100" y="-215" on="1"/>
        <pt x="100" y="-474" on="1"/>
        <pt x="100" y="-572" on="0"/>
        <pt x="63" y="-628" on="1"/>
        <pt x="27" y="-685" on="0"/>
        <pt x="-46" y="-702" on="1"/>
        <pt x="-125" y="-702" on="0"/>
        <pt x="-195" y="-636" on="1"/>
        <pt x="-260" y="-576" on="0"/>
        <pt x="-260" y="-517" on="1"/>
        <pt x="-260" y="-506" on="1"/>
        <pt x="-254" y="-442" on="0"/>
        <pt x="-200" y="-409" on="1"/>
        <pt x="-38" y="-333" on="1"/>
        <pt x="-79" y="-313" on="0"/>
        <pt x="-156" y="-296" on="1"/>
        <pt x="-232" y="-280" on="0"/>
        <pt x="-421" y="-280" on="1"/>
        <pt x="-637" y="-280" on="0"/>
        <pt x="-745" y="-341" on="1"/>
        <pt x="-854" y="-403" on="0"/>
        <pt x="-854" y="-455" on="1"/>
        <pt x="-854" y="-481" on="0"/>
        <pt x="-817" y="-492" on="1"/>
        <pt x="-751" y="-407" on="0"/>
        <pt x="-597" y="-344" on="0"/>
        <pt x="-524" y="-344" on="1"/>
        <pt x="-377" y="-344" on="0"/>
        <pt x="-377" y="-458" on="1"/>
        <pt x="-377" y="-571" on="0"/>
        <pt x="-520" y="-571" on="1"/>
        <pt x="-523" y="-571" on="1"/>
        <pt x="-524" y="-470" on="0"/>
        <pt x="-605" y="-470" on="1"/>
        <pt x="-650" y="-470" on="0"/>
        <pt x="-663" y="-520" on="1"/>
        <pt x="-665" y="-528" on="0"/>
        <pt x="-665" y="-534" on="1"/>
        <pt x="-665" y="-571" on="0"/>
        <pt x="-597" y="-571" on="1"/>
        <pt x="-634" y="-701" on="0"/>
        <pt x="-745" y="-701" on="1"/>
        <pt x="-853" y="-701" on="0"/>
        <pt x="-1000" y="-574" on="0"/>
      </contour>
    </TTGlyph>
    <TTGlyph name="glyph205" xMin="-995" yMin="-700" xMax="100" yMax="-50">
      <contour>
        <pt x="-995" y="-380" on="1"/>
        <pt x="-995" y="-265" on="0"/>
        <pt x="-933" y="-208" on="1"/>
        <pt x="-870" y="-150" on="0"/>
        <pt x="-745" y="-150" on="1"/>
        <pt x="-670" y="-150" on="0"/>
        <pt x="-633" y="-185" on="1"/>
        <pt x="-595" y="-220" on="0"/>
        <pt x="-595" y="-290" on="1"/>
        <pt x="-595" y="-345" on="0"/>
        <pt x="-632" y="-372" on="1"/>
        <pt x="-669" y="-400" on="0"/>
        <pt x="-744" y="-400" on="1"/>
        <pt x="-744" y="-310" on="0"/>
        <pt x="-789" y="-310" on="1"/>
        <pt x="-834" y="-310" on="0"/>
        <pt x="-834" y="-355" on="1"/>
        <pt x="-834" y="-402" on="0"/>
        <pt x="-774" y="-426" on="1"/>
        <pt x="-714" y="-450" on="0"/>
        <pt x="-594" y="-450" on="1"/>
        <pt x="-319" y="-450" on="0"/>
        <pt x="-157" y="-350" on="1"/>
        <pt x="5" y="-250" on="0"/>
        <pt x="55" y="-50" on="1"/>
        <pt x="100" y="-50" on="0"/>
        <pt x="100" y="-118" on="1"/>
        <pt x="100" y="-126" on="0"/>
        <pt x="99" y="-136" on="1"/>
        <pt x="81" y="-394" on="0"/>
        <pt x="-94" y="-547" on="1"/>
        <pt x="-269" y="-700" on="0"/>
        <pt x="-594" y="-700" on="1"/>
        <pt x="-795" y="-700" on="0"/>
        <pt x="-895" y="-620" on="1"/>
        <pt x="-995" y="-540" on="0"/>
      </contour>
    </TTGlyph>
    <TTGlyph name="glyph206" xMin="-1000" yMin="-700" xMax="450" yMax="-50">
      <contour>
        <pt x="-1000" y="-350" on="1"/>
        <pt x="-899" y="-350" on="0"/>
        <pt x="-774" y="-332" on="1"/>
        <pt x="-650" y="-313" on="0"/>
        <pt x="-650" y="-250" on="1"/>
        <pt x="-650" y="-200" on="0"/>
        <pt x="-674" y="-188" on="1"/>
        <pt x="-683" y="-184" on="0"/>
        <pt x="-695" y="-184" on="1"/>
        <pt x="-717" y="-184" on="0"/>
        <pt x="-750" y="-200" on="1"/>
        <pt x="-750" y="-125" on="0"/>
        <pt x="-712" y="-88" on="1"/>
        <pt x="-675" y="-50" on="0"/>
        <pt x="-600" y="-50" on="1"/>
        <pt x="-525" y="-50" on="0"/>
        <pt x="-488" y="-82" on="1"/>
        <pt x="-450" y="-115" on="0"/>
        <pt x="-450" y="-180" on="1"/>
        <pt x="-450" y="-256" on="0"/>
        <pt x="-512" y="-311" on="1"/>
        <pt x="-574" y="-366" on="0"/>
        <pt x="-699" y="-400" on="1"/>
        <pt x="-699" y="-450" on="0"/>
        <pt x="-480" y="-450" on="1"/>
        <pt x="-144" y="-450" on="0"/>
        <pt x="-105" y="-386" on="1"/>
        <pt x="-202" y="-370" on="0"/>
        <pt x="-251" y="-328" on="1"/>
        <pt x="-300" y="-287" on="0"/>
        <pt x="-300" y="-220" on="1"/>
        <pt x="-300" y="-135" on="0"/>
        <pt x="-250" y="-92" on="1"/>
        <pt x="-200" y="-50" on="0"/>
        <pt x="-100" y="-50" on="1"/>
        <pt x="0" y="-50" on="0"/>
        <pt x="50" y="-100" on="1"/>
        <pt x="100" y="-150" on="0"/>
        <pt x="100" y="-250" on="1"/>
        <pt x="96" y="-292" on="0"/>
        <pt x="91" y="-320" on="1"/>
        <pt x="107" y="-320" on="1"/>
        <pt x="278" y="-335" on="0"/>
        <pt x="364" y="-375" on="1"/>
        <pt x="450" y="-415" on="0"/>
        <pt x="450" y="-480" on="1"/>
        <pt x="450" y="-540" on="0"/>
        <pt x="388" y="-570" on="1"/>
        <pt x="325" y="-600" on="0"/>
        <pt x="200" y="-600" on="1"/>
        <pt x="250" y="-550" on="0"/>
        <pt x="250" y="-500" on="1"/>
        <pt x="250" y="-440" on="0"/>
        <pt x="66" y="-416" on="1"/>
        <pt x="14" y="-558" on="0"/>
        <pt x="-122" y="-628" on="1"/>
        <pt x="-258" y="-700" on="0"/>
        <pt x="-479" y="-700" on="1"/>
        <pt x="-740" y="-700" on="0"/>
        <pt x="-870" y="-613" on="1"/>
        <pt x="-1000" y="-526" on="0"/>
      </contour>
      <contour>
        <pt x="-67" y="-300" on="1"/>
        <pt x="-60" y="-280" on="0"/>
        <pt x="-60" y="-256" on="1"/>
        <pt x="-60" y="-250" on="1"/>
        <pt x="-60" y="-200" on="0"/>
        <pt x="-100" y="-200" on="1"/>
        <pt x="-150" y="-200" on="0"/>
        <pt x="-150" y="-240" on="1"/>
        <pt x="-150" y="-280" on="0"/>
      </contour>
    </TTGlyph>
    <TTGlyph name="glyph207" xMin="-999" yMin="-701" xMax="100" yMax="-50">
      <contour>
        <pt x="-755" y="-422" on="1"/>
        <pt x="-736" y="-466" on="0"/>
        <pt x="-669" y="-471" on="1"/>
        <pt x="-669" y="-422" on="1"/>
      </contour>
      <contour>
        <pt x="-230" y="-700" on="1"/>
        <pt x="-359" y="-700" on="0"/>
        <pt x="-451" y="-581" on="0"/>
        <pt x="-476" y="-501" on="1"/>
        <pt x="-501" y="-422" on="0"/>
        <pt x="-559" y="-422" on="1"/>
        <pt x="-559" y="-484" on="1"/>
        <pt x="-559" y="-577" on="0"/>
        <pt x="-607" y="-631" on="1"/>
        <pt x="-655" y="-685" on="0"/>
        <pt x="-741" y="-701" on="1"/>
        <pt x="-802" y="-701" on="0"/>
        <pt x="-998" y="-576" on="0"/>
        <pt x="-999" y="-391" on="1"/>
        <pt x="-999" y="-329" on="0"/>
        <pt x="-852" y="-329" on="1"/>
        <pt x="-669" y="-329" on="1"/>
        <pt x="-705" y="-267" on="0"/>
        <pt x="-847" y="-267" on="1"/>
        <pt x="-966" y="-267" on="0"/>
        <pt x="-999" y="-298" on="1"/>
        <pt x="-999" y="-50" on="1"/>
        <pt x="-913" y="-51" on="1"/>
        <pt x="-784" y="-51" on="0"/>
        <pt x="-559" y="-120" on="0"/>
        <pt x="-559" y="-195" on="1"/>
        <pt x="-559" y="-329" on="1"/>
        <pt x="-493" y="-329" on="0"/>
        <pt x="-392" y="-394" on="0"/>
        <pt x="-356" y="-459" on="1"/>
        <pt x="-332" y="-502" on="0"/>
        <pt x="-231" y="-502" on="1"/>
        <pt x="-123" y="-502" on="0"/>
        <pt x="-67" y="-453" on="1"/>
        <pt x="-10" y="-403" on="0"/>
        <pt x="-10" y="-329" on="1"/>
        <pt x="-10" y="-267" on="0"/>
        <pt x="-47" y="-267" on="1"/>
        <pt x="-83" y="-267" on="0"/>
        <pt x="-83" y="-283" on="1"/>
        <pt x="-83" y="-298" on="0"/>
        <pt x="-47" y="-298" on="1"/>
        <pt x="-83" y="-391" on="0"/>
        <pt x="-160" y="-391" on="1"/>
        <pt x="-250" y="-391" on="0"/>
        <pt x="-295" y="-353" on="1"/>
        <pt x="-340" y="-314" on="0"/>
        <pt x="-340" y="-236" on="1"/>
        <pt x="-340" y="-159" on="0"/>
        <pt x="-285" y="-120" on="1"/>
        <pt x="-230" y="-82" on="0"/>
        <pt x="-120" y="-82" on="1"/>
        <pt x="-46" y="-82" on="0"/>
        <pt x="27" y="-143" on="1"/>
        <pt x="100" y="-205" on="0"/>
        <pt x="100" y="-328" on="1"/>
        <pt x="100" y="-499" on="0"/>
        <pt x="5" y="-600" on="1"/>
        <pt x="-90" y="-700" on="0"/>
      </contour>
    </TTGlyph>
    <TTGlyph name="glyph208" xMin="-999" yMin="-701" xMax="100" yMax="-51">
      <contour>
        <pt x="-999" y="-51" on="1"/>
        <pt x="-889" y="-51" on="1"/>
        <pt x="-694" y="-51" on="0"/>
        <pt x="-611" y="-108" on="1"/>
        <pt x="-529" y="-165" on="0"/>
        <pt x="-529" y="-246" on="1"/>
        <pt x="-529" y="-366" on="0"/>
        <pt x="-622" y="-415" on="1"/>
        <pt x="-540" y="-453" on="0"/>
        <pt x="-322" y="-453" on="1"/>
        <pt x="-170" y="-453" on="0"/>
        <pt x="-64" y="-385" on="1"/>
        <pt x="41" y="-307" on="0"/>
        <pt x="100" y="-150" on="1"/>
        <pt x="100" y="-441" on="0"/>
        <pt x="-30" y="-571" on="1"/>
        <pt x="-160" y="-701" on="0"/>
        <pt x="-420" y="-701" on="1"/>
        <pt x="-743" y="-701" on="0"/>
        <pt x="-871" y="-611" on="1"/>
        <pt x="-999" y="-522" on="0"/>
        <pt x="-999" y="-406" on="1"/>
        <pt x="-985" y="-376" on="0"/>
        <pt x="-962" y="-376" on="1"/>
        <pt x="-838" y="-376" on="0"/>
        <pt x="-761" y="-355" on="1"/>
        <pt x="-684" y="-334" on="0"/>
        <pt x="-684" y="-305" on="1"/>
        <pt x="-684" y="-275" on="0"/>
        <pt x="-775" y="-272" on="1"/>
        <pt x="-792" y="-272" on="1"/>
        <pt x="-878" y="-272" on="0"/>
        <pt x="-999" y="-298" on="1"/>
      </contour>
    </TTGlyph>
    <TTGlyph name="glyph209" xMin="-1400" yMin="-650" xMax="100" yMax="-50">
      <contour>
        <pt x="100" y="-310" on="1"/>
        <pt x="100" y="-480" on="0"/>
        <pt x="-3" y="-565" on="1"/>
        <pt x="-106" y="-650" on="0"/>
        <pt x="-312" y="-650" on="1"/>
        <pt x="-605" y="-650" on="0"/>
        <pt x="-785" y="-550" on="1"/>
        <pt x="-966" y="-450" on="0"/>
        <pt x="-1120" y="-450" on="1"/>
        <pt x="-1243" y="-450" on="0"/>
        <pt x="-1400" y="-550" on="1"/>
        <pt x="-1353" y="-400" on="0"/>
        <pt x="-1255" y="-325" on="1"/>
        <pt x="-1157" y="-250" on="0"/>
        <pt x="-1008" y="-250" on="1"/>
        <pt x="-791" y="-250" on="0"/>
        <pt x="-585" y="-375" on="1"/>
        <pt x="-378" y="-500" on="0"/>
        <pt x="-172" y="-500" on="1"/>
        <pt x="-103" y="-500" on="0"/>
        <pt x="-68" y="-462" on="1"/>
        <pt x="-33" y="-425" on="0"/>
        <pt x="-33" y="-350" on="1"/>
        <pt x="-33" y="-250" on="0"/>
        <pt x="-91" y="-250" on="1"/>
        <pt x="-152" y="-250" on="0"/>
        <pt x="-152" y="-350" on="1"/>
        <pt x="-252" y="-350" on="0"/>
        <pt x="-302" y="-312" on="1"/>
        <pt x="-352" y="-275" on="0"/>
        <pt x="-352" y="-200" on="1"/>
        <pt x="-352" y="-125" on="0"/>
        <pt x="-301" y="-88" on="1"/>
        <pt x="-249" y="-50" on="0"/>
        <pt x="-147" y="-50" on="1"/>
        <pt x="-23" y="-50" on="0"/>
        <pt x="38" y="-115" on="1"/>
        <pt x="100" y="-180" on="0"/>
      </contour>
    </TTGlyph>
    <TTGlyph name="glyph210" xMin="-1000" yMin="-701" xMax="100" yMax="-50">
      <contour>
        <pt x="-65" y="-431" on="1"/>
        <pt x="-48" y="-456" on="0"/>
        <pt x="-10" y="-461" on="1"/>
        <pt x="-10" y="-396" on="1"/>
      </contour>
      <contour>
        <pt x="-1000" y="-409" on="1"/>
        <pt x="-999" y="-247" on="0"/>
        <pt x="-707" y="-50" on="0"/>
        <pt x="-431" y="-50" on="1"/>
        <pt x="-156" y="-50" on="0"/>
        <pt x="100" y="-149" on="0"/>
        <pt x="100" y="-215" on="1"/>
        <pt x="100" y="-474" on="1"/>
        <pt x="100" y="-571" on="0"/>
        <pt x="63" y="-627" on="1"/>
        <pt x="27" y="-684" on="0"/>
        <pt x="-46" y="-701" on="1"/>
        <pt x="-98" y="-700" on="0"/>
        <pt x="-182" y="-635" on="1"/>
        <pt x="-260" y="-574" on="0"/>
        <pt x="-260" y="-514" on="1"/>
        <pt x="-260" y="-505" on="1"/>
        <pt x="-254" y="-441" on="0"/>
        <pt x="-199" y="-409" on="1"/>
        <pt x="-37" y="-332" on="1"/>
        <pt x="-79" y="-312" on="0"/>
        <pt x="-156" y="-296" on="1"/>
        <pt x="-232" y="-279" on="0"/>
        <pt x="-421" y="-279" on="1"/>
        <pt x="-648" y="-279" on="0"/>
        <pt x="-875" y="-345" on="0"/>
        <pt x="-875" y="-412" on="1"/>
        <pt x="-875" y="-467" on="0"/>
        <pt x="-798" y="-467" on="1"/>
        <pt x="-810" y="-444" on="0"/>
        <pt x="-810" y="-424" on="1"/>
        <pt x="-810" y="-397" on="0"/>
        <pt x="-785" y="-377" on="1"/>
        <pt x="-743" y="-344" on="0"/>
        <pt x="-670" y="-344" on="1"/>
        <pt x="-597" y="-344" on="0"/>
        <pt x="-542" y="-395" on="1"/>
        <pt x="-487" y="-445" on="0"/>
        <pt x="-487" y="-524" on="1"/>
        <pt x="-487" y="-603" on="0"/>
        <pt x="-565" y="-700" on="0"/>
        <pt x="-693" y="-700" on="1"/>
        <pt x="-817" y="-700" on="0"/>
        <pt x="-908" y="-617" on="1"/>
        <pt x="-1000" y="-535" on="0"/>
      </contour>
    </TTGlyph>
    <TTGlyph name="glyph211" xMin="-1000" yMin="-700" xMax="450" yMax="0">
      <contour>
        <pt x="-1000" y="-380" on="1"/>
        <pt x="-899" y="-350" on="0"/>
        <pt x="-787" y="-300" on="1"/>
        <pt x="-894" y="-298" on="0"/>
        <pt x="-947" y="-260" on="1"/>
        <pt x="-1000" y="-222" on="0"/>
        <pt x="-1000" y="-150" on="1"/>
        <pt x="-1000" y="-75" on="0"/>
        <pt x="-950" y="-38" on="1"/>
        <pt x="-900" y="0" on="0"/>
        <pt x="-800" y="0" on="1"/>
        <pt x="-700" y="0" on="0"/>
        <pt x="-650" y="-50" on="1"/>
        <pt x="-600" y="-100" on="0"/>
        <pt x="-600" y="-200" on="1"/>
        <pt x="-50" y="-200" on="1"/>
        <pt x="-50" y="-100" on="1"/>
        <pt x="-50" y="0" on="0"/>
        <pt x="50" y="0" on="1"/>
        <pt x="150" y="0" on="0"/>
        <pt x="150" y="-100" on="1"/>
        <pt x="150" y="-150" on="0"/>
        <pt x="100" y="-150" on="1"/>
        <pt x="53" y="-150" on="0"/>
        <pt x="50" y="-105" on="1"/>
        <pt x="50" y="-200" on="1"/>
        <pt x="200" y="-200" on="1"/>
        <pt x="400" y="-200" on="0"/>
        <pt x="450" y="-250" on="1"/>
        <pt x="450" y="-300" on="0"/>
        <pt x="250" y="-400" on="1"/>
        <pt x="250" y="-300" on="0"/>
        <pt x="200" y="-300" on="1"/>
        <pt x="67" y="-300" on="1"/>
        <pt x="92" y="-353" on="0"/>
        <pt x="150" y="-450" on="1"/>
        <pt x="126" y="-574" on="0"/>
        <pt x="38" y="-637" on="1"/>
        <pt x="-50" y="-699" on="0"/>
        <pt x="-200" y="-699" on="1"/>
        <pt x="-202" y="-699" on="1"/>
        <pt x="-251" y="-699" on="0"/>
        <pt x="-325" y="-640" on="1"/>
        <pt x="-400" y="-580" on="1"/>
        <pt x="-470" y="-640" on="1"/>
        <pt x="-539" y="-700" on="0"/>
        <pt x="-599" y="-700" on="1"/>
        <pt x="-910" y="-601" on="0"/>
      </contour>
      <contour>
        <pt x="0" y="-400" on="1"/>
        <pt x="-36" y="-340" on="0"/>
        <pt x="-49" y="-300" on="1"/>
        <pt x="-620" y="-300" on="1"/>
        <pt x="-645" y="-354" on="0"/>
        <pt x="-719" y="-380" on="1"/>
        <pt x="-679" y="-430" on="0"/>
        <pt x="-549" y="-480" on="1"/>
        <pt x="-499" y="-480" on="0"/>
        <pt x="-319" y="-350" on="1"/>
        <pt x="-160" y="-480" on="0"/>
        <pt x="-110" y="-480" on="1"/>
        <pt x="-49" y="-480" on="0"/>
      </contour>
      <contour>
        <pt x="-900" y="-150" on="1"/>
        <pt x="-900" y="-200" on="0"/>
        <pt x="-775" y="-200" on="1"/>
        <pt x="-730" y="-200" on="1"/>
        <pt x="-731" y="-100" on="0"/>
        <pt x="-800" y="-100" on="1"/>
        <pt x="-900" y="-100" on="0"/>
      </contour>
    </TTGlyph>
    <TTGlyph name="glyph212" xMin="-1012" yMin="-741" xMax="100" yMax="-50">
      <contour>
        <pt x="-1012" y="-489" on="1"/>
        <pt x="-969" y="-460" on="0"/>
        <pt x="-738" y="-447" on="0"/>
        <pt x="-130" y="-291" on="0"/>
        <pt x="-130" y="-263" on="1"/>
        <pt x="-217" y="-233" on="0"/>
        <pt x="-312" y="-233" on="1"/>
        <pt x="-417" y="-233" on="0"/>
        <pt x="-528" y="-291" on="1"/>
        <pt x="-686" y="-233" on="0"/>
        <pt x="-757" y="-233" on="1"/>
        <pt x="-832" y="-233" on="0"/>
        <pt x="-842" y="-270" on="1"/>
        <pt x="-842" y="-290" on="1"/>
        <pt x="-842" y="-309" on="0"/>
        <pt x="-811" y="-309" on="1"/>
        <pt x="-781" y="-309" on="0"/>
        <pt x="-773" y="-301" on="1"/>
        <pt x="-770" y="-298" on="0"/>
        <pt x="-770" y="-295" on="1"/>
        <pt x="-770" y="-287" on="0"/>
        <pt x="-798" y="-287" on="1"/>
        <pt x="-798" y="-286" on="1"/>
        <pt x="-798" y="-257" on="0"/>
        <pt x="-735" y="-257" on="1"/>
        <pt x="-604" y="-257" on="0"/>
        <pt x="-604" y="-331" on="1"/>
        <pt x="-604" y="-395" on="0"/>
        <pt x="-789" y="-395" on="1"/>
        <pt x="-895" y="-395" on="0"/>
        <pt x="-953" y="-353" on="1"/>
        <pt x="-1012" y="-311" on="0"/>
        <pt x="-1012" y="-244" on="1"/>
        <pt x="-1012" y="-137" on="0"/>
        <pt x="-747" y="-50" on="1"/>
        <pt x="-566" y="-80" on="0"/>
        <pt x="-456" y="-157" on="1"/>
        <pt x="-369" y="-72" on="0"/>
        <pt x="-270" y="-50" on="1"/>
        <pt x="-171" y="-59" on="0"/>
        <pt x="100" y="-152" on="0"/>
        <pt x="100" y="-200" on="1"/>
        <pt x="100" y="-262" on="0"/>
        <pt x="35" y="-305" on="1"/>
        <pt x="-30" y="-349" on="0"/>
        <pt x="-225" y="-409" on="1"/>
        <pt x="-419" y="-469" on="0"/>
        <pt x="-639" y="-512" on="1"/>
        <pt x="-625" y="-534" on="0"/>
        <pt x="-536" y="-554" on="0"/>
        <pt x="-423" y="-554" on="1"/>
        <pt x="-329" y="-554" on="0"/>
        <pt x="-195" y="-506" on="1"/>
        <pt x="-61" y="-458" on="0"/>
        <pt x="-11" y="-374" on="1"/>
        <pt x="100" y="-374" on="0"/>
        <pt x="100" y="-426" on="1"/>
        <pt x="100" y="-619" on="1"/>
        <pt x="99" y="-741" on="0"/>
        <pt x="-30" y="-741" on="1"/>
        <pt x="-160" y="-741" on="0"/>
        <pt x="-160" y="-654" on="1"/>
        <pt x="-12" y="-619" on="0"/>
        <pt x="-11" y="-577" on="1"/>
        <pt x="-11" y="-532" on="1"/>
        <pt x="-85" y="-579" on="1"/>
        <pt x="-271" y="-701" on="0"/>
        <pt x="-590" y="-701" on="1"/>
        <pt x="-775" y="-701" on="0"/>
        <pt x="-1012" y="-566" on="0"/>
      </contour>
    </TTGlyph>
    <TTGlyph name="glyph213" xMin="-1000" yMin="-701" xMax="100" yMax="-50">
      <contour>
        <pt x="-65" y="-431" on="1"/>
        <pt x="-48" y="-456" on="0"/>
        <pt x="-10" y="-461" on="1"/>
        <pt x="-10" y="-396" on="1"/>
      </contour>
      <contour>
        <pt x="-1000" y="-409" on="1"/>
        <pt x="-999" y="-247" on="0"/>
        <pt x="-707" y="-50" on="0"/>
        <pt x="-431" y="-50" on="1"/>
        <pt x="-156" y="-50" on="0"/>
        <pt x="100" y="-149" on="0"/>
        <pt x="100" y="-215" on="1"/>
        <pt x="100" y="-474" on="1"/>
        <pt x="100" y="-571" on="0"/>
        <pt x="63" y="-627" on="1"/>
        <pt x="27" y="-684" on="0"/>
        <pt x="-46" y="-701" on="1"/>
        <pt x="-98" y="-700" on="0"/>
        <pt x="-182" y="-635" on="1"/>
        <pt x="-260" y="-574" on="0"/>
        <pt x="-260" y="-514" on="1"/>
        <pt x="-260" y="-505" on="1"/>
        <pt x="-254" y="-441" on="0"/>
        <pt x="-199" y="-409" on="1"/>
        <pt x="-37" y="-332" on="1"/>
        <pt x="-79" y="-312" on="0"/>
        <pt x="-156" y="-296" on="1"/>
        <pt x="-232" y="-279" on="0"/>
        <pt x="-421" y="-279" on="1"/>
        <pt x="-648" y="-279" on="0"/>
        <pt x="-875" y="-345" on="0"/>
        <pt x="-875" y="-412" on="1"/>
        <pt x="-875" y="-467" on="0"/>
        <pt x="-798" y="-467" on="1"/>
        <pt x="-810" y="-444" on="0"/>
        <pt x="-810" y="-424" on="1"/>
        <pt x="-810" y="-397" on="0"/>
        <pt x="-785" y="-377" on="1"/>
        <pt x="-743" y="-344" on="0"/>
        <pt x="-670" y="-344" on="1"/>
        <pt x="-597" y="-344" on="0"/>
        <pt x="-542" y="-395" on="1"/>
        <pt x="-487" y="-445" on="0"/>
        <pt x="-487" y="-524" on="1"/>
        <pt x="-487" y="-603" on="0"/>
        <pt x="-565" y="-700" on="0"/>
        <pt x="-693" y="-700" on="1"/>
        <pt x="-817" y="-700" on="0"/>
        <pt x="-908" y="-617" on="1"/>
        <pt x="-1000" y="-535" on="0"/>
      </contour>
    </TTGlyph>
    <TTGlyph name="glyph214" xMin="-1000" yMin="-700" xMax="450" yMax="-100">
      <contour>
        <pt x="-1000" y="-450" on="1"/>
        <pt x="-1000" y="-275" on="0"/>
        <pt x="-890" y="-188" on="1"/>
        <pt x="-780" y="-100" on="0"/>
        <pt x="-560" y="-100" on="1"/>
        <pt x="-350" y="-100" on="0"/>
        <pt x="-171" y="-184" on="1"/>
        <pt x="8" y="-268" on="0"/>
        <pt x="115" y="-435" on="1"/>
        <pt x="240" y="-600" on="0"/>
        <pt x="300" y="-600" on="1"/>
        <pt x="390" y="-600" on="0"/>
        <pt x="450" y="-550" on="1"/>
        <pt x="450" y="-625" on="0"/>
        <pt x="412" y="-662" on="1"/>
        <pt x="375" y="-700" on="0"/>
        <pt x="300" y="-700" on="1"/>
        <pt x="165" y="-700" on="0"/>
        <pt x="61" y="-654" on="1"/>
        <pt x="-42" y="-608" on="0"/>
        <pt x="-115" y="-515" on="1"/>
        <pt x="-202" y="-408" on="0"/>
        <pt x="-324" y="-354" on="1"/>
        <pt x="-445" y="-300" on="0"/>
        <pt x="-560" y="-300" on="1"/>
        <pt x="-730" y="-300" on="0"/>
        <pt x="-815" y="-338" on="1"/>
        <pt x="-900" y="-375" on="0"/>
        <pt x="-900" y="-450" on="1"/>
        <pt x="-900" y="-570" on="0"/>
        <pt x="-820" y="-570" on="1"/>
        <pt x="-750" y="-570" on="0"/>
        <pt x="-750" y="-450" on="1"/>
        <pt x="-650" y="-450" on="0"/>
        <pt x="-600" y="-481" on="1"/>
        <pt x="-550" y="-512" on="0"/>
        <pt x="-550" y="-575" on="1"/>
        <pt x="-550" y="-638" on="0"/>
        <pt x="-588" y="-669" on="1"/>
        <pt x="-625" y="-700" on="0"/>
        <pt x="-700" y="-700" on="1"/>
        <pt x="-850" y="-700" on="0"/>
        <pt x="-925" y="-638" on="1"/>
        <pt x="-1000" y="-575" on="0"/>
      </contour>
    </TTGlyph>
    <TTGlyph name="glyph215" xMin="-997" yMin="-700" xMax="100" yMax="-51">
      <contour>
        <pt x="-997" y="-51" on="1"/>
        <pt x="-887" y="-51" on="1"/>
        <pt x="-777" y="-51" on="0"/>
        <pt x="-668" y="-85" on="1"/>
        <pt x="-558" y="-118" on="0"/>
        <pt x="-558" y="-231" on="1"/>
        <pt x="-558" y="-343" on="0"/>
        <pt x="-661" y="-414" on="1"/>
        <pt x="-647" y="-473" on="0"/>
        <pt x="-592" y="-473" on="1"/>
        <pt x="-530" y="-473" on="0"/>
        <pt x="-416" y="-343" on="1"/>
        <pt x="-302" y="-213" on="0"/>
        <pt x="-141" y="-213" on="1"/>
        <pt x="-50" y="-213" on="0"/>
        <pt x="25" y="-271" on="1"/>
        <pt x="100" y="-329" on="0"/>
        <pt x="100" y="-451" on="1"/>
        <pt x="100" y="-573" on="0"/>
        <pt x="36" y="-636" on="1"/>
        <pt x="-28" y="-700" on="0"/>
        <pt x="-119" y="-700" on="1"/>
        <pt x="-211" y="-700" on="0"/>
        <pt x="-257" y="-668" on="1"/>
        <pt x="-302" y="-635" on="0"/>
        <pt x="-302" y="-570" on="1"/>
        <pt x="-302" y="-505" on="0"/>
        <pt x="-265" y="-473" on="1"/>
        <pt x="-229" y="-440" on="0"/>
        <pt x="-156" y="-440" on="1"/>
        <pt x="-156" y="-473" on="0"/>
        <pt x="-119" y="-473" on="1"/>
        <pt x="-83" y="-473" on="0"/>
        <pt x="-83" y="-444" on="1"/>
        <pt x="-83" y="-356" on="0"/>
        <pt x="-192" y="-356" on="1"/>
        <pt x="-287" y="-356" on="0"/>
        <pt x="-355" y="-442" on="1"/>
        <pt x="-423" y="-528" on="1"/>
        <pt x="-558" y="-700" on="0"/>
        <pt x="-631" y="-700" on="1"/>
        <pt x="-741" y="-700" on="0"/>
        <pt x="-869" y="-610" on="1"/>
        <pt x="-997" y="-522" on="0"/>
        <pt x="-997" y="-393" on="1"/>
        <pt x="-983" y="-375" on="0"/>
        <pt x="-960" y="-375" on="1"/>
        <pt x="-785" y="-375" on="0"/>
        <pt x="-726" y="-351" on="1"/>
        <pt x="-668" y="-327" on="0"/>
        <pt x="-668" y="-292" on="1"/>
        <pt x="-668" y="-259" on="0"/>
        <pt x="-755" y="-259" on="1"/>
        <pt x="-842" y="-259" on="0"/>
        <pt x="-997" y="-278" on="1"/>
      </contour>
    </TTGlyph>
    <TTGlyph name="glyph216" xMin="-1000" yMin="-700" xMax="100" yMax="-50">
      <contour>
        <pt x="-1000" y="-375" on="1"/>
        <pt x="-953" y="-375" on="0"/>
        <pt x="-632" y="-305" on="1"/>
        <pt x="-542" y="-281" on="0"/>
        <pt x="-542" y="-254" on="1"/>
        <pt x="-542" y="-205" on="0"/>
        <pt x="-572" y="-205" on="1"/>
        <pt x="-603" y="-205" on="0"/>
        <pt x="-633" y="-233" on="1"/>
        <pt x="-633" y="-141" on="0"/>
        <pt x="-588" y="-96" on="1"/>
        <pt x="-542" y="-50" on="0"/>
        <pt x="-450" y="-50" on="1"/>
        <pt x="-358" y="-50" on="0"/>
        <pt x="-312" y="-85" on="1"/>
        <pt x="-267" y="-120" on="0"/>
        <pt x="-267" y="-189" on="1"/>
        <pt x="-267" y="-246" on="0"/>
        <pt x="-395" y="-335" on="0"/>
        <pt x="-522" y="-368" on="1"/>
        <pt x="-770" y="-430" on="1"/>
        <pt x="-738" y="-472" on="0"/>
        <pt x="-692" y="-493" on="1"/>
        <pt x="-646" y="-514" on="0"/>
        <pt x="-587" y="-514" on="1"/>
        <pt x="-541" y="-514" on="0"/>
        <pt x="-500" y="-469" on="1"/>
        <pt x="-417" y="-363" on="1"/>
        <pt x="-376" y="-328" on="0"/>
        <pt x="-330" y="-328" on="1"/>
        <pt x="-297" y="-328" on="0"/>
        <pt x="-268" y="-363" on="1"/>
        <pt x="-208" y="-432" on="1"/>
        <pt x="-175" y="-467" on="0"/>
        <pt x="-129" y="-467" on="1"/>
        <pt x="-83" y="-467" on="0"/>
        <pt x="-60" y="-432" on="1"/>
        <pt x="-38" y="-398" on="0"/>
        <pt x="-38" y="-328" on="1"/>
        <pt x="-38" y="-249" on="0"/>
        <pt x="-83" y="-180" on="1"/>
        <pt x="-129" y="-110" on="0"/>
        <pt x="-221" y="-50" on="1"/>
        <pt x="-60" y="-50" on="0"/>
        <pt x="20" y="-120" on="1"/>
        <pt x="100" y="-189" on="0"/>
        <pt x="100" y="-328" on="1"/>
        <pt x="100" y="-514" on="0"/>
        <pt x="43" y="-606" on="1"/>
        <pt x="-15" y="-699" on="0"/>
        <pt x="-129" y="-699" on="1"/>
        <pt x="-267" y="-699" on="0"/>
        <pt x="-312" y="-653" on="1"/>
        <pt x="-404" y="-560" on="1"/>
        <pt x="-541" y="-700" on="0"/>
        <pt x="-632" y="-700" on="1"/>
        <pt x="-802" y="-700" on="0"/>
        <pt x="-901" y="-576" on="1"/>
        <pt x="-1000" y="-452" on="0"/>
      </contour>
    </TTGlyph>
    <TTGlyph name="glyph217" xMin="-1000" yMin="-700" xMax="100" yMax="-51">
      <contour>
        <pt x="-756" y="-410" on="1"/>
        <pt x="-737" y="-457" on="0"/>
        <pt x="-670" y="-462" on="1"/>
        <pt x="-670" y="-410" on="1"/>
      </contour>
      <contour>
        <pt x="-230" y="-699" on="1"/>
        <pt x="-400" y="-699" on="0"/>
        <pt x="-471" y="-579" on="0"/>
        <pt x="-501" y="-410" on="0"/>
        <pt x="-560" y="-410" on="1"/>
        <pt x="-560" y="-475" on="1"/>
        <pt x="-560" y="-571" on="0"/>
        <pt x="-608" y="-627" on="1"/>
        <pt x="-656" y="-683" on="0"/>
        <pt x="-742" y="-700" on="1"/>
        <pt x="-798" y="-700" on="0"/>
        <pt x="-999" y="-570" on="0"/>
        <pt x="-1000" y="-378" on="1"/>
        <pt x="-963" y="-314" on="0"/>
        <pt x="-817" y="-314" on="1"/>
        <pt x="-670" y="-314" on="1"/>
        <pt x="-670" y="-250" on="0"/>
        <pt x="-816" y="-250" on="1"/>
        <pt x="-940" y="-250" on="0"/>
        <pt x="-1000" y="-282" on="1"/>
        <pt x="-1000" y="-51" on="1"/>
        <pt x="-890" y="-51" on="1"/>
        <pt x="-743" y="-51" on="0"/>
        <pt x="-651" y="-81" on="1"/>
        <pt x="-560" y="-111" on="0"/>
        <pt x="-560" y="-216" on="1"/>
        <pt x="-560" y="-314" on="1"/>
        <pt x="-494" y="-314" on="0"/>
        <pt x="-392" y="-382" on="0"/>
        <pt x="-333" y="-462" on="0"/>
        <pt x="-231" y="-462" on="1"/>
        <pt x="-109" y="-462" on="0"/>
        <pt x="27" y="-359" on="0"/>
        <pt x="27" y="-179" on="1"/>
        <pt x="100" y="-211" on="0"/>
        <pt x="100" y="-314" on="1"/>
        <pt x="100" y="-458" on="0"/>
        <pt x="-91" y="-699" on="0"/>
      </contour>
    </TTGlyph>
    <TTGlyph name="glyph218" xMin="-999" yMin="-700" xMax="100" yMax="-51">
      <contour>
        <pt x="-999" y="-51" on="1"/>
        <pt x="-889" y="-51" on="1"/>
        <pt x="-724" y="-51" on="0"/>
        <pt x="-641" y="-108" on="1"/>
        <pt x="-559" y="-165" on="0"/>
        <pt x="-559" y="-246" on="1"/>
        <pt x="-559" y="-375" on="0"/>
        <pt x="-662" y="-414" on="1"/>
        <pt x="-648" y="-442" on="0"/>
        <pt x="-582" y="-475" on="0"/>
        <pt x="-531" y="-475" on="1"/>
        <pt x="-480" y="-475" on="0"/>
        <pt x="-439" y="-430" on="1"/>
        <pt x="-386" y="-368" on="1"/>
        <pt x="-352" y="-401" on="1"/>
        <pt x="-318" y="-435" on="0"/>
        <pt x="-266" y="-455" on="1"/>
        <pt x="-215" y="-475" on="0"/>
        <pt x="-169" y="-475" on="1"/>
        <pt x="-123" y="-475" on="0"/>
        <pt x="-67" y="-435" on="1"/>
        <pt x="-10" y="-395" on="0"/>
        <pt x="-10" y="-337" on="1"/>
        <pt x="-10" y="-278" on="0"/>
        <pt x="-47" y="-278" on="1"/>
        <pt x="-83" y="-278" on="0"/>
        <pt x="-83" y="-294" on="1"/>
        <pt x="-83" y="-311" on="0"/>
        <pt x="-47" y="-311" on="1"/>
        <pt x="-83" y="-375" on="0"/>
        <pt x="-166" y="-375" on="1"/>
        <pt x="-250" y="-375" on="0"/>
        <pt x="-340" y="-307" on="0"/>
        <pt x="-340" y="-246" on="1"/>
        <pt x="-340" y="-165" on="0"/>
        <pt x="-285" y="-124" on="1"/>
        <pt x="-230" y="-83" on="0"/>
        <pt x="-120" y="-83" on="1"/>
        <pt x="-46" y="-83" on="0"/>
        <pt x="27" y="-148" on="1"/>
        <pt x="100" y="-213" on="0"/>
        <pt x="100" y="-336" on="1"/>
        <pt x="100" y="-488" on="0"/>
        <pt x="-10" y="-594" on="1"/>
        <pt x="-120" y="-700" on="0"/>
        <pt x="-200" y="-700" on="1"/>
        <pt x="-266" y="-700" on="0"/>
        <pt x="-341" y="-651" on="1"/>
        <pt x="-415" y="-602" on="1"/>
        <pt x="-486" y="-700" on="0"/>
        <pt x="-563" y="-700" on="1"/>
        <pt x="-743" y="-700" on="0"/>
        <pt x="-871" y="-610" on="1"/>
        <pt x="-999" y="-522" on="0"/>
        <pt x="-999" y="-393" on="1"/>
        <pt x="-985" y="-375" on="0"/>
        <pt x="-962" y="-375" on="1"/>
        <pt x="-838" y="-375" on="0"/>
        <pt x="-684" y="-333" on="0"/>
        <pt x="-684" y="-299" on="1"/>
        <pt x="-684" y="-265" on="0"/>
        <pt x="-775" y="-252" on="1"/>
        <pt x="-798" y="-249" on="0"/>
        <pt x="-823" y="-249" on="1"/>
        <pt x="-899" y="-249" on="0"/>
        <pt x="-999" y="-278" on="1"/>
      </contour>
    </TTGlyph>
    <TTGlyph name="glyph219" xMin="-1001" yMin="-700" xMax="100" yMax="-50">
      <contour>
        <pt x="-83" y="-450" on="1"/>
        <pt x="-83" y="-479" on="0"/>
        <pt x="-10" y="-503" on="1"/>
        <pt x="-10" y="-406" on="1"/>
      </contour>
      <contour>
        <pt x="-204" y="-260" on="0"/>
        <pt x="-308" y="-260" on="1"/>
        <pt x="-411" y="-260" on="0"/>
        <pt x="-522" y="-328" on="1"/>
        <pt x="-678" y="-261" on="0"/>
        <pt x="-748" y="-260" on="1"/>
        <pt x="-818" y="-260" on="0"/>
        <pt x="-891" y="-310" on="0"/>
        <pt x="-891" y="-375" on="1"/>
        <pt x="-891" y="-428" on="0"/>
        <pt x="-854" y="-503" on="0"/>
        <pt x="-817" y="-503" on="1"/>
        <pt x="-830" y="-480" on="0"/>
        <pt x="-830" y="-456" on="1"/>
        <pt x="-830" y="-438" on="0"/>
        <pt x="-822" y="-419" on="1"/>
        <pt x="-805" y="-376" on="0"/>
        <pt x="-740" y="-368" on="1"/>
        <pt x="-730" y="-367" on="0"/>
        <pt x="-720" y="-367" on="1"/>
        <pt x="-667" y="-367" on="0"/>
        <pt x="-618" y="-402" on="1"/>
        <pt x="-560" y="-444" on="0"/>
        <pt x="-560" y="-526" on="1"/>
        <pt x="-560" y="-608" on="0"/>
        <pt x="-665" y="-700" on="0"/>
        <pt x="-744" y="-700" on="1"/>
        <pt x="-872" y="-700" on="0"/>
        <pt x="-1000" y="-548" on="0"/>
        <pt x="-1001" y="-397" on="1"/>
        <pt x="-1001" y="-332" on="1"/>
        <pt x="-1001" y="-223" on="0"/>
        <pt x="-870" y="-136" on="1"/>
        <pt x="-738" y="-50" on="1"/>
        <pt x="-559" y="-80" on="0"/>
        <pt x="-450" y="-157" on="1"/>
        <pt x="-364" y="-71" on="0"/>
        <pt x="-266" y="-50" on="1"/>
        <pt x="-168" y="-58" on="0"/>
        <pt x="100" y="-152" on="0"/>
        <pt x="100" y="-200" on="1"/>
        <pt x="100" y="-549" on="1"/>
        <pt x="100" y="-613" on="0"/>
        <pt x="28" y="-683" on="0"/>
        <pt x="-46" y="-700" on="1"/>
        <pt x="-100" y="-700" on="0"/>
        <pt x="-304" y="-591" on="0"/>
        <pt x="-304" y="-489" on="1"/>
        <pt x="-274" y="-462" on="0"/>
        <pt x="-208" y="-429" on="1"/>
        <pt x="-76" y="-364" on="1"/>
        <pt x="-10" y="-332" on="1"/>
      </contour>
    </TTGlyph>
    <TTGlyph name="glyph220" xMin="-1001" yMin="-701" xMax="100" yMax="-50">
      <contour>
        <pt x="-65" y="-431" on="1"/>
        <pt x="-49" y="-455" on="0"/>
        <pt x="-10" y="-461" on="1"/>
        <pt x="-10" y="-396" on="1"/>
      </contour>
      <contour>
        <pt x="-1001" y="-373" on="1"/>
        <pt x="-1001" y="-227" on="0"/>
        <pt x="-854" y="-139" on="1"/>
        <pt x="-708" y="-50" on="0"/>
        <pt x="-432" y="-50" on="1"/>
        <pt x="-156" y="-50" on="0"/>
        <pt x="100" y="-149" on="0"/>
        <pt x="100" y="-215" on="1"/>
        <pt x="100" y="-474" on="1"/>
        <pt x="100" y="-571" on="0"/>
        <pt x="63" y="-627" on="1"/>
        <pt x="27" y="-684" on="0"/>
        <pt x="-46" y="-701" on="1"/>
        <pt x="-84" y="-700" on="0"/>
        <pt x="-267" y="-570" on="0"/>
        <pt x="-267" y="-469" on="1"/>
        <pt x="-254" y="-441" on="0"/>
        <pt x="-200" y="-409" on="1"/>
        <pt x="-38" y="-332" on="1"/>
        <pt x="-79" y="-312" on="0"/>
        <pt x="-156" y="-295" on="1"/>
        <pt x="-232" y="-279" on="0"/>
        <pt x="-421" y="-279" on="1"/>
        <pt x="-854" y="-279" on="0"/>
        <pt x="-854" y="-312" on="1"/>
        <pt x="-707" y="-328" on="0"/>
        <pt x="-633" y="-378" on="1"/>
        <pt x="-560" y="-428" on="0"/>
        <pt x="-560" y="-512" on="1"/>
        <pt x="-560" y="-606" on="0"/>
        <pt x="-615" y="-654" on="1"/>
        <pt x="-670" y="-700" on="0"/>
        <pt x="-780" y="-700" on="1"/>
        <pt x="-890" y="-700" on="0"/>
        <pt x="-945" y="-661" on="1"/>
        <pt x="-1000" y="-622" on="0"/>
        <pt x="-1000" y="-544" on="1"/>
        <pt x="-1000" y="-477" on="0"/>
        <pt x="-956" y="-452" on="1"/>
        <pt x="-929" y="-436" on="0"/>
        <pt x="-887" y="-436" on="1"/>
        <pt x="-859" y="-436" on="0"/>
        <pt x="-825" y="-443" on="1"/>
        <pt x="-854" y="-449" on="0"/>
        <pt x="-854" y="-478" on="1"/>
        <pt x="-854" y="-505" on="0"/>
        <pt x="-784" y="-505" on="1"/>
        <pt x="-714" y="-505" on="0"/>
        <pt x="-714" y="-474" on="1"/>
        <pt x="-714" y="-412" on="0"/>
        <pt x="-839" y="-403" on="1"/>
        <pt x="-874" y="-400" on="0"/>
        <pt x="-902" y="-400" on="1"/>
        <pt x="-974" y="-400" on="0"/>
        <pt x="-1001" y="-417" on="1"/>
      </contour>
    </TTGlyph>
    <TTGlyph name="glyph221" xMin="-1200" yMin="-698" xMax="250" yMax="-50">
      <contour>
        <pt x="100" y="-233" on="1"/>
        <pt x="50" y="-233" on="0"/>
        <pt x="25" y="-252" on="1"/>
        <pt x="0" y="-271" on="0"/>
        <pt x="0" y="-309" on="1"/>
        <pt x="50" y="-309" on="1"/>
        <pt x="150" y="-309" on="0"/>
        <pt x="200" y="-358" on="1"/>
        <pt x="250" y="-406" on="0"/>
        <pt x="250" y="-504" on="1"/>
        <pt x="250" y="-601" on="0"/>
        <pt x="200" y="-649" on="1"/>
        <pt x="150" y="-698" on="0"/>
        <pt x="50" y="-698" on="1"/>
        <pt x="-25" y="-698" on="0"/>
        <pt x="-62" y="-650" on="1"/>
        <pt x="-100" y="-601" on="0"/>
        <pt x="-100" y="-504" on="1"/>
        <pt x="-100" y="-396" on="1"/>
        <pt x="-175" y="-396" on="0"/>
        <pt x="-212" y="-439" on="1"/>
        <pt x="-250" y="-482" on="0"/>
        <pt x="-250" y="-568" on="1"/>
        <pt x="-250" y="-570" on="1"/>
        <pt x="-250" y="-698" on="0"/>
        <pt x="-400" y="-698" on="1"/>
        <pt x="-450" y="-698" on="1"/>
        <pt x="-550" y="-698" on="0"/>
        <pt x="-700" y="-568" on="1"/>
        <pt x="-775" y="-504" on="0"/>
        <pt x="-900" y="-471" on="1"/>
        <pt x="-1025" y="-439" on="0"/>
        <pt x="-1200" y="-439" on="1"/>
        <pt x="-1200" y="-350" on="0"/>
        <pt x="-1000" y="-350" on="1"/>
        <pt x="-799" y="-350" on="0"/>
        <pt x="-650" y="-423" on="1"/>
        <pt x="-502" y="-496" on="0"/>
        <pt x="-426" y="-496" on="1"/>
        <pt x="-350" y="-495" on="0"/>
        <pt x="-300" y="-402" on="1"/>
        <pt x="-251" y="-309" on="0"/>
        <pt x="-100" y="-309" on="1"/>
        <pt x="-100" y="-180" on="0"/>
        <pt x="-50" y="-115" on="1"/>
        <pt x="0" y="-50" on="0"/>
        <pt x="100" y="-50" on="1"/>
      </contour>
      <contour>
        <pt x="49" y="-592" on="1"/>
        <pt x="99" y="-592" on="0"/>
        <pt x="99" y="-504" on="1"/>
        <pt x="99" y="-396" on="0"/>
        <pt x="50" y="-396" on="1"/>
        <pt x="0" y="-396" on="1"/>
        <pt x="0" y="-504" on="1"/>
        <pt x="0" y="-592" on="0"/>
      </contour>
    </TTGlyph>
    <TTGlyph name="glyph222" xMin="-1200" yMin="-700" xMax="100" yMax="-50">
      <contour>
        <pt x="100" y="-300" on="1"/>
        <pt x="100" y="-500" on="0"/>
        <pt x="-12" y="-600" on="1"/>
        <pt x="-124" y="-700" on="0"/>
        <pt x="-348" y="-700" on="1"/>
        <pt x="-524" y="-700" on="0"/>
        <pt x="-615" y="-638" on="1"/>
        <pt x="-706" y="-575" on="0"/>
        <pt x="-713" y="-450" on="1"/>
        <pt x="-542" y="-350" on="1"/>
        <pt x="-562" y="-300" on="0"/>
        <pt x="-618" y="-275" on="1"/>
        <pt x="-674" y="-250" on="0"/>
        <pt x="-767" y="-250" on="1"/>
        <pt x="-935" y="-250" on="0"/>
        <pt x="-1019" y="-300" on="1"/>
        <pt x="-1104" y="-350" on="0"/>
        <pt x="-1104" y="-450" on="1"/>
        <pt x="-1104" y="-520" on="0"/>
        <pt x="-1078" y="-555" on="1"/>
        <pt x="-1051" y="-590" on="0"/>
        <pt x="-998" y="-590" on="1"/>
        <pt x="-960" y="-590" on="0"/>
        <pt x="-960" y="-550" on="1"/>
        <pt x="-1005" y="-550" on="0"/>
        <pt x="-1028" y="-525" on="1"/>
        <pt x="-1050" y="-500" on="0"/>
        <pt x="-1050" y="-450" on="1"/>
        <pt x="-1050" y="-447" on="1"/>
        <pt x="-1050" y="-399" on="0"/>
        <pt x="-1021" y="-375" on="1"/>
        <pt x="-990" y="-350" on="0"/>
        <pt x="-930" y="-350" on="1"/>
        <pt x="-865" y="-350" on="0"/>
        <pt x="-832" y="-386" on="1"/>
        <pt x="-800" y="-422" on="0"/>
        <pt x="-800" y="-495" on="1"/>
        <pt x="-800" y="-598" on="0"/>
        <pt x="-850" y="-649" on="1"/>
        <pt x="-899" y="-700" on="0"/>
        <pt x="-998" y="-700" on="1"/>
        <pt x="-1099" y="-700" on="0"/>
        <pt x="-1150" y="-638" on="1"/>
        <pt x="-1200" y="-575" on="0"/>
        <pt x="-1200" y="-450" on="1"/>
        <pt x="-1200" y="-250" on="0"/>
        <pt x="-1092" y="-150" on="1"/>
        <pt x="-984" y="-50" on="0"/>
        <pt x="-767" y="-50" on="1"/>
        <pt x="-619" y="-50" on="0"/>
        <pt x="-511" y="-100" on="1"/>
        <pt x="-402" y="-150" on="0"/>
        <pt x="-334" y="-250" on="1"/>
        <pt x="-334" y="-350" on="0"/>
        <pt x="-499" y="-450" on="1"/>
        <pt x="-499" y="-500" on="0"/>
        <pt x="-348" y="-500" on="1"/>
        <pt x="-208" y="-500" on="0"/>
        <pt x="-104" y="-440" on="1"/>
        <pt x="0" y="-382" on="0"/>
        <pt x="0" y="-56" on="1"/>
        <pt x="0" y="-50" on="1"/>
        <pt x="50" y="-100" on="0"/>
        <pt x="75" y="-163" on="1"/>
        <pt x="100" y="-225" on="0"/>
      </contour>
    </TTGlyph>
    <TTGlyph name="glyph223" xMin="-1050" yMin="-703" xMax="100" yMax="0">
      <contour>
        <pt x="100" y="-48" on="1"/>
        <pt x="100" y="-256" on="0"/>
        <pt x="-73" y="-479" on="1"/>
        <pt x="-247" y="-703" on="0"/>
        <pt x="-545" y="-703" on="1"/>
        <pt x="-762" y="-703" on="0"/>
        <pt x="-901" y="-611" on="1"/>
        <pt x="-1049" y="-510" on="0"/>
        <pt x="-1050" y="-395" on="1"/>
        <pt x="-1050" y="-328" on="0"/>
        <pt x="-858" y="-311" on="1"/>
        <pt x="-667" y="-293" on="0"/>
        <pt x="-379" y="-211" on="1"/>
        <pt x="-92" y="-128" on="0"/>
        <pt x="100" y="0" on="1"/>
      </contour>
      <contour>
        <pt x="-54" y="-222" on="1"/>
        <pt x="-169" y="-265" on="0"/>
        <pt x="-370" y="-323" on="1"/>
        <pt x="-571" y="-381" on="0"/>
        <pt x="-858" y="-415" on="1"/>
        <pt x="-857" y="-455" on="0"/>
        <pt x="-741" y="-479" on="1"/>
        <pt x="-625" y="-503" on="0"/>
        <pt x="-545" y="-503" on="1"/>
        <pt x="-390" y="-503" on="0"/>
        <pt x="-237" y="-400" on="1"/>
        <pt x="-84" y="-297" on="0"/>
      </contour>
    </TTGlyph>
    <TTGlyph name="glyph224" xMin="-1268" yMin="-701" xMax="332" yMax="-49">
      <contour>
        <pt x="155" y="-437" on="1"/>
        <pt x="155" y="-452" on="0"/>
        <pt x="225" y="-478" on="1"/>
        <pt x="225" y="-413" on="1"/>
      </contour>
      <contour>
        <pt x="-1268" y="-49" on="1"/>
        <pt x="-1146" y="-49" on="1"/>
        <pt x="-841" y="-49" on="0"/>
        <pt x="-841" y="-256" on="1"/>
        <pt x="-841" y="-373" on="0"/>
        <pt x="-976" y="-431" on="1"/>
        <pt x="-927" y="-480" on="0"/>
        <pt x="-764" y="-544" on="0"/>
        <pt x="-628" y="-544" on="1"/>
        <pt x="-482" y="-544" on="0"/>
        <pt x="-322" y="-485" on="0"/>
        <pt x="-322" y="-461" on="1"/>
        <pt x="-322" y="-431" on="0"/>
        <pt x="-539" y="-431" on="1"/>
        <pt x="-628" y="-431" on="1"/>
        <pt x="-628" y="-113" on="1"/>
        <pt x="-617" y="-125" on="1"/>
        <pt x="-615" y="-128" on="0"/>
        <pt x="-606" y="-128" on="1"/>
        <pt x="-576" y="-128" on="0"/>
        <pt x="-469" y="-93" on="1"/>
        <pt x="-331" y="-49" on="0"/>
        <pt x="-236" y="-49" on="1"/>
        <pt x="-66" y="-49" on="0"/>
        <pt x="332" y="-150" on="0"/>
        <pt x="332" y="-224" on="1"/>
        <pt x="332" y="-530" on="1"/>
        <pt x="332" y="-603" on="0"/>
        <pt x="261" y="-682" on="0"/>
        <pt x="190" y="-701" on="1"/>
        <pt x="126" y="-700" on="0"/>
        <pt x="-59" y="-578" on="0"/>
        <pt x="-59" y="-457" on="1"/>
        <pt x="-31" y="-431" on="0"/>
        <pt x="225" y="-348" on="0"/>
        <pt x="225" y="-321" on="1"/>
        <pt x="225" y="-294" on="0"/>
        <pt x="-159" y="-211" on="0"/>
        <pt x="-281" y="-211" on="1"/>
        <pt x="-404" y="-211" on="0"/>
        <pt x="-521" y="-260" on="1"/>
        <pt x="-485" y="-260" on="1"/>
        <pt x="-343" y="-260" on="0"/>
        <pt x="-273" y="-309" on="1"/>
        <pt x="-202" y="-358" on="0"/>
        <pt x="-202" y="-455" on="1"/>
        <pt x="-202" y="-541" on="0"/>
        <pt x="-344" y="-621" on="1"/>
        <pt x="-486" y="-701" on="0"/>
        <pt x="-728" y="-701" on="1"/>
        <pt x="-991" y="-701" on="0"/>
        <pt x="-1268" y="-546" on="0"/>
        <pt x="-1268" y="-422" on="1"/>
        <pt x="-1254" y="-407" on="0"/>
        <pt x="-1232" y="-407" on="1"/>
        <pt x="-1097" y="-407" on="0"/>
        <pt x="-955" y="-331" on="0"/>
        <pt x="-955" y="-293" on="1"/>
        <pt x="-955" y="-255" on="0"/>
        <pt x="-1268" y="-255" on="1"/>
      </contour>
    </TTGlyph>
    <TTGlyph name="glyph225" xMin="-999" yMin="-701" xMax="100" yMax="-50">
      <contour>
        <pt x="-64" y="-430" on="1"/>
        <pt x="-48" y="-455" on="0"/>
        <pt x="-10" y="-460" on="1"/>
        <pt x="-10" y="-395" on="1"/>
      </contour>
      <contour>
        <pt x="-755" y="-430" on="1"/>
        <pt x="-736" y="-455" on="0"/>
        <pt x="-669" y="-460" on="1"/>
        <pt x="-669" y="-395" on="1"/>
      </contour>
      <contour>
        <pt x="-534" y="-205" on="1"/>
        <pt x="-447" y="-273" on="0"/>
        <pt x="-369" y="-286" on="1"/>
        <pt x="-331" y="-293" on="0"/>
        <pt x="-288" y="-293" on="1"/>
        <pt x="-243" y="-293" on="0"/>
        <pt x="-193" y="-286" on="1"/>
        <pt x="-227" y="-353" on="0"/>
        <pt x="-321" y="-386" on="1"/>
        <pt x="-368" y="-402" on="0"/>
        <pt x="-427" y="-402" on="1"/>
        <pt x="-484" y="-402" on="0"/>
        <pt x="-551" y="-387" on="1"/>
        <pt x="-523" y="-345" on="0"/>
        <pt x="-523" y="-286" on="1"/>
        <pt x="-523" y="-249" on="0"/>
      </contour>
      <contour>
        <pt x="-999" y="-50" on="1"/>
        <pt x="-913" y="-51" on="1"/>
        <pt x="-848" y="-51" on="1"/>
        <pt x="-784" y="-51" on="0"/>
        <pt x="-672" y="-92" on="1"/>
        <pt x="-560" y="-135" on="0"/>
        <pt x="-560" y="-213" on="1"/>
        <pt x="-560" y="-473" on="1"/>
        <pt x="-560" y="-570" on="0"/>
        <pt x="-607" y="-628" on="1"/>
        <pt x="-655" y="-684" on="0"/>
        <pt x="-741" y="-701" on="1"/>
        <pt x="-810" y="-700" on="0"/>
        <pt x="-998" y="-570" on="0"/>
        <pt x="-999" y="-436" on="1"/>
        <pt x="-899" y="-400" on="0"/>
        <pt x="-669" y="-316" on="1"/>
        <pt x="-742" y="-298" on="0"/>
        <pt x="-817" y="-288" on="1"/>
        <pt x="-893" y="-278" on="0"/>
        <pt x="-999" y="-278" on="1"/>
      </contour>
      <contour>
        <pt x="-267" y="-50" on="1"/>
        <pt x="-193" y="-51" on="1"/>
        <pt x="-83" y="-51" on="0"/>
        <pt x="9" y="-92" on="1"/>
        <pt x="100" y="-135" on="0"/>
        <pt x="100" y="-213" on="1"/>
        <pt x="100" y="-473" on="1"/>
        <pt x="100" y="-570" on="0"/>
        <pt x="63" y="-627" on="1"/>
        <pt x="27" y="-684" on="0"/>
        <pt x="-46" y="-701" on="1"/>
        <pt x="-105" y="-700" on="0"/>
        <pt x="-266" y="-570" on="0"/>
        <pt x="-267" y="-446" on="1"/>
        <pt x="-182" y="-400" on="0"/>
        <pt x="-95" y="-358" on="1"/>
        <pt x="-9" y="-316" on="1"/>
        <pt x="-47" y="-298" on="0"/>
        <pt x="-111" y="-288" on="1"/>
        <pt x="-176" y="-278" on="0"/>
        <pt x="-267" y="-278" on="1"/>
      </contour>
    </TTGlyph>
    <TTGlyph name="glyph226" xMin="-2275" yMin="-702" xMax="-1124" yMax="-50">
      <contour>
        <pt x="-1289" y="-431" on="1"/>
        <pt x="-1273" y="-456" on="0"/>
        <pt x="-1234" y="-461" on="1"/>
        <pt x="-1234" y="-396" on="1"/>
      </contour>
      <contour>
        <pt x="-1875" y="-226" on="1"/>
        <pt x="-1765" y="-50" on="0"/>
        <pt x="-1552" y="-50" on="1"/>
        <pt x="-1551" y="-50" on="0"/>
        <pt x="-1550" y="-51" on="1"/>
        <pt x="-1380" y="-51" on="0"/>
        <pt x="-1124" y="-149" on="0"/>
        <pt x="-1124" y="-215" on="1"/>
        <pt x="-1124" y="-474" on="1"/>
        <pt x="-1124" y="-572" on="0"/>
        <pt x="-1161" y="-628" on="1"/>
        <pt x="-1197" y="-685" on="0"/>
        <pt x="-1270" y="-702" on="1"/>
        <pt x="-1321" y="-702" on="0"/>
        <pt x="-1405" y="-636" on="1"/>
        <pt x="-1484" y="-575" on="0"/>
        <pt x="-1484" y="-515" on="1"/>
        <pt x="-1484" y="-506" on="1"/>
        <pt x="-1478" y="-442" on="0"/>
        <pt x="-1424" y="-409" on="1"/>
        <pt x="-1262" y="-333" on="1"/>
        <pt x="-1303" y="-313" on="0"/>
        <pt x="-1380" y="-296" on="1"/>
        <pt x="-1456" y="-280" on="0"/>
        <pt x="-1585" y="-280" on="1"/>
        <pt x="-1805" y="-280" on="0"/>
        <pt x="-1875" y="-380" on="1"/>
        <pt x="-1875" y="-454" on="1"/>
        <pt x="-1875" y="-577" on="0"/>
        <pt x="-1913" y="-638" on="1"/>
        <pt x="-1950" y="-700" on="0"/>
        <pt x="-2025" y="-700" on="1"/>
        <pt x="-2125" y="-700" on="0"/>
        <pt x="-2205" y="-612" on="1"/>
        <pt x="-2275" y="-524" on="0"/>
        <pt x="-2275" y="-435" on="1"/>
        <pt x="-2225" y="-500" on="0"/>
        <pt x="-2125" y="-500" on="1"/>
        <pt x="-2050" y="-500" on="0"/>
        <pt x="-2013" y="-483" on="1"/>
        <pt x="-1975" y="-466" on="0"/>
        <pt x="-1975" y="-431" on="1"/>
        <pt x="-1975" y="-391" on="1"/>
        <pt x="-1975" y="-331" on="0"/>
        <pt x="-2025" y="-331" on="1"/>
        <pt x="-2075" y="-331" on="0"/>
        <pt x="-2075" y="-411" on="1"/>
        <pt x="-2150" y="-411" on="0"/>
        <pt x="-2187" y="-374" on="1"/>
        <pt x="-2225" y="-336" on="0"/>
        <pt x="-2225" y="-261" on="1"/>
        <pt x="-2225" y="-181" on="0"/>
        <pt x="-2180" y="-141" on="1"/>
        <pt x="-2135" y="-101" on="0"/>
        <pt x="-2045" y="-101" on="1"/>
        <pt x="-1960" y="-101" on="0"/>
        <pt x="-1917" y="-132" on="1"/>
        <pt x="-1875" y="-164" on="0"/>
      </contour>
    </TTGlyph>
    <TTGlyph name="glyph227" xMin="-2250" yMin="-700" xMax="-1150" yMax="-50">
      <contour>
        <pt x="-2250" y="-252" on="1"/>
        <pt x="-2250" y="-184" on="0"/>
        <pt x="-2111" y="-117" on="1"/>
        <pt x="-1971" y="-50" on="0"/>
        <pt x="-1671" y="-50" on="1"/>
        <pt x="-1479" y="-50" on="0"/>
        <pt x="-1150" y="-167" on="0"/>
        <pt x="-1150" y="-210" on="1"/>
        <pt x="-1150" y="-263" on="0"/>
        <pt x="-1331" y="-353" on="1"/>
        <pt x="-1511" y="-442" on="0"/>
        <pt x="-1863" y="-477" on="1"/>
        <pt x="-1809" y="-498" on="0"/>
        <pt x="-1605" y="-498" on="1"/>
        <pt x="-1479" y="-498" on="0"/>
        <pt x="-1346" y="-454" on="1"/>
        <pt x="-1222" y="-407" on="0"/>
        <pt x="-1222" y="-370" on="1"/>
        <pt x="-1222" y="-367" on="0"/>
        <pt x="-1223" y="-363" on="1"/>
        <pt x="-1150" y="-388" on="0"/>
        <pt x="-1150" y="-448" on="1"/>
        <pt x="-1150" y="-534" on="0"/>
        <pt x="-1276" y="-617" on="1"/>
        <pt x="-1403" y="-700" on="0"/>
        <pt x="-1663" y="-700" on="1"/>
        <pt x="-1957" y="-700" on="0"/>
        <pt x="-2103" y="-635" on="1"/>
        <pt x="-2250" y="-570" on="0"/>
        <pt x="-2250" y="-502" on="1"/>
        <pt x="-2250" y="-435" on="0"/>
        <pt x="-1970" y="-423" on="0"/>
        <pt x="-1734" y="-388" on="1"/>
        <pt x="-1499" y="-353" on="0"/>
        <pt x="-1499" y="-299" on="1"/>
        <pt x="-1499" y="-253" on="0"/>
        <pt x="-1747" y="-250" on="1"/>
        <pt x="-1937" y="-250" on="0"/>
        <pt x="-1994" y="-274" on="1"/>
        <pt x="-2036" y="-292" on="0"/>
        <pt x="-2036" y="-312" on="1"/>
        <pt x="-2036" y="-319" on="0"/>
        <pt x="-2031" y="-327" on="1"/>
        <pt x="-2001" y="-356" on="1"/>
        <pt x="-2071" y="-380" on="0"/>
        <pt x="-2120" y="-380" on="1"/>
        <pt x="-2164" y="-380" on="0"/>
        <pt x="-2192" y="-360" on="1"/>
        <pt x="-2250" y="-318" on="0"/>
      </contour>
    </TTGlyph>
    <TTGlyph name="glyph228" xMin="-2250" yMin="-702" xMax="-1150" yMax="-52">
      <contour>
        <pt x="-1315" y="-431" on="1"/>
        <pt x="-1299" y="-456" on="0"/>
        <pt x="-1260" y="-461" on="1"/>
        <pt x="-1260" y="-396" on="1"/>
      </contour>
      <contour>
        <pt x="-2250" y="-435" on="1"/>
        <pt x="-2250" y="-247" on="0"/>
        <pt x="-2103" y="-150" on="1"/>
        <pt x="-1958" y="-52" on="0"/>
        <pt x="-1662" y="-52" on="1"/>
        <pt x="-1659" y="-52" on="0"/>
        <pt x="-1656" y="-53" on="1"/>
        <pt x="-1446" y="-53" on="0"/>
        <pt x="-1150" y="-149" on="0"/>
        <pt x="-1150" y="-215" on="1"/>
        <pt x="-1150" y="-474" on="1"/>
        <pt x="-1150" y="-572" on="0"/>
        <pt x="-1187" y="-628" on="1"/>
        <pt x="-1223" y="-685" on="0"/>
        <pt x="-1296" y="-702" on="1"/>
        <pt x="-1375" y="-702" on="0"/>
        <pt x="-1445" y="-636" on="1"/>
        <pt x="-1510" y="-576" on="0"/>
        <pt x="-1510" y="-517" on="1"/>
        <pt x="-1510" y="-506" on="1"/>
        <pt x="-1504" y="-442" on="0"/>
        <pt x="-1450" y="-409" on="1"/>
        <pt x="-1288" y="-333" on="1"/>
        <pt x="-1329" y="-313" on="0"/>
        <pt x="-1406" y="-296" on="1"/>
        <pt x="-1482" y="-280" on="0"/>
        <pt x="-1671" y="-280" on="1"/>
        <pt x="-1887" y="-280" on="0"/>
        <pt x="-1995" y="-341" on="1"/>
        <pt x="-2104" y="-403" on="0"/>
        <pt x="-2104" y="-455" on="1"/>
        <pt x="-2104" y="-481" on="0"/>
        <pt x="-2067" y="-492" on="1"/>
        <pt x="-2001" y="-407" on="0"/>
        <pt x="-1847" y="-344" on="0"/>
        <pt x="-1774" y="-344" on="1"/>
        <pt x="-1627" y="-344" on="0"/>
        <pt x="-1627" y="-458" on="1"/>
        <pt x="-1627" y="-571" on="0"/>
        <pt x="-1770" y="-571" on="1"/>
        <pt x="-1773" y="-571" on="1"/>
        <pt x="-1774" y="-470" on="0"/>
        <pt x="-1855" y="-470" on="1"/>
        <pt x="-1900" y="-470" on="0"/>
        <pt x="-1913" y="-520" on="1"/>
        <pt x="-1915" y="-528" on="0"/>
        <pt x="-1915" y="-534" on="1"/>
        <pt x="-1915" y="-571" on="0"/>
        <pt x="-1847" y="-571" on="1"/>
        <pt x="-1884" y="-701" on="0"/>
        <pt x="-1995" y="-701" on="1"/>
        <pt x="-2103" y="-701" on="0"/>
        <pt x="-2250" y="-574" on="0"/>
      </contour>
    </TTGlyph>
    <TTGlyph name="glyph229" xMin="-2247" yMin="-700" xMax="-1152" yMax="-50">
      <contour>
        <pt x="-2247" y="-380" on="1"/>
        <pt x="-2247" y="-265" on="0"/>
        <pt x="-2185" y="-208" on="1"/>
        <pt x="-2122" y="-150" on="0"/>
        <pt x="-1997" y="-150" on="1"/>
        <pt x="-1922" y="-150" on="0"/>
        <pt x="-1885" y="-185" on="1"/>
        <pt x="-1847" y="-220" on="0"/>
        <pt x="-1847" y="-290" on="1"/>
        <pt x="-1847" y="-345" on="0"/>
        <pt x="-1884" y="-372" on="1"/>
        <pt x="-1921" y="-400" on="0"/>
        <pt x="-1996" y="-400" on="1"/>
        <pt x="-1996" y="-310" on="0"/>
        <pt x="-2041" y="-310" on="1"/>
        <pt x="-2086" y="-310" on="0"/>
        <pt x="-2086" y="-355" on="1"/>
        <pt x="-2086" y="-402" on="0"/>
        <pt x="-2026" y="-426" on="1"/>
        <pt x="-1966" y="-450" on="0"/>
        <pt x="-1846" y="-450" on="1"/>
        <pt x="-1571" y="-450" on="0"/>
        <pt x="-1409" y="-350" on="1"/>
        <pt x="-1247" y="-250" on="0"/>
        <pt x="-1197" y="-50" on="1"/>
        <pt x="-1152" y="-50" on="0"/>
        <pt x="-1152" y="-118" on="1"/>
        <pt x="-1152" y="-126" on="0"/>
        <pt x="-1153" y="-136" on="1"/>
        <pt x="-1171" y="-394" on="0"/>
        <pt x="-1346" y="-547" on="1"/>
        <pt x="-1521" y="-700" on="0"/>
        <pt x="-1846" y="-700" on="1"/>
        <pt x="-2047" y="-700" on="0"/>
        <pt x="-2147" y="-620" on="1"/>
        <pt x="-2247" y="-540" on="0"/>
      </contour>
    </TTGlyph>
    <TTGlyph name="glyph230" xMin="-2299" yMin="-700" xMax="-849" yMax="-50">
      <contour>
        <pt x="-2299" y="-350" on="1"/>
        <pt x="-2198" y="-350" on="0"/>
        <pt x="-2073" y="-332" on="1"/>
        <pt x="-1949" y="-313" on="0"/>
        <pt x="-1949" y="-250" on="1"/>
        <pt x="-1949" y="-200" on="0"/>
        <pt x="-1973" y="-188" on="1"/>
        <pt x="-1982" y="-184" on="0"/>
        <pt x="-1994" y="-184" on="1"/>
        <pt x="-2016" y="-184" on="0"/>
        <pt x="-2049" y="-200" on="1"/>
        <pt x="-2049" y="-125" on="0"/>
        <pt x="-2011" y="-88" on="1"/>
        <pt x="-1974" y="-50" on="0"/>
        <pt x="-1899" y="-50" on="1"/>
        <pt x="-1824" y="-50" on="0"/>
        <pt x="-1787" y="-82" on="1"/>
        <pt x="-1749" y="-115" on="0"/>
        <pt x="-1749" y="-180" on="1"/>
        <pt x="-1749" y="-256" on="0"/>
        <pt x="-1811" y="-311" on="1"/>
        <pt x="-1873" y="-366" on="0"/>
        <pt x="-1998" y="-400" on="1"/>
        <pt x="-1998" y="-450" on="0"/>
        <pt x="-1779" y="-450" on="1"/>
        <pt x="-1443" y="-450" on="0"/>
        <pt x="-1404" y="-386" on="1"/>
        <pt x="-1501" y="-370" on="0"/>
        <pt x="-1550" y="-328" on="1"/>
        <pt x="-1599" y="-287" on="0"/>
        <pt x="-1599" y="-220" on="1"/>
        <pt x="-1599" y="-135" on="0"/>
        <pt x="-1549" y="-92" on="1"/>
        <pt x="-1499" y="-50" on="0"/>
        <pt x="-1399" y="-50" on="1"/>
        <pt x="-1299" y="-50" on="0"/>
        <pt x="-1249" y="-100" on="1"/>
        <pt x="-1199" y="-150" on="0"/>
        <pt x="-1199" y="-250" on="1"/>
        <pt x="-1203" y="-292" on="0"/>
        <pt x="-1208" y="-320" on="1"/>
        <pt x="-1192" y="-320" on="1"/>
        <pt x="-1021" y="-335" on="0"/>
        <pt x="-935" y="-375" on="1"/>
        <pt x="-849" y="-415" on="0"/>
        <pt x="-849" y="-480" on="1"/>
        <pt x="-849" y="-540" on="0"/>
        <pt x="-911" y="-570" on="1"/>
        <pt x="-974" y="-600" on="0"/>
        <pt x="-1099" y="-600" on="1"/>
        <pt x="-1049" y="-550" on="0"/>
        <pt x="-1049" y="-500" on="1"/>
        <pt x="-1049" y="-440" on="0"/>
        <pt x="-1233" y="-416" on="1"/>
        <pt x="-1285" y="-558" on="0"/>
        <pt x="-1421" y="-628" on="1"/>
        <pt x="-1557" y="-700" on="0"/>
        <pt x="-1778" y="-700" on="1"/>
        <pt x="-2039" y="-700" on="0"/>
        <pt x="-2169" y="-613" on="1"/>
        <pt x="-2299" y="-526" on="0"/>
      </contour>
      <contour>
        <pt x="-1366" y="-300" on="1"/>
        <pt x="-1359" y="-280" on="0"/>
        <pt x="-1359" y="-256" on="1"/>
        <pt x="-1359" y="-250" on="1"/>
        <pt x="-1359" y="-200" on="0"/>
        <pt x="-1399" y="-200" on="1"/>
        <pt x="-1449" y="-200" on="0"/>
        <pt x="-1449" y="-240" on="1"/>
        <pt x="-1449" y="-280" on="0"/>
      </contour>
    </TTGlyph>
    <TTGlyph name="glyph231" xMin="-2249" yMin="-701" xMax="-1150" yMax="-50">
      <contour>
        <pt x="-2005" y="-422" on="1"/>
        <pt x="-1986" y="-466" on="0"/>
        <pt x="-1919" y="-471" on="1"/>
        <pt x="-1919" y="-422" on="1"/>
      </contour>
      <contour>
        <pt x="-1480" y="-700" on="1"/>
        <pt x="-1609" y="-700" on="0"/>
        <pt x="-1701" y="-581" on="0"/>
        <pt x="-1726" y="-501" on="1"/>
        <pt x="-1751" y="-422" on="0"/>
        <pt x="-1809" y="-422" on="1"/>
        <pt x="-1809" y="-484" on="1"/>
        <pt x="-1809" y="-577" on="0"/>
        <pt x="-1857" y="-631" on="1"/>
        <pt x="-1905" y="-685" on="0"/>
        <pt x="-1991" y="-701" on="1"/>
        <pt x="-2052" y="-701" on="0"/>
        <pt x="-2248" y="-576" on="0"/>
        <pt x="-2249" y="-391" on="1"/>
        <pt x="-2249" y="-329" on="0"/>
        <pt x="-2102" y="-329" on="1"/>
        <pt x="-1919" y="-329" on="1"/>
        <pt x="-1955" y="-267" on="0"/>
        <pt x="-2097" y="-267" on="1"/>
        <pt x="-2216" y="-267" on="0"/>
        <pt x="-2249" y="-298" on="1"/>
        <pt x="-2249" y="-50" on="1"/>
        <pt x="-2163" y="-51" on="1"/>
        <pt x="-2034" y="-51" on="0"/>
        <pt x="-1809" y="-120" on="0"/>
        <pt x="-1809" y="-195" on="1"/>
        <pt x="-1809" y="-329" on="1"/>
        <pt x="-1743" y="-329" on="0"/>
        <pt x="-1642" y="-394" on="0"/>
        <pt x="-1606" y="-459" on="1"/>
        <pt x="-1582" y="-502" on="0"/>
        <pt x="-1481" y="-502" on="1"/>
        <pt x="-1373" y="-502" on="0"/>
        <pt x="-1317" y="-453" on="1"/>
        <pt x="-1260" y="-403" on="0"/>
        <pt x="-1260" y="-329" on="1"/>
        <pt x="-1260" y="-267" on="0"/>
        <pt x="-1297" y="-267" on="1"/>
        <pt x="-1333" y="-267" on="0"/>
        <pt x="-1333" y="-283" on="1"/>
        <pt x="-1333" y="-298" on="0"/>
        <pt x="-1297" y="-298" on="1"/>
        <pt x="-1333" y="-391" on="0"/>
        <pt x="-1410" y="-391" on="1"/>
        <pt x="-1500" y="-391" on="0"/>
        <pt x="-1545" y="-353" on="1"/>
        <pt x="-1590" y="-314" on="0"/>
        <pt x="-1590" y="-236" on="1"/>
        <pt x="-1590" y="-159" on="0"/>
        <pt x="-1535" y="-120" on="1"/>
        <pt x="-1480" y="-82" on="0"/>
        <pt x="-1370" y="-82" on="1"/>
        <pt x="-1296" y="-82" on="0"/>
        <pt x="-1223" y="-143" on="1"/>
        <pt x="-1150" y="-205" on="0"/>
        <pt x="-1150" y="-328" on="1"/>
        <pt x="-1150" y="-499" on="0"/>
        <pt x="-1245" y="-600" on="1"/>
        <pt x="-1340" y="-700" on="0"/>
      </contour>
    </TTGlyph>
    <TTGlyph name="glyph232" xMin="-2249" yMin="-701" xMax="-1150" yMax="-51">
      <contour>
        <pt x="-2249" y="-51" on="1"/>
        <pt x="-2139" y="-51" on="1"/>
        <pt x="-1944" y="-51" on="0"/>
        <pt x="-1861" y="-108" on="1"/>
        <pt x="-1779" y="-165" on="0"/>
        <pt x="-1779" y="-246" on="1"/>
        <pt x="-1779" y="-366" on="0"/>
        <pt x="-1872" y="-415" on="1"/>
        <pt x="-1790" y="-453" on="0"/>
        <pt x="-1572" y="-453" on="1"/>
        <pt x="-1420" y="-453" on="0"/>
        <pt x="-1314" y="-385" on="1"/>
        <pt x="-1209" y="-307" on="0"/>
        <pt x="-1150" y="-150" on="1"/>
        <pt x="-1150" y="-441" on="0"/>
        <pt x="-1280" y="-571" on="1"/>
        <pt x="-1410" y="-701" on="0"/>
        <pt x="-1670" y="-701" on="1"/>
        <pt x="-1993" y="-701" on="0"/>
        <pt x="-2121" y="-611" on="1"/>
        <pt x="-2249" y="-522" on="0"/>
        <pt x="-2249" y="-406" on="1"/>
        <pt x="-2235" y="-376" on="0"/>
        <pt x="-2212" y="-376" on="1"/>
        <pt x="-2088" y="-376" on="0"/>
        <pt x="-2011" y="-355" on="1"/>
        <pt x="-1934" y="-334" on="0"/>
        <pt x="-1934" y="-305" on="1"/>
        <pt x="-1934" y="-275" on="0"/>
        <pt x="-2025" y="-272" on="1"/>
        <pt x="-2042" y="-272" on="1"/>
        <pt x="-2128" y="-272" on="0"/>
        <pt x="-2249" y="-298" on="1"/>
      </contour>
    </TTGlyph>
    <TTGlyph name="glyph233" xMin="-2450" yMin="-650" xMax="-950" yMax="-50">
      <contour>
        <pt x="-950" y="-310" on="1"/>
        <pt x="-950" y="-480" on="0"/>
        <pt x="-1053" y="-565" on="1"/>
        <pt x="-1156" y="-650" on="0"/>
        <pt x="-1362" y="-650" on="1"/>
        <pt x="-1655" y="-650" on="0"/>
        <pt x="-1835" y="-550" on="1"/>
        <pt x="-2016" y="-450" on="0"/>
        <pt x="-2170" y="-450" on="1"/>
        <pt x="-2293" y="-450" on="0"/>
        <pt x="-2450" y="-550" on="1"/>
        <pt x="-2403" y="-400" on="0"/>
        <pt x="-2305" y="-325" on="1"/>
        <pt x="-2207" y="-250" on="0"/>
        <pt x="-2058" y="-250" on="1"/>
        <pt x="-1841" y="-250" on="0"/>
        <pt x="-1635" y="-375" on="1"/>
        <pt x="-1428" y="-500" on="0"/>
        <pt x="-1222" y="-500" on="1"/>
        <pt x="-1153" y="-500" on="0"/>
        <pt x="-1118" y="-462" on="1"/>
        <pt x="-1083" y="-425" on="0"/>
        <pt x="-1083" y="-350" on="1"/>
        <pt x="-1083" y="-250" on="0"/>
        <pt x="-1141" y="-250" on="1"/>
        <pt x="-1202" y="-250" on="0"/>
        <pt x="-1202" y="-350" on="1"/>
        <pt x="-1302" y="-350" on="0"/>
        <pt x="-1352" y="-312" on="1"/>
        <pt x="-1402" y="-275" on="0"/>
        <pt x="-1402" y="-200" on="1"/>
        <pt x="-1402" y="-125" on="0"/>
        <pt x="-1351" y="-88" on="1"/>
        <pt x="-1299" y="-50" on="0"/>
        <pt x="-1197" y="-50" on="1"/>
        <pt x="-1073" y="-50" on="0"/>
        <pt x="-1012" y="-115" on="1"/>
        <pt x="-950" y="-180" on="0"/>
      </contour>
    </TTGlyph>
    <TTGlyph name="glyph234" xMin="-2250" yMin="-701" xMax="-1150" yMax="-50">
      <contour>
        <pt x="-1315" y="-431" on="1"/>
        <pt x="-1298" y="-456" on="0"/>
        <pt x="-1260" y="-461" on="1"/>
        <pt x="-1260" y="-396" on="1"/>
      </contour>
      <contour>
        <pt x="-2250" y="-409" on="1"/>
        <pt x="-2249" y="-247" on="0"/>
        <pt x="-1957" y="-50" on="0"/>
        <pt x="-1681" y="-50" on="1"/>
        <pt x="-1406" y="-50" on="0"/>
        <pt x="-1150" y="-149" on="0"/>
        <pt x="-1150" y="-215" on="1"/>
        <pt x="-1150" y="-474" on="1"/>
        <pt x="-1150" y="-571" on="0"/>
        <pt x="-1187" y="-627" on="1"/>
        <pt x="-1223" y="-684" on="0"/>
        <pt x="-1296" y="-701" on="1"/>
        <pt x="-1348" y="-700" on="0"/>
        <pt x="-1432" y="-635" on="1"/>
        <pt x="-1510" y="-574" on="0"/>
        <pt x="-1510" y="-514" on="1"/>
        <pt x="-1510" y="-505" on="1"/>
        <pt x="-1504" y="-441" on="0"/>
        <pt x="-1449" y="-409" on="1"/>
        <pt x="-1287" y="-332" on="1"/>
        <pt x="-1329" y="-312" on="0"/>
        <pt x="-1406" y="-296" on="1"/>
        <pt x="-1482" y="-279" on="0"/>
        <pt x="-1671" y="-279" on="1"/>
        <pt x="-1898" y="-279" on="0"/>
        <pt x="-2125" y="-345" on="0"/>
        <pt x="-2125" y="-412" on="1"/>
        <pt x="-2125" y="-467" on="0"/>
        <pt x="-2048" y="-467" on="1"/>
        <pt x="-2060" y="-444" on="0"/>
        <pt x="-2060" y="-424" on="1"/>
        <pt x="-2060" y="-397" on="0"/>
        <pt x="-2035" y="-377" on="1"/>
        <pt x="-1993" y="-344" on="0"/>
        <pt x="-1920" y="-344" on="1"/>
        <pt x="-1847" y="-344" on="0"/>
        <pt x="-1792" y="-395" on="1"/>
        <pt x="-1737" y="-445" on="0"/>
        <pt x="-1737" y="-524" on="1"/>
        <pt x="-1737" y="-603" on="0"/>
        <pt x="-1815" y="-700" on="0"/>
        <pt x="-1943" y="-700" on="1"/>
        <pt x="-2067" y="-700" on="0"/>
        <pt x="-2158" y="-617" on="1"/>
        <pt x="-2250" y="-535" on="0"/>
      </contour>
    </TTGlyph>
    <TTGlyph name="glyph235" xMin="-2425" yMin="-700" xMax="-975" yMax="0">
      <contour>
        <pt x="-2425" y="-380" on="1"/>
        <pt x="-2324" y="-350" on="0"/>
        <pt x="-2212" y="-300" on="1"/>
        <pt x="-2319" y="-298" on="0"/>
        <pt x="-2372" y="-260" on="1"/>
        <pt x="-2425" y="-222" on="0"/>
        <pt x="-2425" y="-150" on="1"/>
        <pt x="-2425" y="-75" on="0"/>
        <pt x="-2375" y="-38" on="1"/>
        <pt x="-2325" y="0" on="0"/>
        <pt x="-2225" y="0" on="1"/>
        <pt x="-2125" y="0" on="0"/>
        <pt x="-2075" y="-50" on="1"/>
        <pt x="-2025" y="-100" on="0"/>
        <pt x="-2025" y="-200" on="1"/>
        <pt x="-1475" y="-200" on="1"/>
        <pt x="-1475" y="-100" on="1"/>
        <pt x="-1475" y="0" on="0"/>
        <pt x="-1375" y="0" on="1"/>
        <pt x="-1275" y="0" on="0"/>
        <pt x="-1275" y="-100" on="1"/>
        <pt x="-1275" y="-150" on="0"/>
        <pt x="-1325" y="-150" on="1"/>
        <pt x="-1372" y="-150" on="0"/>
        <pt x="-1375" y="-105" on="1"/>
        <pt x="-1375" y="-200" on="1"/>
        <pt x="-1225" y="-200" on="1"/>
        <pt x="-1025" y="-200" on="0"/>
        <pt x="-975" y="-250" on="1"/>
        <pt x="-975" y="-300" on="0"/>
        <pt x="-1175" y="-400" on="1"/>
        <pt x="-1175" y="-300" on="0"/>
        <pt x="-1225" y="-300" on="1"/>
        <pt x="-1358" y="-300" on="1"/>
        <pt x="-1333" y="-353" on="0"/>
        <pt x="-1275" y="-450" on="1"/>
        <pt x="-1299" y="-574" on="0"/>
        <pt x="-1387" y="-637" on="1"/>
        <pt x="-1475" y="-699" on="0"/>
        <pt x="-1625" y="-699" on="1"/>
        <pt x="-1627" y="-699" on="1"/>
        <pt x="-1676" y="-699" on="0"/>
        <pt x="-1750" y="-640" on="1"/>
        <pt x="-1825" y="-580" on="1"/>
        <pt x="-1895" y="-640" on="1"/>
        <pt x="-1964" y="-700" on="0"/>
        <pt x="-2024" y="-700" on="1"/>
        <pt x="-2335" y="-601" on="0"/>
      </contour>
      <contour>
        <pt x="-1425" y="-400" on="1"/>
        <pt x="-1461" y="-340" on="0"/>
        <pt x="-1474" y="-300" on="1"/>
        <pt x="-2045" y="-300" on="1"/>
        <pt x="-2070" y="-354" on="0"/>
        <pt x="-2144" y="-380" on="1"/>
        <pt x="-2104" y="-430" on="0"/>
        <pt x="-1974" y="-480" on="1"/>
        <pt x="-1924" y="-480" on="0"/>
        <pt x="-1744" y="-350" on="1"/>
        <pt x="-1585" y="-480" on="0"/>
        <pt x="-1535" y="-480" on="1"/>
        <pt x="-1474" y="-480" on="0"/>
      </contour>
      <contour>
        <pt x="-2325" y="-150" on="1"/>
        <pt x="-2325" y="-200" on="0"/>
        <pt x="-2200" y="-200" on="1"/>
        <pt x="-2155" y="-200" on="1"/>
        <pt x="-2156" y="-100" on="0"/>
        <pt x="-2225" y="-100" on="1"/>
        <pt x="-2325" y="-100" on="0"/>
      </contour>
    </TTGlyph>
    <TTGlyph name="glyph236" xMin="-2256" yMin="-741" xMax="-1144" yMax="-50">
      <contour>
        <pt x="-2256" y="-489" on="1"/>
        <pt x="-2213" y="-460" on="0"/>
        <pt x="-1982" y="-447" on="0"/>
        <pt x="-1374" y="-291" on="0"/>
        <pt x="-1374" y="-263" on="1"/>
        <pt x="-1461" y="-233" on="0"/>
        <pt x="-1556" y="-233" on="1"/>
        <pt x="-1661" y="-233" on="0"/>
        <pt x="-1772" y="-291" on="1"/>
        <pt x="-1930" y="-233" on="0"/>
        <pt x="-2001" y="-233" on="1"/>
        <pt x="-2076" y="-233" on="0"/>
        <pt x="-2086" y="-270" on="1"/>
        <pt x="-2086" y="-290" on="1"/>
        <pt x="-2086" y="-309" on="0"/>
        <pt x="-2055" y="-309" on="1"/>
        <pt x="-2025" y="-309" on="0"/>
        <pt x="-2017" y="-301" on="1"/>
        <pt x="-2014" y="-298" on="0"/>
        <pt x="-2014" y="-295" on="1"/>
        <pt x="-2014" y="-287" on="0"/>
        <pt x="-2042" y="-287" on="1"/>
        <pt x="-2042" y="-286" on="1"/>
        <pt x="-2042" y="-257" on="0"/>
        <pt x="-1979" y="-257" on="1"/>
        <pt x="-1848" y="-257" on="0"/>
        <pt x="-1848" y="-331" on="1"/>
        <pt x="-1848" y="-395" on="0"/>
        <pt x="-2033" y="-395" on="1"/>
        <pt x="-2139" y="-395" on="0"/>
        <pt x="-2197" y="-353" on="1"/>
        <pt x="-2256" y="-311" on="0"/>
        <pt x="-2256" y="-244" on="1"/>
        <pt x="-2256" y="-137" on="0"/>
        <pt x="-1991" y="-50" on="1"/>
        <pt x="-1810" y="-80" on="0"/>
        <pt x="-1700" y="-157" on="1"/>
        <pt x="-1613" y="-72" on="0"/>
        <pt x="-1514" y="-50" on="1"/>
        <pt x="-1415" y="-59" on="0"/>
        <pt x="-1144" y="-152" on="0"/>
        <pt x="-1144" y="-200" on="1"/>
        <pt x="-1144" y="-262" on="0"/>
        <pt x="-1209" y="-305" on="1"/>
        <pt x="-1274" y="-349" on="0"/>
        <pt x="-1469" y="-409" on="1"/>
        <pt x="-1663" y="-469" on="0"/>
        <pt x="-1883" y="-512" on="1"/>
        <pt x="-1869" y="-534" on="0"/>
        <pt x="-1780" y="-554" on="0"/>
        <pt x="-1667" y="-554" on="1"/>
        <pt x="-1573" y="-554" on="0"/>
        <pt x="-1439" y="-506" on="1"/>
        <pt x="-1305" y="-458" on="0"/>
        <pt x="-1255" y="-374" on="1"/>
        <pt x="-1144" y="-374" on="0"/>
        <pt x="-1144" y="-426" on="1"/>
        <pt x="-1144" y="-619" on="1"/>
        <pt x="-1145" y="-741" on="0"/>
        <pt x="-1274" y="-741" on="1"/>
        <pt x="-1404" y="-741" on="0"/>
        <pt x="-1404" y="-654" on="1"/>
        <pt x="-1256" y="-619" on="0"/>
        <pt x="-1255" y="-577" on="1"/>
        <pt x="-1255" y="-532" on="1"/>
        <pt x="-1329" y="-579" on="1"/>
        <pt x="-1515" y="-701" on="0"/>
        <pt x="-1834" y="-701" on="1"/>
        <pt x="-2019" y="-701" on="0"/>
        <pt x="-2256" y="-566" on="0"/>
      </contour>
    </TTGlyph>
    <TTGlyph name="glyph237" xMin="-2250" yMin="-701" xMax="-1150" yMax="-50">
      <contour>
        <pt x="-1315" y="-431" on="1"/>
        <pt x="-1298" y="-456" on="0"/>
        <pt x="-1260" y="-461" on="1"/>
        <pt x="-1260" y="-396" on="1"/>
      </contour>
      <contour>
        <pt x="-2250" y="-409" on="1"/>
        <pt x="-2249" y="-247" on="0"/>
        <pt x="-1957" y="-50" on="0"/>
        <pt x="-1681" y="-50" on="1"/>
        <pt x="-1406" y="-50" on="0"/>
        <pt x="-1150" y="-149" on="0"/>
        <pt x="-1150" y="-215" on="1"/>
        <pt x="-1150" y="-474" on="1"/>
        <pt x="-1150" y="-571" on="0"/>
        <pt x="-1187" y="-627" on="1"/>
        <pt x="-1223" y="-684" on="0"/>
        <pt x="-1296" y="-701" on="1"/>
        <pt x="-1348" y="-700" on="0"/>
        <pt x="-1432" y="-635" on="1"/>
        <pt x="-1510" y="-574" on="0"/>
        <pt x="-1510" y="-514" on="1"/>
        <pt x="-1510" y="-505" on="1"/>
        <pt x="-1504" y="-441" on="0"/>
        <pt x="-1449" y="-409" on="1"/>
        <pt x="-1287" y="-332" on="1"/>
        <pt x="-1329" y="-312" on="0"/>
        <pt x="-1406" y="-296" on="1"/>
        <pt x="-1482" y="-279" on="0"/>
        <pt x="-1671" y="-279" on="1"/>
        <pt x="-1898" y="-279" on="0"/>
        <pt x="-2125" y="-345" on="0"/>
        <pt x="-2125" y="-412" on="1"/>
        <pt x="-2125" y="-467" on="0"/>
        <pt x="-2048" y="-467" on="1"/>
        <pt x="-2060" y="-444" on="0"/>
        <pt x="-2060" y="-424" on="1"/>
        <pt x="-2060" y="-397" on="0"/>
        <pt x="-2035" y="-377" on="1"/>
        <pt x="-1993" y="-344" on="0"/>
        <pt x="-1920" y="-344" on="1"/>
        <pt x="-1847" y="-344" on="0"/>
        <pt x="-1792" y="-395" on="1"/>
        <pt x="-1737" y="-445" on="0"/>
        <pt x="-1737" y="-524" on="1"/>
        <pt x="-1737" y="-603" on="0"/>
        <pt x="-1815" y="-700" on="0"/>
        <pt x="-1943" y="-700" on="1"/>
        <pt x="-2067" y="-700" on="0"/>
        <pt x="-2158" y="-617" on="1"/>
        <pt x="-2250" y="-535" on="0"/>
      </contour>
    </TTGlyph>
    <TTGlyph name="glyph238" xMin="-2425" yMin="-700" xMax="-975" yMax="-100">
      <contour>
        <pt x="-2425" y="-450" on="1"/>
        <pt x="-2425" y="-275" on="0"/>
        <pt x="-2315" y="-188" on="1"/>
        <pt x="-2205" y="-100" on="0"/>
        <pt x="-1985" y="-100" on="1"/>
        <pt x="-1775" y="-100" on="0"/>
        <pt x="-1596" y="-184" on="1"/>
        <pt x="-1417" y="-268" on="0"/>
        <pt x="-1310" y="-435" on="1"/>
        <pt x="-1185" y="-600" on="0"/>
        <pt x="-1125" y="-600" on="1"/>
        <pt x="-1035" y="-600" on="0"/>
        <pt x="-975" y="-550" on="1"/>
        <pt x="-975" y="-625" on="0"/>
        <pt x="-1013" y="-662" on="1"/>
        <pt x="-1050" y="-700" on="0"/>
        <pt x="-1125" y="-700" on="1"/>
        <pt x="-1260" y="-700" on="0"/>
        <pt x="-1364" y="-654" on="1"/>
        <pt x="-1467" y="-608" on="0"/>
        <pt x="-1540" y="-515" on="1"/>
        <pt x="-1627" y="-408" on="0"/>
        <pt x="-1749" y="-354" on="1"/>
        <pt x="-1870" y="-300" on="0"/>
        <pt x="-1985" y="-300" on="1"/>
        <pt x="-2155" y="-300" on="0"/>
        <pt x="-2240" y="-338" on="1"/>
        <pt x="-2325" y="-375" on="0"/>
        <pt x="-2325" y="-450" on="1"/>
        <pt x="-2325" y="-570" on="0"/>
        <pt x="-2245" y="-570" on="1"/>
        <pt x="-2175" y="-570" on="0"/>
        <pt x="-2175" y="-450" on="1"/>
        <pt x="-2075" y="-450" on="0"/>
        <pt x="-2025" y="-481" on="1"/>
        <pt x="-1975" y="-512" on="0"/>
        <pt x="-1975" y="-575" on="1"/>
        <pt x="-1975" y="-638" on="0"/>
        <pt x="-2013" y="-669" on="1"/>
        <pt x="-2050" y="-700" on="0"/>
        <pt x="-2125" y="-700" on="1"/>
        <pt x="-2275" y="-700" on="0"/>
        <pt x="-2350" y="-638" on="1"/>
        <pt x="-2425" y="-575" on="0"/>
      </contour>
    </TTGlyph>
    <TTGlyph name="glyph239" xMin="-2248" yMin="-700" xMax="-1151" yMax="-51">
      <contour>
        <pt x="-2248" y="-51" on="1"/>
        <pt x="-2138" y="-51" on="1"/>
        <pt x="-2028" y="-51" on="0"/>
        <pt x="-1919" y="-85" on="1"/>
        <pt x="-1809" y="-118" on="0"/>
        <pt x="-1809" y="-231" on="1"/>
        <pt x="-1809" y="-343" on="0"/>
        <pt x="-1912" y="-414" on="1"/>
        <pt x="-1898" y="-473" on="0"/>
        <pt x="-1843" y="-473" on="1"/>
        <pt x="-1781" y="-473" on="0"/>
        <pt x="-1667" y="-343" on="1"/>
        <pt x="-1553" y="-213" on="0"/>
        <pt x="-1392" y="-213" on="1"/>
        <pt x="-1301" y="-213" on="0"/>
        <pt x="-1226" y="-271" on="1"/>
        <pt x="-1151" y="-329" on="0"/>
        <pt x="-1151" y="-451" on="1"/>
        <pt x="-1151" y="-573" on="0"/>
        <pt x="-1215" y="-636" on="1"/>
        <pt x="-1279" y="-700" on="0"/>
        <pt x="-1370" y="-700" on="1"/>
        <pt x="-1462" y="-700" on="0"/>
        <pt x="-1508" y="-668" on="1"/>
        <pt x="-1553" y="-635" on="0"/>
        <pt x="-1553" y="-570" on="1"/>
        <pt x="-1553" y="-505" on="0"/>
        <pt x="-1516" y="-473" on="1"/>
        <pt x="-1480" y="-440" on="0"/>
        <pt x="-1407" y="-440" on="1"/>
        <pt x="-1407" y="-473" on="0"/>
        <pt x="-1370" y="-473" on="1"/>
        <pt x="-1334" y="-473" on="0"/>
        <pt x="-1334" y="-444" on="1"/>
        <pt x="-1334" y="-356" on="0"/>
        <pt x="-1443" y="-356" on="1"/>
        <pt x="-1538" y="-356" on="0"/>
        <pt x="-1606" y="-442" on="1"/>
        <pt x="-1674" y="-528" on="1"/>
        <pt x="-1809" y="-700" on="0"/>
        <pt x="-1882" y="-700" on="1"/>
        <pt x="-1992" y="-700" on="0"/>
        <pt x="-2120" y="-610" on="1"/>
        <pt x="-2248" y="-522" on="0"/>
        <pt x="-2248" y="-393" on="1"/>
        <pt x="-2234" y="-375" on="0"/>
        <pt x="-2211" y="-375" on="1"/>
        <pt x="-2036" y="-375" on="0"/>
        <pt x="-1977" y="-351" on="1"/>
        <pt x="-1919" y="-327" on="0"/>
        <pt x="-1919" y="-292" on="1"/>
        <pt x="-1919" y="-259" on="0"/>
        <pt x="-2006" y="-259" on="1"/>
        <pt x="-2093" y="-259" on="0"/>
        <pt x="-2248" y="-278" on="1"/>
      </contour>
    </TTGlyph>
</ttFont>
